<svg xmlns="http://www.w3.org/2000/svg" width="180" height="72" fill="none">
  <path fill="#CFDB2C" d="M162.939 30.529c-.002 2.5754-2.066 4.6616-4.613 4.6636-2.545 0-4.61-2.0882-4.612-4.6636.002-2.5755 2.065-4.6616 4.612-4.6636 2.547.004 4.613 2.0901 4.613 4.6636Zm17.061 0c-.002 2.5754-2.065 4.6616-4.612 4.6636-2.546 0-4.611-2.0882-4.613-4.6636.002-2.5755 2.065-4.6616 4.613-4.6636 2.549.004 4.612 2.0901 4.612 4.6636Zm-8.53 8.6184c-.002 2.5755-2.065 4.6617-4.612 4.6637-2.545 0-4.61-2.0882-4.612-4.6637.002-2.5754 2.065-4.6616 4.612-4.6636 2.549.002 4.612 2.0902 4.612 4.6636Zm-34.119-17.2429c-.002 2.5755-2.065 4.6616-4.612 4.6636-2.545 0-4.61-2.0881-4.612-4.6636.002-2.5754 2.065-4.6616 4.612-4.6636 2.547.004 4.612 2.0902 4.612 4.6636Zm17.058 0c-.002 2.5755-2.065 4.6616-4.612 4.6636-2.546 0-4.611-2.0881-4.613-4.6636.002-2.5754 2.065-4.6616 4.613-4.6636 2.547.004 4.612 2.0902 4.612 4.6636Zm17.061 0c-.002 2.5755-2.065 4.6616-4.612 4.6636-2.545 0-4.61-2.0881-4.612-4.6636.002-2.5754 2.065-4.6616 4.612-4.6636 2.549.004 4.612 2.0902 4.612 4.6636Zm-25.589-8.6386c-.002 2.5755-2.065 4.6617-4.612 4.6637-2.545 0-4.611-2.0882-4.613-4.6637.002-2.5754 2.066-4.66156 4.613-4.66357 2.547.00201 4.612 2.09017 4.612 4.66357Zm17.058 0c-.002 2.5755-2.066 4.6617-4.613 4.6637-2.545 0-4.61-2.0882-4.612-4.6637.002-2.5754 2.065-4.66156 4.612-4.66357 2.547.00201 4.613 2.09017 4.613 4.66357Zm12.801-4.30919c-.002 2.57549-2.065 4.66159-4.612 4.66359-2.545 0-4.611-2.0881-4.613-4.66359.002-2.57546 2.066-4.66161 4.613-4.66362 2.547.00403 4.612 2.09219 4.612 4.66362Zm0 43.13049c-.002 2.5754-2.065 4.6616-4.612 4.6636-2.545 0-4.611-2.0882-4.613-4.6636.002-2.5755 2.066-4.6616 4.613-4.6636 2.547.002 4.612 2.0901 4.612 4.6636ZM133.078 8.95671c-.002 2.57549-2.066 4.66159-4.613 4.66359-2.545 0-4.61-2.0881-4.612-4.66359.002-2.57546 2.065-4.66161 4.612-4.66362 2.547.00403 4.613 2.09219 4.613 4.66362Zm21.331-4.29309c-.002 2.57546-2.065 4.66161-4.612 4.66362-2.546 0-4.611-2.08816-4.613-4.66362.002-2.57546 2.065-4.66160635 4.613-4.66362 2.547.00201365 4.612 2.09017 4.612 4.66362Zm8.53 43.11028c-.002 2.5755-2.066 4.6616-4.613 4.6636-2.545 0-4.61-2.0881-4.612-4.6636.002-2.5755 2.065-4.6616 4.612-4.6636 2.547.004 4.613 2.0902 4.613 4.6636ZM14.9285 64.2295c-.004 4.1682-3.3418 7.5431-7.46427 7.5472-4.11847 0-7.46024695-3.379-7.46423-7.5472.00398305-4.1683 3.34178-7.5432 7.46423-7.5472 4.12247.004 7.46427 3.383 7.46427 7.5472Z"/>
  <path fill="#282633" d="M48.8262 40.6375V71.098h-9.0375v-2.8634c-1.9896 2.3157-4.941 3.7172-8.9778 3.7172-7.8944 0-14.4007-7.0055-14.4007-16.083 0-9.0776 6.5083-16.0831 14.4007-16.0831 4.0368 0 6.9882 1.4015 8.9778 3.7172v-2.8634h9.0375v-.002Zm-9.0375 15.2293c0-4.569-3.0132-7.4324-7.1695-7.4324s-7.1695 2.8634-7.1695 7.4324c0 4.5689 3.0132 7.4324 7.1695 7.4324s7.1695-2.8635 7.1695-7.4324Zm41.6607-15.2293v30.4606h-9.0376v-2.8634c-1.6271 2.2532-4.6402 3.7172-8.6153 3.7172-6.0861 0-11.2681-4.3878-11.2681-12.6115V40.6375h9.0376v17.3638c0 3.7776 2.35 5.5436 5.2417 5.5436 3.3139 0 5.6041-1.9493 5.6041-6.2746V40.6375h9.0376Zm39.5596 10.0804c0 11.5845-8.506 20.4788-19.674 20.4788H85.1317V30.239h16.2033c11.168 0 19.674 8.8943 19.674 20.4789Zm-8.912.5336c0-7.0216-4.399-11.4677-10.764-11.4677h-6.9447v22.4018h6.9447c6.367 0 10.764-3.9125 10.764-10.9341Zm33.346 13.5076h-15.044l-2.025 6.4356h-10.127l13.771-40.9557h11.806l13.771 40.9557h-10.127l-2.025-6.4356Zm-2.776-8.7755-4.746-15.0359-4.746 15.0359h9.492Z"/>
</svg>