<svg xmlns="http://www.w3.org/2000/svg" version="1.1" id="CO.UK" x="0" y="0" viewBox="0 0 580.3 545" xml:space="preserve" width="580.3" height="545">
    <style type="text/css" id="style2">
        .st0{fill:#00a2e1}
    </style>
    <g id="g14" transform="translate(-447.1 -1)">
        <circle class="st0" cx="474.6" cy="454" id="ellipse10" r="27.5" style="fill:#00a2e1"/>
        <path class="st0" d="M754.9 1C604.4 1 482.3 123 482.3 273.5c0 62.9 21.3 120.8 57.1 166.9-3.9-9.8-5.9-21.3-5.9-34.6v-97.2h48.9V395c0 27.7 4.8 41 27.4 41 21.7 0 28.2-13.9 28.2-40.8v-86.6h48.1v97.3c0 51.5-29.8 75.5-76.8 75.5-15.4 0-28.8-2.7-39.9-8.2C618 518.4 683.2 546 754.8 546c150.5 0 272.6-122 272.6-272.6C1027.4 122.8 905.4 1 754.9 1zm74.5 480.5l-45.3-70.9-17.1 18.1v52.7h-49.2V245.3H767v125.8l57.6-63.1h58.9l-66 68.3 68.3 105.1h-56.4z" id="path12" style="fill:#00a2e1"/>
    </g>
</svg>

