<?xml version="1.0" encoding="UTF-8" standalone="no"?>
<svg
   xmlns:dc="http://purl.org/dc/elements/1.1/"
   xmlns:cc="http://creativecommons.org/ns#"
   xmlns:rdf="http://www.w3.org/1999/02/22-rdf-syntax-ns#"
   xmlns:svg="http://www.w3.org/2000/svg"
   xmlns="http://www.w3.org/2000/svg"
   xmlns:xlink="http://www.w3.org/1999/xlink"
   xmlns:sodipodi="http://sodipodi.sourceforge.net/DTD/sodipodi-0.dtd"
   xmlns:inkscape="http://www.inkscape.org/namespaces/inkscape"
   viewBox="0 0 2260.2602 540.14722"
   height="540.14722"
   width="2260.2603"
   xml:space="preserve"
   id="svg2"
   version="1.1"
   sodipodi:docname=".com.svg"
   inkscape:version="0.92.1 r15371"><sodipodi:namedview
     pagecolor="#ffffff"
     bordercolor="#666666"
     borderopacity="1"
     objecttolerance="10"
     gridtolerance="10"
     guidetolerance="10"
     inkscape:pageopacity="0"
     inkscape:pageshadow="2"
     inkscape:window-width="1600"
     inkscape:window-height="837"
     id="namedview103"
     showgrid="false"
     inkscape:pagecheckerboard="true"
     fit-margin-top="0"
     fit-margin-left="0"
     fit-margin-right="0"
     fit-margin-bottom="0"
     inkscape:zoom="0.08514284"
     inkscape:cx="-366.90843"
     inkscape:cy="1494.3221"
     inkscape:window-x="-8"
     inkscape:window-y="-8"
     inkscape:window-maximized="1"
     inkscape:current-layer="svg2" /><metadata
     id="metadata8"><rdf:RDF><cc:Work
         rdf:about=""><dc:format>image/svg+xml</dc:format><dc:type
           rdf:resource="http://purl.org/dc/dcmitype/StillImage" /><dc:title></dc:title></cc:Work></rdf:RDF></metadata><defs
     id="defs6"><linearGradient
       inkscape:collect="always"
       id="linearGradient828"><stop
         style="stop-color:#128cd9;stop-opacity:1"
         offset="0"
         id="stop824" /><stop
         style="stop-color:#1fc7fd;stop-opacity:1"
         offset="1"
         id="stop826" /></linearGradient><clipPath
       id="clipPath22"
       clipPathUnits="userSpaceOnUse"><path
         id="path20"
         d="M 0,226.516 H 399.696 V 0 H 0 Z"
         inkscape:connector-curvature="0" /></clipPath><linearGradient
       inkscape:collect="always"
       xlink:href="#linearGradient828"
       id="linearGradient830"
       x1="-3822.2532"
       y1="1311.4253"
       x2="-3822.2483"
       y2="1083.8665"
       gradientUnits="userSpaceOnUse"
       gradientTransform="translate(3937.5007,-926.50061)" /></defs><circle
     id="path21"
     cx="115.25"
     cy="272.6134"
     style="fill:url(#linearGradient830);fill-opacity:1;stroke-width:1.91467535"
     r="115.25" /><g
     aria-label="com"
     transform="matrix(0.98077624,0,0,1.0196006,3937.5007,-926.50061)"
     style="font-style:normal;font-weight:normal;font-size:894.87078857px;line-height:1.25;font-family:sans-serif;letter-spacing:0px;word-spacing:0px;fill:#005aa1;fill-opacity:1;stroke:none;stroke-width:4.6607852"
     id="text25"><path
       d="m -3150.284,1233.5278 q -9.8436,42.059 -33.1102,79.6435 -23.2667,37.5846 -57.2718,65.3256 -33.1102,27.741 -76.9589,43.8487 -42.9538,16.1077 -93.0665,16.1077 -56.3769,0 -105.5948,-20.5821 -48.323,-20.582 -84.1178,-56.3768 -34.9,-36.6897 -55.482,-85.0128 -20.582,-48.323 -20.582,-103.805 0,-54.5871 19.6871,-102.9101 20.582,-48.323 55.482,-84.11786 35.7948,-35.79484 83.223,-56.37686 48.323,-20.58203 103.805,-20.58203 49.2179,0 93.0666,16.10767 43.8486,15.21281 77.8537,42.9538 34.9,26.84612 58.1666,65.32558 24.1615,38.4794 34.0051,84.1178 h -150.3383 q -6.2641,-12.5281 -15.2128,-25.0563 -8.9487,-12.5282 -21.4769,-22.3718 -12.5282,-9.8436 -30.4256,-16.1077 -17.0025,-6.2641 -40.2692,-6.2641 -26.8461,-0.8949 -48.323,8.9487 -21.4769,8.9487 -37.5846,25.9513 -15.2128,17.0025 -24.1615,41.164 -8.0538,23.2667 -8.0538,50.1128 0,26.8461 8.0538,50.1128 8.9487,23.2666 24.1615,40.2692 16.1077,17.0025 37.5846,26.8461 21.4769,8.9487 48.323,8.9487 23.2667,0 40.2692,-6.2641 17.8974,-6.2641 30.4256,-15.2128 12.5282,-9.8436 21.4769,-21.4769 8.9487,-11.6333 15.2128,-23.2667 z"
       style="font-style:normal;font-variant:normal;font-weight:bold;font-stretch:normal;font-family:'AvantGarde LT Medium';-inkscape-font-specification:'AvantGarde LT Medium, Bold';fill:#005aa1;fill-opacity:1;stroke-width:4.6607852"
       id="path12"
       inkscape:connector-curvature="0" /><path
       d="m -2943.2613,1173.5715 q 0,26.8461 8.9488,50.1128 9.8435,23.2666 25.9512,40.2692 17.0026,16.1076 38.4794,25.9512 21.4769,8.9487 45.6385,8.9487 24.1615,0 45.6384,-8.9487 21.4769,-9.8436 37.5845,-25.9512 17.0026,-17.0026 25.9513,-40.2692 9.8436,-23.2667 9.8436,-50.1128 0,-26.8461 -9.8436,-50.1128 -8.9487,-23.2666 -25.9513,-39.3743 -16.1076,-17.0025 -37.5845,-25.9512 -21.4769,-9.8436 -45.6384,-9.8436 -24.1616,0 -45.6385,9.8436 -21.4768,8.9487 -38.4794,25.9512 -16.1077,16.1077 -25.9512,39.3743 -8.9488,23.2667 -8.9488,50.1128 z m -148.5485,0 q 0,-45.6384 16.1077,-92.1717 17.0025,-47.4281 50.1127,-85.01271 33.1103,-38.47945 83.223,-62.64096 50.1128,-24.16151 118.123,-24.16151 68.0101,0 118.1229,24.16151 50.1128,24.16151 83.223,62.64096 33.1102,37.58461 49.2179,85.01271 17.0025,46.5333 17.0025,92.1717 0,45.6384 -17.0025,93.0666 -16.1077,46.5332 -49.2179,85.0127 -33.1102,37.5846 -83.223,61.7461 -50.1128,24.1615 -118.1229,24.1615 -68.0102,0 -118.123,-24.1615 -50.1127,-24.1615 -83.223,-61.7461 -33.1102,-38.4795 -50.1127,-85.0127 -16.1077,-47.4282 -16.1077,-93.0666 z"
       style="font-style:normal;font-variant:normal;font-weight:bold;font-stretch:normal;font-family:'AvantGarde LT Medium';-inkscape-font-specification:'AvantGarde LT Medium, Bold';fill:#005aa1;fill-opacity:1;stroke-width:4.6607852"
       id="path14"
       inkscape:connector-curvature="0" /><path
       d="m -2472.5453,925.69229 h 138.705 v 52.79738 h 1.7897 q 4.4744,-8.05384 13.4231,-19.68716 8.9487,-11.63332 24.1615,-22.37177 16.1077,-11.63332 40.2692,-19.68715 24.1615,-8.05384 59.0614,-8.05384 16.1077,0 34.9,3.57948 19.6872,3.57948 38.4794,13.42306 18.7923,9.84358 36.6897,26.84613 17.8975,17.00254 33.1103,44.74354 23.2666,-36.68971 61.7461,-62.64096 38.4794,-25.95125 95.7511,-25.95125 13.4231,0 29.5308,1.78974 16.1076,1.78974 33.1102,7.15897 17.8974,5.36922 34.8999,15.2128 17.8975,9.84358 33.1103,25.95125 17.0025,18.79229 27.741,35.79483 10.7384,16.10766 16.1076,37.58456 6.2641,21.4769 8.0539,50.1128 1.7897,27.741 1.7897,68.905 v 271.1459 h -148.5485 v -263.9869 q 0,-15.2128 -1.7898,-34.0051 -0.8949,-19.6871 -8.0538,-35.7948 -7.159,-17.0026 -22.3718,-28.6359 -15.2128,-11.6333 -43.8487,-11.6333 -31.3204,0 -48.323,12.5282 -16.1077,11.6333 -24.1615,28.6358 -7.159,17.0026 -8.9487,34.0051 -0.8949,17.0026 -0.8949,27.741 v 271.1459 h -148.5485 v -270.251 q 0,-9.8436 -1.7898,-26.8461 -0.8948,-17.8974 -8.0538,-34.9 -6.2641,-17.0025 -21.4769,-29.5307 -15.2128,-12.5282 -42.9538,-12.5282 -31.3205,0 -48.323,13.4231 -17.0026,12.5281 -25.0564,30.4256 -8.0538,17.8974 -9.8436,36.6897 -0.8949,18.7922 -0.8949,29.5307 v 263.9869 h -148.5485 z"
       style="font-style:normal;font-variant:normal;font-weight:bold;font-stretch:normal;font-family:'AvantGarde LT Medium';-inkscape-font-specification:'AvantGarde LT Medium, Bold';fill:#005aa1;fill-opacity:1;stroke-width:4.6607852"
       id="path16"
       inkscape:connector-curvature="0" /></g></svg>
