<?xml version="1.0" encoding="utf-8"?>
<!-- Generator: Adobe Illustrator 18.1.0, SVG Export Plug-In . SVG Version: 6.00 Build 0)  -->
<!DOCTYPE svg PUBLIC "-//W3C//DTD SVG 1.1//EN" "http://www.w3.org/Graphics/SVG/1.1/DTD/svg11.dtd">
<svg version="1.1" id="Layer_1" xmlns="http://www.w3.org/2000/svg" xmlns:xlink="http://www.w3.org/1999/xlink" x="0px" y="0px"
	 viewBox="0 0 766 239" enable-background="new 0 0 766 239" xml:space="preserve">
<path fill="#035464" d="M38,178.5c-14.3,0-25.4-11.2-25.4-25.4c0-14.3,11.2-25.4,25.4-25.4c14.3,0,25.4,11.2,25.4,25.4
	C63.5,167.3,52.3,178.5,38,178.5z M38,130.4c-12.7,0-22.7,10-22.7,22.7c0,12.7,10,22.7,22.7,22.7c12.7,0,22.7-10,22.7-22.7
	C60.7,140.3,50.7,130.4,38,130.4z"/>
<path d="M53.9,149.7c-1.5,2.7-3.1,5.4-4.7,8c3.6-9.2,7.2-18.3,8.3-28.2c0.2-2.3-2.9-3.3-4.3-1.8c-5.3,5.6-9.2,12.2-12.6,19.1
	c1.3-4.4,2.4-8.7,3.3-13.2c0.5-2.3-2.5-4.6-4.3-2.5c-3.1,3.7-5.8,7.6-8.3,11.7c0.5-2.5,1-5,1.3-7.6c0.4-2.8-3.4-3-4.7-1.3
	c-7.5,10.1-12.8,21.6-20.4,31.7c-2,2.6,2.5,5.2,4.4,2.6c4.9-6.6,8.9-13.8,13.2-20.8c-1.5,5.6-3.3,11.1-5.4,16.6
	c-1,2.7,3.3,4.5,4.7,2c3.7-6.8,7.2-13.8,11.3-20.5c-2.4,8.4-5.1,16.7-6.9,25.3c-0.5,2.7,3.2,4.6,4.7,2c6-10.7,10.3-22.8,17-33.2
	c-3.1,11-8.5,21.3-11.5,32.3c-0.7,2.4,2.5,4.4,4.3,2.5c0.7-0.7,1.3-1.5,2-2.2c-0.3,1.6-0.6,3.3-0.7,5c-0.2,3.3,4.9,3.3,5.1,0
	c0.6-9.2,5.6-17,9-25.3C59.6,148.9,55.3,147.2,53.9,149.7z"/>
<g>
	<path fill="#035464" d="M138.5,176.8c-36.4,0-71.7-26.7-71.7-81c0-56.6,38.5-79.1,70.1-79.1c33.9,0,51.5,18.1,52.7,19.3
		c0,9.3-0.2,17.9-2.3,28.1c-3.5,0.5-7,0.7-10.4,0.7c-6.7,0-12.3-0.7-12.3-0.7c0-18.6-13.5-24.4-27.8-24.4
		c-24.4,0-39.2,23.4-39.2,55.7c0,32.5,14.6,57.3,41.5,57.3c23,0,30.6-21.1,30.6-21.1c12.8,0,25.5,7.2,25.5,7.2
		C191.2,153.6,173.5,176.8,138.5,176.8z"/>
	<path fill="#035464" d="M203.9,123.6c0-35.5,26.2-55.4,49.9-55.4c24.6,0,49.6,19.3,49.6,55.4c0,36-24.8,53.1-49.6,53.1
		C228.3,176.8,203.9,159.1,203.9,123.6z M273.3,123.6c0-16.2-4.6-33.4-19.5-33.4s-19.7,17.2-19.7,33.4c0,15.5,6,32,19.7,32
		C267.5,155.6,273.3,139.2,273.3,123.6z"/>
	<path fill="#035464" d="M327.3,35.5c0-9-7.4-5.8-7.4-5.8s-6-7.7-7.9-16.7c6.5-4.2,15.5-7,21.3-7c12.1,0,22.7,7.4,22.7,23.2v116.5
		c0,10.7,7.4,5.8,7.4,5.8c7,5.8,9,13.9,9,13.9s-7.2,11.4-23,11.4c-13.9,0-22.3-12.1-22.3-24.1V35.5z"/>
	<path fill="#035464" d="M389.5,35.5c0-9-7.4-5.8-7.4-5.8s-6-7.7-7.9-16.7c6.5-4.2,15.5-7,21.3-7c12.1,0,22.7,7.4,22.7,23.2v116.5
		c0,10.7,7.4,5.8,7.4,5.8c7,5.8,9,13.9,9,13.9s-7.2,11.4-23,11.4c-13.9,0-22.3-12.1-22.3-24.1V35.5z"/>
	<path fill="#035464" d="M493,176.8c-21.8,0-49.6-14.2-49.6-53.4c0-39.4,27.8-55.2,47.8-55.2c22.5,0,43.2,17.2,43.2,49
		c0,11.4-24.4,17.9-46.2,17.9c-4.6,0-9-0.2-14.6-1.4c1.9,19,12.5,21.8,21.1,21.8c9.7,0,17.4-9.5,19-12.5c12.8,0.2,20.9,7.7,20.9,7.7
		C530.8,161.2,516.2,176.8,493,176.8z M487.2,115.5c9,0,17.6-0.9,17.6-3.2c0-8.6-3.9-23.2-13.5-23.2c-10.7,0-16.5,9.7-17.6,25.5
		C477.4,115,482.3,115.5,487.2,115.5z"/>
	<path fill="#035464" d="M550.5,160c0-8.8,7.9-16,14.2-18.8c-6-4.6-15.1-14.2-15.1-31.6c0-25.5,23.2-41.5,45-41.5
		c12.5,0,19,3.5,23.4,6c4.4-2.3,11.1-6,26.2-7c3.5,10,2.1,19.7,2.1,19.7c-7.9-0.5-15.1,0.7-15.1,0.7c1.9,1.9,7.9,10.9,7.9,22
		c0,22.3-16.9,41.3-45.2,41.3c-7,0-14.6-1.6-14.6-1.6c-1.4,0.7-3.2,2.6-3.2,4.6c0,13,71-6.3,71,41.1c0,20-18.6,39.9-52.7,39.9
		c-35.7,0-51.5-16-51.5-32.9c0-9.3,6.5-18.8,17.6-24.1C553.3,173,550.5,167.5,550.5,160z M568.8,198.6c0,10,11.6,15.3,26,15.3
		c15.1,0,24.6-7.4,24.6-15.5c0-14.2-27.8-11.1-42.9-14.8C573.3,187.7,568.8,191.4,568.8,198.6z M610.4,109.5
		c0-12.3-6.7-20.4-15.5-20.4c-7.2,0-16,7.7-16,20.9s7.7,20.4,16,20.4C603,130.4,610.4,122.5,610.4,109.5z"/>
	<path fill="#035464" d="M706.2,176.8c-21.8,0-49.6-14.2-49.6-53.4c0-39.4,27.8-55.2,47.8-55.2c22.5,0,43.2,17.2,43.2,49
		c0,11.4-24.4,17.9-46.2,17.9c-4.6,0-9-0.2-14.6-1.4c1.9,19,12.5,21.8,21.1,21.8c9.7,0,17.4-9.5,19-12.5c12.8,0.2,20.9,7.7,20.9,7.7
		C744,161.2,729.4,176.8,706.2,176.8z M700.4,115.5c9,0,17.6-0.9,17.6-3.2c0-8.6-3.9-23.2-13.5-23.2c-10.7,0-16.5,9.7-17.6,25.5
		C690.6,115,695.5,115.5,700.4,115.5z"/>
</g>
</svg>
