<?xml version="1.0" encoding="UTF-8" standalone="no"?>
<svg
   xmlns:dc="http://purl.org/dc/elements/1.1/"
   xmlns:cc="http://creativecommons.org/ns#"
   xmlns:rdf="http://www.w3.org/1999/02/22-rdf-syntax-ns#"
   xmlns:svg="http://www.w3.org/2000/svg"
   xmlns="http://www.w3.org/2000/svg"
   xmlns:sodipodi="http://sodipodi.sourceforge.net/DTD/sodipodi-0.dtd"
   xmlns:inkscape="http://www.inkscape.org/namespaces/inkscape"
   viewBox="0 0 183.37 73.654679"
   version="1.1"
   id="svg110"
   sodipodi:docname="logo.net.color.svg"
   width="183.37"
   height="73.654678"
   inkscape:version="0.92.1 r15371">
  <metadata
     id="metadata114">
    <rdf:RDF>
      <cc:Work
         rdf:about="">
        <dc:format>image/svg+xml</dc:format>
        <dc:type
           rdf:resource="http://purl.org/dc/dcmitype/StillImage" />
        <dc:title>logo.net.color</dc:title>
      </cc:Work>
    </rdf:RDF>
  </metadata>
  <sodipodi:namedview
     pagecolor="#ffffff"
     bordercolor="#666666"
     borderopacity="1"
     objecttolerance="10"
     gridtolerance="10"
     guidetolerance="10"
     inkscape:pageopacity="0"
     inkscape:pageshadow="2"
     inkscape:window-width="1600"
     inkscape:window-height="837"
     id="namedview112"
     showgrid="false"
     fit-margin-top="0"
     fit-margin-left="0"
     fit-margin-right="0"
     fit-margin-bottom="0"
     inkscape:zoom="3.166296"
     inkscape:cx="194.56471"
     inkscape:cy="-1.4124853"
     inkscape:window-x="-8"
     inkscape:window-y="-8"
     inkscape:window-maximized="1"
     inkscape:current-layer="svg110" />
  <defs
     id="defs32">
    <style
       id="style2">.cls-1{fill:none;}.cls-2{fill:#0064a4;}.cls-3{fill:#fdcc0f;}.cls-4{fill:#231f20;}.cls-5{fill:#6d6e71;}.cls-6{clip-path:url(#clip-path);}.cls-7{clip-path:url(#clip-path-2);}.cls-8{clip-path:url(#clip-path-3);}.cls-9{fill:url(#linear-gradient);}.cls-10{clip-path:url(#clip-path-4);}.cls-11{clip-path:url(#clip-path-5);}.cls-12{fill:#fff;}</style>
    <clipPath
       id="clip-path">
      <rect
         class="cls-1"
         x="185.47"
         y="75.349998"
         width="32.77"
         height="32.77"
         id="rect4"
         style="fill:none" />
    </clipPath>
    <clipPath
       id="clip-path-2">
      <rect
         class="cls-1"
         x="185.47"
         y="75.349998"
         width="32.77"
         height="32.77"
         id="rect7"
         style="fill:none" />
    </clipPath>
    <clipPath
       id="clip-path-3">
      <path
         class="cls-1"
         d="M 188,91.63 A 13.77,13.77 0 1 0 201.77,77.86 13.77,13.77 0 0 0 188,91.63"
         id="path10"
         inkscape:connector-curvature="0"
         style="fill:none" />
    </clipPath>
    <linearGradient
       id="linear-gradient"
       x1="-11.87"
       y1="498.39999"
       x2="-10.54"
       y2="498.39999"
       gradientTransform="matrix(-20.68,0,0,20.68,-29.97,-10214.7)"
       gradientUnits="userSpaceOnUse">
      <stop
         offset="0"
         stop-color="#fff"
         id="stop13" />
      <stop
         offset="0.15"
         stop-color="#f9f9f9"
         id="stop15" />
      <stop
         offset="0.36"
         stop-color="#e9e9ea"
         id="stop17" />
      <stop
         offset="0.58"
         stop-color="#cecfcf"
         id="stop19" />
      <stop
         offset="0.83"
         stop-color="#a8aaab"
         id="stop21" />
      <stop
         offset="1"
         stop-color="#8a8c8e"
         id="stop23" />
    </linearGradient>
    <clipPath
       id="clip-path-4">
      <path
         class="cls-2"
         d="M 190.56,91.63 A 11.19,11.19 0 1 0 201.75,80.44 11.19,11.19 0 0 0 190.56,91.63"
         id="path26"
         inkscape:connector-curvature="0"
         style="fill:#0064a4" />
    </clipPath>
    <clipPath
       id="clip-path-5">
      <rect
         class="cls-1"
         x="192.10001"
         y="84.660004"
         width="19.66"
         height="17.370001"
         id="rect29"
         style="fill:none" />
    </clipPath>
  </defs>
  <title
     id="title34">logo.net.color</title>
  <path
     class="cls-3"
     d="m 24.419996,61.124233 a 12.21,12.21 0 1 1 -12.21,-12.22 12.21,12.21 0 0 1 12.21,12.22"
     id="path36"
     inkscape:connector-curvature="0"
     style="fill:#fdcc0f" />
  <path
     class="cls-4"
     d="m 82.469996,66.774233 c 0,3.56 -1.72,5.28 -5.28,5.28 h -7.8 c -3.56,0 -5.28,-1.72 -5.28,-5.28 v -31.67 c 0,-4.24 -1.49,-7.11 -6.42,-7.11 a 20,20 0 0 0 -10.21,3 v 35.8 c 0,3.56 -1.72,5.28 -5.28,5.28 h -7.8 c -3.56,0 -5.28,-1.72 -5.28,-5.28 v -46.79 c 0,-3.55 1.72,-5.28 5.28,-5.28 h 2.87 c 2.53,0 3.56,1.26 5.16,4.13 a 39.31,39.31 0 0 1 20,-5.74 c 15.6,0 20.08,8.26 20.08,19.27 z"
     id="path38"
     inkscape:connector-curvature="0"
     style="fill:#231f20" />
  <path
     class="cls-4"
     d="m 134.33,49.454233 h -28.57 c -0.46,7.46 3.44,9.64 12.39,9.64 a 43.16,43.16 0 0 0 12.84,-1.61 c 4.59,-1 7.22,1.72 7.22,5.16 v 2.18 c 0,3.1 -1.15,5 -4.13,6.08 a 61.67,61.67 0 0 1 -18.36,2.75 c -18.930004,0 -28.110004,-9.64 -28.110004,-30.29 0,-20.65 9.06,-30.29 26.850004,-30.29 22.14,0 25.58,14.91 25.13,31.09 0,3.44 -1.72,5.28 -5.28,5.28 m -28.55,-11.24 h 16.29 c 1,-6.31 -0.34,-11.36 -7.34,-11.36 -6.19,0 -8.95,4.13 -8.95,11.36"
     id="path40"
     inkscape:connector-curvature="0"
     style="fill:#231f20" />
  <path
     class="cls-4"
     d="m 150.73,7.6842332 c 0,-3.33 1.37,-4.59 5.51,-5.74 l 6,-1.61000005 c 4.75,-1.25 6.85,1.16000005 6.85,4.67000005 v 9.6399998 h 9 c 3.56,0 5.28,1.72 5.28,5.28 v 4.71 c 0,3.56 -1.72,5.28 -5.28,5.28 h -9 v 21.94 c 0,4.48 1.72,7 7.57,7 h 1.15 a 4.73,4.73 0 0 1 4.93,4.82 v 3.78 a 5.65,5.65 0 0 1 -4.7,5.74 27.42,27.42 0 0 1 -5.16,0.46 c -16.29,0 -22.14,-6.77 -22.14,-20.31 v -23.4 h -4.47 c -3.56,0 -5.28,-1.72 -5.28,-5.28 v -2.66 c 0,-3 1.26,-4.47 4.59,-5.39 l 5.16,-1.38 z"
     id="path42"
     inkscape:connector-curvature="0"
     style="fill:#231f20" />
</svg>
