<?xml version="1.0" encoding="UTF-8"?>
<svg id="edu_logo" width="129.60001" height="67.930008" data-name=".edu logo" version="1.1" viewBox="0 0 129.60001 67.930008" xmlns="http://www.w3.org/2000/svg" xmlns:cc="http://creativecommons.org/ns#" xmlns:dc="http://purl.org/dc/elements/1.1/" xmlns:rdf="http://www.w3.org/1999/02/22-rdf-syntax-ns#">
 <title id="title845">.edu logo</title>
 <rect id="rect847" class="cls-2" x="1.345835" y="1.345835" width="126.90833" height="65.238335" fill="#b30838" stroke="#b30838" stroke-width="2.69167"/>
 <g id="g851" class="cls-3" transform="translate(2.0000021,2.0000021)">
  <path id="path849" class="cls-4" d="m95 41.92c5.5 0 9-3 9-9.24v-11.56h-4.5v11.73c0 3.25-1.67 4.92-4.42 4.92s-4.41-1.77-4.41-5.06v-11.59h-4.5v11.7c0 6 3.36 9.1 8.86 9.1m-38.13-4.39v-12.34h3.48c3.481876-0.182372 6.356733 2.687833 6.18 6.17v0.06c0.173482 3.471788-2.710413 6.323018-6.18 6.11zm-4.5 4.07h8c6.44 0 10.88-4.48 10.88-10.24v-0.06c0-5.76-4.44-10.18-10.88-10.18h-8zm-30.82 0h15.59v-4h-11.11v-4.3h9.65v-4h-9.65v-4.17h10.94v-4h-15.42z" fill="#ffffff"/>
 </g>
 <metadata id="metadata936">
  <rdf:RDF>
   <cc:Work rdf:about="">
    <dc:title>.edu logo</dc:title>
   </cc:Work>
  </rdf:RDF>
 </metadata>
</svg>
