<svg height="306.245403" viewBox="0 0 1207.3733 1131.8" width="326.535514" xmlns="http://www.w3.org/2000/svg"><g transform="matrix(.13333333 0 0 -.13333333 0 1131.8)"><path d="m8506.58 6329.92c-1151.91 2041.04-3740.29 2761.82-5781.34 1609.92-1708.37-964.17-2491.467-2934.68-2025.97-4748.28 512.11 207.14 1110.69 7.48 1389.48-486.51 278.57-493.6 140.56-1108.65-300.64-1440.17 1312.21-1332.9698 3401.67-1679.599 5108.56-716.278 2041.02 1151.898 2761.81 3740.288 1609.91 5781.318" fill="#53c3f1"/><path d="m699.27 3191.56c-44.52-18.02-88.461-38.75-131.411-62.99-536.9332-303.04-726.547-983.96-423.515-1520.9 303.027-536.93 983.956-726.541 1520.886-423.51 43.34 24.46 84.15 51.62 122.88 80.72-256.89 260.96-484.19 559.47-672.77 893.63-187.75 332.66-325.426 679.89-416.07 1033.05" fill="#fccd17"/><g fill="#fff"><path d="m2088.75 2705.05c-278.79 493.99-877.37 693.65-1389.48 486.51 90.644-353.16 228.32-700.39 416.07-1033.05 188.58-334.16 415.88-632.67 672.77-893.63 441.2 331.52 579.21 946.57 300.64 1440.17"/><path d="m3933.89 2935.91c-719.54 0-1302.67 584.13-1302.67 1304.73 0 720.55 583.13 1304.81 1302.67 1304.81 719.43 0 1302.56-584.26 1302.56-1304.81 0-720.6-583.13-1304.73-1302.56-1304.73zm1721.43 3549.12h-32.15c-213.07 0-385.78-172.96-385.78-386.24v-200.68c-358.66 283.37-811.23 453.05-1303.5 453.05-1163.75 0-2107.17-944.98-2107.17-2110.52 0-1165.64 943.42-2110.54 2107.17-2110.54 492.42 0 945.17 169.39 1303.9 453.02v-195.18c0-213.24 172.49-386.19 385.57-386.19h32.21c170 0 314.07 110.41 365.39 263.27 7.03 21.18 12.11 42.89 15.5 65.37-.08.15-.08.37-.15.47.07.64.15 1.39.26 1.99 0 0 .19-.31.19-.41 2.67 18.2 4.53 36.67 4.53 55.5l-.33 3710.85c0 213.28-172.72 386.24-385.64 386.24"/><path d="m8494.87 6350.05c-20.11.44-39.97 1.11-60.59 1.11-492.42 0-944.99-169.68-1303.65-453.11v200.74c0 213.28-172.63 386.24-385.71 386.24h-32.19c-213 0-385.56-172.96-385.56-386.24v-3710.84c0-213.25 172.56-386.2 385.56-386.2h32.19c213.08 0 385.71 172.95 385.71 386.2v1885.08c.67.3 1.26.67 1.86 1.04 17.72 705.17 593.47 1271.38 1301.79 1271.38 154.7 0 302.89-27.45 440.51-77.06-88.85 294-210.95 582.89-368.21 861.53-3.83 6.79-7.85 13.39-11.71 20.13"/></g></g></svg>