<svg xmlns="http://www.w3.org/2000/svg" width="65.027" height="65" viewBox="0 0 65.027 65"><defs><style>.a{fill:#fbd29e;}.b{fill:#fce7cb;}.c{fill:#f9c98b;}.d{fill:#f7cb8f;}.e{fill:#f7c98c;}.f{fill:#f5951b;}.g{fill:#322085;}.h{fill:#309025;}.i{fill:#322086;}</style></defs><path class="a" d="M0,31.409l.062,0c0,.057.011.114.011.171,0,.492,0,.984-.006,1.476a3.419,3.419,0,0,1-.005.516L0,33.561Z"/><path class="b" d="M65.027,33.292l-.016,0H65V31.676a.113.113,0,0,1,.032,0Z"/><path class="c" d="M33.244,65H31.822v-.036h1.422Z"/><path class="d" d="M31.822,64.964V65h-.5v-.044a.094.094,0,0,1,.087-.023A2.711,2.711,0,0,0,31.822,64.964Z"/><path class="e" d="M33.244,65v-.036c.106,0,.213-.006.319-.015.061-.006.121-.04.18.006V65Z"/><path class="f" d="M33.743,64.955c-.059-.046-.119-.012-.18-.006-.106.009-.213.01-.319.015H31.822a2.711,2.711,0,0,1-.412-.031.094.094,0,0,0-.087.023c-.722-.04-1.445-.078-2.164-.154a32.953,32.953,0,0,1-3.616-.582,32.4,32.4,0,0,1-14.85-7.681,32.578,32.578,0,0,1-6.985-9.045c-.046-.088-.089-.178-.143-.285a.451.451,0,0,1,.2.06,4.887,4.887,0,0,0,2.432.293c.19-.023.19-.027.3.155A30.26,30.26,0,0,0,23.566,61.289a29.122,29.122,0,0,0,4.275.991q1.149.175,2.306.269c.843.066,1.687.1,2.532.095.89-.008,1.779-.05,2.665-.131a30.193,30.193,0,0,0,25.6-19.9,29.331,29.331,0,0,0,1.364-5.347c.114-.721.2-1.444.266-2.171a29.623,29.623,0,0,0,.1-3.512c-.027-.934-.1-1.866-.213-2.794a29.964,29.964,0,0,0-6.98-15.868A30,30,0,0,0,45.194,5.106,29.508,29.508,0,0,0,38.52,2.921q-1.365-.273-2.749-.422c-.828-.089-1.658-.133-2.49-.164a26.866,26.866,0,0,0-2.936.067A30.189,30.189,0,0,0,5.693,18.71,29.671,29.671,0,0,0,3,26.342a31.25,31.25,0,0,0-.509,3.473A30.574,30.574,0,0,0,2.4,33.749a29.1,29.1,0,0,0,.669,5.191.232.232,0,0,0,.007.038c.051.132.008.21-.112.293A4.286,4.286,0,0,0,1.4,41.246c-.024.059-.047.118-.07.176-.062,0-.054-.047-.063-.08a32.365,32.365,0,0,1-.732-3.2Q.324,36.954.2,35.75C.13,35.024.08,34.3.062,33.567a3.419,3.419,0,0,0,.005-.516c0-.492,0-.984.006-1.476,0-.057-.007-.114-.011-.171q.021-.883.1-1.764.105-1.166.288-2.323A32.28,32.28,0,0,1,7.48,11.8,32.33,32.33,0,0,1,18.719,3.071,31.741,31.741,0,0,1,26.189.617c1.036-.2,2.079-.354,3.13-.463A33.151,33.151,0,0,1,33.808.022a30.588,30.588,0,0,1,3.5.324A32.313,32.313,0,0,1,53.523,7.692a32.45,32.45,0,0,1,7.751,9.643,31.974,31.974,0,0,1,2.85,7.558,32.714,32.714,0,0,1,.6,3.244c.12.895.2,1.793.25,2.694.017.281.013.564.018.845v1.618c-.016.364-.013.729-.035,1.094q-.088,1.485-.307,2.957A32.214,32.214,0,0,1,60.4,49.187,32.591,32.591,0,0,1,41.9,63.6a31.061,31.061,0,0,1-4.335.981c-.924.141-1.851.253-2.784.308Z"/><path class="g" d="M30.624,22.83c.3-.246.583-.492.878-.727a18.444,18.444,0,0,1,5.149-2.932,14.312,14.312,0,0,1,3.6-.82,13.882,13.882,0,0,1,1.593-.045,3.463,3.463,0,0,1,.393.08c.456.063.913.125,1.363.223a8.961,8.961,0,0,1,3.78,1.793,6.174,6.174,0,0,1,1.809,2.491,13.082,13.082,0,0,1,.73,2.521c.081.408.152.817.206,1.23a6.365,6.365,0,0,1,.02.805c.01,1.518.005,3.036.022,4.554.021,1.9.015,3.792.033,5.687.02,2.159.028,4.317.037,6.475,0,.775.014,1.55.021,2.325,0,.187.034.2-.2.2l-6.322,0c-.1,0-.2,0-.308.006-.081,0-.115-.024-.11-.111.01-.172.014-.345.019-.518.033-1.024.06-2.048.1-3.071q.087-2.18.134-4.359c.022-.979.036-1.959.037-2.939,0-1.242-.019-2.484-.077-3.725a33.831,33.831,0,0,0-.3-3.423,14.051,14.051,0,0,0-.341-1.633,3.509,3.509,0,0,0-2.163-2.406,5.645,5.645,0,0,0-1.96-.418,11.072,11.072,0,0,0-3.2.32,4.6,4.6,0,0,0-1.255.518A1.032,1.032,0,0,1,34.2,25a4.287,4.287,0,0,0-1.441,1.065c-.19.208-.375.421-.55.641a4.254,4.254,0,0,0-.765,1.7,11.567,11.567,0,0,0-.273,2.515c-.013.826.013,1.653.011,2.479,0,1.2-.023,2.407-.034,3.611-.006.679-.008,1.358-.012,2.037q-.009,1.5-.018,3-.015,2.229-.032,4.458c0,.032,0,.064,0,.1,0,.067-.032.091-.094.09H24.9c-.02,0-.039,0-.058,0-.144,0-.144,0-.148-.152V46.42q0-13.932,0-27.865c0-.307-.037-.263.265-.264l5.38-.011c.044,0,.089,0,.134,0,.139,0,.143,0,.143.137,0,.244-.008.487-.009.73q0,1.788,0,3.574A.136.136,0,0,0,30.624,22.83Z"/><path class="h" d="M9.928,44.219A25.542,25.542,0,0,0,26.035,57.083,25.05,25.05,0,0,0,44.08,55.139,25.41,25.41,0,1,0,7.943,39.114c-.057,0-.1-.043-.147-.069a4.517,4.517,0,0,0-2.188-.565.767.767,0,0,0-.1,0c-.09.011-.121-.032-.137-.117-.057-.314-.127-.627-.184-.941a26.927,26.927,0,0,1-.375-3.048,29.334,29.334,0,0,1-.025-3.3,27.25,27.25,0,0,1,.329-3.111,26.226,26.226,0,0,1,1.435-5.327A27.635,27.635,0,0,1,19.867,7.764a26.568,26.568,0,0,1,7.3-2.533,28.179,28.179,0,0,1,4.671-.509,26.352,26.352,0,0,1,3.587.139A27.831,27.831,0,0,1,59.4,25.444a26.856,26.856,0,0,1,.715,3.826,27.566,27.566,0,0,1,.172,4.142,27.2,27.2,0,0,1-2.55,10.739A27.62,27.62,0,0,1,45.22,57.2a26.942,26.942,0,0,1-7.408,2.564A27.805,27.805,0,0,1,8.675,46.725a.753.753,0,0,0-.051-.082c-.067-.082-.04-.138.033-.206A4.233,4.233,0,0,0,9.781,44.7C9.835,44.539,9.879,44.379,9.928,44.219Z"/><path class="g" d="M21.106,36.175q0,5.141,0,10.281c0,.283.031.242-.246.242H15.267c-.045,0-.09,0-.134,0-.072,0-.108-.025-.1-.1,0-.051,0-.1,0-.154V25.865c0-.265-.043-.243.248-.244h5.611c.241,0,.216-.024.216.215Q21.107,31.006,21.106,36.175Z"/><path class="g" d="M5.56,46.594a3.444,3.444,0,0,1-2.541-1.03,3.387,3.387,0,0,1-.929-1.94,3.768,3.768,0,0,1,.331-2.244A3.259,3.259,0,0,1,4.8,39.565a3.653,3.653,0,0,1,2.041.148A3.192,3.192,0,0,1,8.807,41.64,3.73,3.73,0,0,1,8.646,44.8a3.25,3.25,0,0,1-2.53,1.756A3.132,3.132,0,0,1,5.56,46.594Z"/><path class="i" d="M18.133,24.065H15.348a.88.88,0,0,0-.115,0c-.106.013-.137-.039-.127-.134a.769.769,0,0,0,0-.1q0-2.67,0-5.34c0-.226-.036-.216.217-.216h5.647c.229,0,.211-.02.211.2q0,2.689,0,5.379c0,.012,0,.025,0,.038,0,.164,0,.166-.168.166Z"/></svg>
