<?xml version="1.0" encoding="UTF-8"?>
<svg xmlns="http://www.w3.org/2000/svg" width="600" height="149" viewBox="0 0 601 149">
  <path fill="#fff" d="M323.328125 3.542969c42.230469-.046875 84.460937-.027344 126.691406-.007813-1.066406 4.484375-2.210937 8.949219-3.285156 13.429688-11.113281.070312-22.226563 0-33.339844.035156-1.230469.007812-2.601562.328125-3.316406 1.425781-.804687 1.054688-.535156 2.449219-.378906 3.664063.597656 3.894531 1.027343 7.820312 1.839843 11.675781.488282 2.273437.613282 4.59375.785157 6.910156.457031 3.988281.070312 8.023438-.480469 11.984375-.714844 5.050782-2.335938 9.980469-4.894531 14.402344-2.46875 4.203125-5.863281 7.890625-9.949219 10.5625-5.457031 3.722656-11.8125 6.109375-18.363281 6.925781-3.425781.449219-6.890625.441407-10.339844.464844-1.195313.023437-2.589844.28125-3.257813 1.390625-.710937 1.058594-.464843 2.375-.210937 3.53125 2.074219 10.035156 4.480469 20.105469 8.820313 29.429688 2.144531 5.011718 5.496093 9.507812 9.6875 12.996093 1.496093 1.359375 3.359374 2.210938 5.195312 3.003907 2.78125 1.050781 5.796875 1.730468 8.78125 1.347656 3.433594-.480469 6.53125-2.699219 8.207031-5.71875 2.6875-6.234375 3.421875-13.15625 3.007813-19.882813-.023438-1.007812.011718-2.019531.089844-3.023437 7.503906-1.550782 14.992187-3.195313 22.492187-4.785156-.320313 6.273437-1.507813 12.503906-3.574219 18.433593-.957031 2.714844-1.917968 5.464844-3.453125 7.921875-1.335937 2.28125-2.925781 4.417969-4.675781 6.398438-4.390625 4.273437-10.117188 7.117187-16.140625 8.171875-5.65625.988281-11.496094.964843-17.128906-.128907-6.132813-1.195312-11.957031-3.898437-16.824219-7.804687-2.015625-1.652344-4.113281-3.253906-5.71875-5.328125-3.65625-4.0625-6.644531-8.667969-9.269531-13.449219-2.644531-4.5625-4.617188-9.472656-6.449219-14.40625-2.664062-7.421875-4.46875-15.132812-5.5-22.945312-1.050781-8.796875-2.097656-17.601563-2.726562-26.441407 7.59375-2.285156 15.140624-4.730468 22.742187-7 .390625 8.101563.816406 16.203126 1.199219 24.304688-.023438 1.65625 1.296875 2.957031 2.742187 3.535156 1.554688.464844 3.203125.261719 4.804688.308594 2.578125.074219 5.136719-.382812 7.648437-.933594 3.03125-.707031 5.476563-2.878906 7.355469-5.265625 3.53125-5.082031 4.300781-11.507812 4.128906-17.550781-.160156-3.914062-.097656-7.863281-.820312-11.726562-1.285157-6.933594-3.667969-13.597657-5.464844-20.394532-.445313-1.582031-2.230469-2.046875-3.683594-2.011718-20.089843.007812-40.179687-.011719-60.265625.011718 1.132813-4.476562 2.25-8.957031 3.292969-13.460937Zm0 0"/>
  <path fill="#ff6400" d="M110.992188 4.558594C116.761719.980469 123.707031-.292969 130.421875.0546875c6.90625.2812505 13.625 2.8437505 19.167969 6.9296875 7.570312 5.59375 13.085937 13.515625 17.332031 21.820313C172 38.625 175.660156 49.429688 175.78125 60.578125c7.398438.644531 14.796875 1.34375 22.199219 1.929687.15625-3.898437-.132813-7.792968-.117188-11.695312.035157-5.46875-.242187-10.941406-.160156-16.414062-.132813-4.714844-.203125-9.429688-.15625-14.144532-6.988281-.027344-13.980469.097656-20.96875-.0625.039063-6.519531.039063-13.042968 0-19.5625 7.53125-.164062 15.066406-.027344 22.597656-.070312 40.539063-.011719 81.082031.019531 121.621094-.015625-1.425781 6.515625-3.25 12.9375-4.667969 19.457031-5.316406.039062-10.632812.042969-15.945312-.007812-.144532 10.90625.097656 21.816406-.148438 32.71875-.003906 15.996093.050782 31.992187-.066406 47.984374.042969 8.738282-.171875 17.472657-.054688 26.207032-.039062.867187.183594 2.027344-.804687 2.445312-9.609375 5.597656-19.21875 11.199219-28.828125 16.792969-.019531-36.613281 0-73.230469-.007812-109.847656-.046876-5.320313.089843-10.644531-.074219-15.964844-13.921875-.171875-27.851563-.011719-41.777344-.089844-.105469 3.554688.027344 7.121094-.152344 10.679688 0 17.152343.007813 34.308593-.0625 51.464843.074219 4.839844-.171875 9.679688-.105469 14.523438-.011718 10.675781.035157 21.351562-.03125 32.027344-9.960937 5.652344-19.769531 11.5625-29.722656 17.222656-.007812-13.890625-.023437-27.785156-.007812-41.675781-.191406-8.421875-.078125-16.847657-.164063-25.269531-7.152343-1.316407-14.292969-2.679688-21.464843-3.890626-.125 7.066407-.417969 14.222657-2.378907 21.058594-2.476562 9.359375-6.050781 18.675782-12.257812 26.226563-6.832031 8.53125-17.328125 13.945312-28.210938 14.765625-5.984375.472656-12.179687-.085938-17.71875-2.539063-5.460937-2.292969-9.988281-6.511719-13.050781-11.539062-1.230469-2.042969-2.414062-4.164063-2.96875-6.503907-.613281-2.519531-1.152344-5.070312-1.425781-7.65625-.675781-7.21875 1.058593-14.621093 4.824219-20.808593 4.835937-7.984375 12.488281-13.808594 20.5625-18.242188 3.03125-1.589843 6.066406-3.226562 9.339843-4.253906 4.015625-1.339844 8.101563-2.4375 12.171875-3.597656.820313-.074219.695313-1.011719.722656-1.605469-.152343-11.117188-2.800781-22.203125-7.773437-32.148438-1.441406-3.722656-3.222656-7.488281-6.355469-10.09375-2.847656-2.476562-6.867187-3.15625-10.519531-2.761718-1.6875.851562-3.035156 2.613281-3.050781 4.554687-.105469 3.582031.046875 7.300781 1.507812 10.625.863282 1.9375 2.324219 3.640625 4.25 4.578125 1.519532.738282 3.039063 1.621094 4.75 1.824219 2.398438.28125 4.804688.519531 7.222656.46875.839844 4.046875 1.589844 8.109375 2.328126 12.175781-1.539063 1.867188-3.191407 3.742188-5.425782 4.789063-2.007812.917969-3.882812 2.171875-6.003906 2.804687-3.027344.542969-6.101562.980469-9.183594.867188-1.863281-.023438-3.558594-.902344-5.25-1.582032-5.261718-2.253906-9.339844-6.609374-12.210937-11.472656-1.792969-2.773437-2.425781-6.082031-2.992188-9.285156-.796875-5.546875-.726562-11.367188 1.265625-16.671875C101.125 13.214844 105.523438 8 110.992188 4.558594m25.429687 85.113281c-3.476563 4.625-6.746094 9.441406-9.367187 14.613281-1.570313 3.238282-3.054688 6.652344-3.214844 10.296875-.066406 1.929688.691406 4.066407 2.476562 5.015625 1.695313.863282 3.679688 1.078125 5.558594.859375 2.417969-.359375 4.300781-2.171875 5.628906-4.113281 1.835938-2.699219 3.097656-5.742188 4.109375-8.832031 2.125-6.585938 3.261719-13.445313 4.074219-20.304688.25-2.832031.679688-5.667969.539062-8.519531-3.773437 3.167969-6.765624 7.136719-9.804687 10.984375Zm0 0"/>
  <path fill="#00643c" d="M454.027344.480469c48.933594-.066407 97.871094.023437 146.804687-.046875.160157 6.480468-.015625 12.964844.089844 19.445312-13.476563.007813-26.953125-.015625-40.429687.011719-.113282 8.835937-.179688 17.671875-.160157 26.507813-.050781 3.464843.011719 6.9375-.136719 10.402343-.015624 9.054688.039063 18.113281-.167968 27.164063.023437 7.371094-.011719 14.742187-.046875 22.109375-.269531 7.632812.070312 15.269531-.226563 22.902343-9.722656 5.621094-19.304687 11.484376-29 17.152344-.0625-24.601562-.003906-49.203125-.03125-73.808594-2.421875-1.464843-4.871094-2.886718-7.289062-4.351562-3.46875-2.136719-7.238282-3.699219-10.867188-5.527344-2.257812-1.199218-4.695312-1.96875-7.152344-2.636718-3.011718-.785157-5.921874-2.058594-9.050781-2.324219-2.308593-.230469-4.609375-.507813-6.910156-.765625-1.890625-.238282-3.765625.253906-5.632813.449218-4.5625.3125-8.160156 4.96875-7.730468 9.4375.070312 3.242188-.125 6.492188.203125 9.726563.332031 4.125 1.292969 8.164063 2.316406 12.167969.828125 2.953125 1.507813 5.949218 2.492187 8.859375 2.902344 8.417969 6.898438 16.394531 10.550782 24.5 2.371094 4.65625 5.019531 9.167969 7.40625 13.820312-10.429688 4.417969-20.867188 8.8125-31.300782 13.222657-2.308593-5.578126-4.828124-11.066407-6.917968-16.734376-2.140625-5.625-4.398438-11.214843-6.011719-17.019531-2.070313-7.160156-3.578125-14.476562-4.628906-21.851562-.203125-3-.019531-6.011719-.085938-9.015625-.125-7.667969 1.554688-15.410156 5.128907-22.21875 4.597656-8.699219 12.0625-15.722656 20.691406-20.359375 7.25-3.847657 15.429687-5.757813 23.609375-6 4.34375-.113281 8.730469-.304688 13.027343.5 2.847657.195312 5.496094 1.316406 8.167969 2.238281 3.375 1.15625 6.628907 2.636719 9.976563 3.878906.027344-7.417968-.089844-14.851562.710937-22.234375-27.386719-.105469-54.78125.035157-82.167969-.070312 1.558594-6.515625 3.207032-13.015625 4.769532-19.53125Zm0 0"/>
  <path fill="#008" d="M320.796875.542969c6.996094-.160157 13.996094-.027344 20.996094-.070313 37.410156.007813 74.824219-.007812 112.234375.007813-1.5625 6.515625-3.210938 13.015625-4.769532 19.53125-12.15625.039062-24.3125.023437-36.472656.007812.542969 4.375 1.082032 8.757813 1.96875 13.074219.648438 3.027344.640625 6.136719.960938 9.207031.179687 7.304688-.734375 14.738281-3.460938 21.554688-1.875 4.410156-4.425781 8.652343-7.945312 11.949219-4.699219 4.984374-10.953125 8.285156-17.425782 10.332031-6.15625 1.957031-12.675781 2.199219-19.078124 2.015625 2.363281 11.574218 5.136718 23.289062 10.878906 33.710937 1.816406 3.011719 4.0625 5.816407 6.851562 7.980469 1.78125 1.59375 4.0625 2.453125 6.316406 3.144531 2.34375.675781 5.007813.945313 7.246094-.226562 1.65625-.886719 3.195313-2.253907 3.792969-4.085938.902344-2.621093 1.835937-5.269531 2.035156-8.054687.242188-3.289063.324219-6.585938.554688-9.875.132812-1.757813-.167969-3.507813-.285157-5.257813 9.714844-2.0625 19.414063-4.183593 29.136719-6.203125.277344 7.277344-.902343 14.558594-2.996093 21.515625-1.5625 5.148438-3.667969 10.222657-7 14.492188-3.46875 4.640625-8.285157 8.261719-13.699219 10.304687-5.429688 2.089844-11.3125 2.699219-17.089844 2.539063-6.695313-.074219-13.402344-1.613281-19.359375-4.707031-5.519531-2.925782-10.46875-6.953126-14.425781-11.796876-3.824219-4.5625-6.933594-9.675781-9.644531-14.960937-5.78125-11.160156-9.269532-23.417969-10.957032-35.847656-.941406-8.082031-1.929687-16.164063-2.554687-24.28125-.105469-1.667969-.421875-3.320313-.386719-4.988281.878906-.640626 1.984375-.804688 2.996094-1.144532 6.980468-2.152344 13.960937-4.320312 20.941406-6.492187 1.726562-.527344 3.4375-1.148438 5.230469-1.457031.539062 9.394531.898437 18.800781 1.457031 28.195312.273438 1.160156 1.769531 1 2.703125 1.042969 3.253906.015625 6.632813-.207031 9.679687-1.433594 3.019532-1.394531 5.128907-4.261719 6.199219-7.351563 2.292969-6.0625 1.597657-12.632812 1.347657-18.957031-.804688-8.234375-3.902344-15.980469-5.921876-23.945312-21.578124.027343-43.152343.046875-64.722656-.011719 1.417969-6.519531 3.242188-12.941406 4.667969-19.457031m2.53125 3c-1.042969 4.503906-2.160156 8.984375-3.292969 13.460937 20.085938-.023437 40.175782-.003906 60.265625-.011718 1.453125-.035157 3.238281.429687 3.683594 2.011718 1.796875 6.796875 4.179687 13.460938 5.464844 20.394532.722656 3.863281.660156 7.8125.820312 11.726562.171875 6.042969-.597656 12.46875-4.128906 17.550781-1.878906 2.386719-4.324219 4.558594-7.355469 5.265625-2.511718.550782-5.070312 1.007813-7.648437.933594-1.601563-.046875-3.25.15625-4.804688-.308594-1.445312-.578125-2.765625-1.878906-2.742187-3.535156-.382813-8.101562-.808594-16.203125-1.199219-24.304688-7.601563 2.269532-15.148437 4.714844-22.742187 7 .628906 8.839844 1.675781 17.644532 2.726562 26.441407 1.03125 7.8125 2.835938 15.523437 5.5 22.945312 1.832031 4.933594 3.804688 9.84375 6.449219 14.40625 2.625 4.78125 5.613281 9.386719 9.269531 13.449219 1.605469 2.074219 3.703125 3.675781 5.71875 5.328125 4.867188 3.90625 10.691406 6.609375 16.824219 7.804687 5.632812 1.09375 11.472656 1.117188 17.128906.128907 6.023437-1.054688 11.75-3.898438 16.140625-8.171875 1.75-1.980469 3.339844-4.117188 4.675781-6.398438 1.535157-2.457031 2.496094-5.207031 3.453125-7.921875 2.066406-5.929687 3.253906-12.160156 3.574219-18.433593-7.5 1.589843-14.988281 3.234374-22.492187 4.785156-.078126 1.003906-.113282 2.015625-.089844 3.023437.414062 6.726563-.320313 13.648438-3.007813 19.882813-1.675781 3.019531-4.773437 5.238281-8.207031 5.71875-2.984375.382812-6-.296875-8.78125-1.347656-1.835938-.792969-3.699219-1.644532-5.195312-3.003907-4.191407-3.488281-7.542969-7.984375-9.6875-12.996093-4.339844-9.324219-6.746094-19.394532-8.820313-29.429688-.253906-1.15625-.5-2.472656.210937-3.53125.667969-1.109375 2.0625-1.367188 3.257813-1.390625 3.449219-.023437 6.914063-.015625 10.339844-.464844C385.1875 83.734375 391.542969 81.347656 397 77.625c4.085938-2.671875 7.480469-6.359375 9.949219-10.5625 2.558593-4.421875 4.179687-9.351562 4.894531-14.402344.550781-3.960937.9375-7.996094.480469-11.984375-.171875-2.316406-.296875-4.636719-.785157-6.910156-.8125-3.855469-1.242187-7.78125-1.839843-11.675781-.15625-1.214844-.425781-2.609375.378906-3.664063.714844-1.097656 2.085937-1.417969 3.316406-1.425781 11.113281-.035156 22.226563.035156 33.339844-.035156 1.074219-4.480469 2.21875-8.945313 3.285156-13.429688-42.230469-.019531-84.460937-.039062-126.691406.007813Zm0 0"/>
  <path fill="#302385" d="M36.394531 66.976562c.328125-.160156.695313-.125 1.046875-.136718 1.421875-.015625 2.839844-.007813 4.253906 0 .351563.007812.726563-.019532 1.054688.136718.527344.042969 1.078125-.066406 1.578125.148438.371094.027344.761719-.007812 1.109375.160156.316406.019532.652344.003906.945312.15625.316407.019532.636719.039063.945313.136719.210937.050781.421875.101563.628906.171875.265625.03125.53125.0625.789063.148438.207031.046874.417968.09375.628906.152343.152344.058594.308594.113281.46875.171875.207031.035156.421875.074219.632812.140625.15625.058594.3125.113281.472657.167969.152343.046875.3125.097656.464843.15625.730469.269531 1.507813.433594 2.195313.796875.277344.058594.542969.167969.785156.3125.621094.167969 1.164063.523437 1.738281.789063.074219.039062.234376.121093.3125.160156.269532.132812.539063.269531.8125.398437.585938.300781 1.1875.578125 1.738282.945313.269531.140625.515625.324218.78125.476562.222656.097656.421875.230469.617187.382813.15625.09375.3125.195312.460938.308593.382812.242188.773437.472657 1.097656.800782.464844.257812.902344.558594 1.261719.949218.683594.457032 1.324218.984376 1.894531 1.582032.25.109375.457031.285156.644531.484375 1.167969 1.203125 2.375 2.371093 3.554688 3.5625.207031.625.953125.867187 1.191406 1.492187.238281.238282.492188.472656.632812.789063.191407.183593.359376.390625.480469.625.402344.410156.644531.945312 1.003907 1.386719.214843.394531.511718.742187.726562 1.140624.378906.539063.714844 1.121094 1.015625 1.714844.269531.410156.519531.828125.71875 1.285156.039063.078126.121094.234376.160156.3125.035157.078126.113281.230469.148438.308594.183593.355469.390625.703125.472656 1.101563.1875.351562.414063.699219.464844 1.105469.164062.234374.285156.496093.320312.785156.492188 1 .726563 2.113281 1.125 3.148437.058594.207031.109375.414063.15625.628907.058594.203124.105469.414062.152344.628906.066406.207031.113281.414062.160156.628906.058594.207031.109375.421875.164063.636719.066406.257812.109375.523437.148437.789062.097657.304688.121094.625.148438.941407.148437.347656.128906.730468.148437 1.101562.183594.394531.132813.835938.15625 1.261719.246094.660156.089844 1.375.160156 2.058593.1875.589844.078126 1.21875.128907 1.828126-.046875.664062.070312 1.359374-.132813 2-.058594.734374.085938 1.496093-.152344 2.210937-.027343.421875.011719.863281-.15625 1.265625-.023437.371094-.03125.746094-.140624 1.101562-.039063.269532-.074219.535157-.164063.789063-.035156.261719-.066406.535156-.160156.785156-.03125.269531-.070313.535157-.144531.792969-.054688.210938-.105469.421875-.164063.628906-.046875.210938-.09375.421875-.15625.628906-.132813.355469-.214844.726563-.3125 1.097657-.285156.726562-.425781 1.515625-.808594 2.207031-.128906.546875-.339843 1.078125-.628906 1.566406-.097656.515625-.402344.953125-.621094 1.421875-.039062.074219-.117187.230469-.15625.304688-.097656.214843-.207031.425781-.320312.632812-.089844.21875-.195313.433594-.316407.640625-.253906.554688-.542968 1.089844-.875 1.605469-.21875.441406-.554687.820313-.785156 1.257813-.242187.441406-.515625.863281-.859375 1.230468-.40625.675782-.871093 1.328125-1.421875 1.886719-.132812.324219-.390625.554687-.632812.789063-.320313.746093-1.210938 1.066406-1.507813 1.8125-.84375.851562-1.691406 1.703124-2.554687 2.546874-.625.257813-.941406.941407-1.492188 1.316407-.328125.199219-.613281.460937-.878906.734375-.40625.132812-.605469.566406-1.003906.722656-.191406.1875-.398438.355469-.636719.476562-.066406.054688-.1875.164063-.253906.214844-.648438.402344-1.230469.914063-1.914063 1.269532-.269531.144531-.515625.328124-.792968.476562-.453126.292969-.929688.554688-1.421876.777344-.644531.417968-1.320312.816406-2.0625 1.035156-.460937.226562-.910156.519531-1.421874.632812-.246094.148438-.507813.257813-.785157.3125-.847656.425782-1.789062.636719-2.679687.957032-.15625.054687-.304688.109375-.460938.164062-.203125.058594-.414062.105469-.625.152344-.210937.066406-.417968.113281-.628906.160156-.207031.058594-.421875.109375-.632812.15625-.207032.066406-.421876.113282-.632813.164063-.257813.078125-.519531.113281-.785156.15625-.304688.105469-.628907.117187-.945313.144531-.296875.128906-.625.128906-.941406.164062-.402344.148438-.847656.117188-1.269531.144532-.601563.234375-1.261719.089844-1.890625.160156-.796875.226562-1.648438.085938-2.46875.128906-.714844-.050781-1.460938.101563-2.152344-.132812-.625-.066406-1.292969.09375-1.890625-.160156-.425781-.027344-.871094.035156-1.273437-.15625-.367188-.019532-.746094-.003907-1.097657-.140626-.269531-.035156-.539062-.058593-.789062-.160156-.265625-.03125-.535157-.054687-.789063-.15625-.261718-.039062-.53125-.070312-.785156-.148437-.214844-.058594-.421875-.101563-.628906-.167969-.214844-.046875-.425782-.09375-.636719-.152344-.152344-.054687-.308594-.109375-.457031-.167968-.214844-.039063-.429688-.082032-.640625-.144532-.152344-.058594-.308594-.113281-.460938-.164062-.578125-.207032-1.191406-.335938-1.734375-.644532-.28125-.046874-.539062-.171874-.78125-.3125-.285156-.050781-.542968-.171874-.789062-.3125-.464844-.097656-.859375-.371093-1.28125-.554687-.253906-.132813-.507813-.261719-.765625-.390625-.753907-.378906-1.527344-.726562-2.238281-1.191406-.269532-.140625-.511719-.324219-.78125-.46875-.539063-.300782-1.042969-.660156-1.550782-1.011719-.390625-.234375-.765625-.480469-1.101562-.789063-.234375-.125-.441406-.292968-.628906-.476562-.308594-.152344-.546876-.398438-.785157-.640625-.550781-.195313-.773437-.832031-1.316406-1.03125-1.546875-1.519531-3.082031-3.0625-4.609375-4.609375-.140625-.40625-.53125-.628906-.800781-.941406-.105469-.425782-.585938-.59375-.71875-1.011719-.355469-.386719-.65625-.824219-.953125-1.253906-.113282-.15625-.234375-.308594-.304688-.484375-.277344-.265625-.503906-.574219-.621094-.933594-.125-.148438-.25-.296875-.328124-.472656-.34375-.507813-.679688-1.03125-.9375-1.589844-.328126-.496094-.609376-1.015625-.871094-1.546875-.183594-.425781-.453125-.816406-.546875-1.277344-.234375-.460937-.519531-.914062-.636719-1.421875-.226562-.390625-.355469-.828125-.46875-1.257812-.367188-.742188-.617188-1.550782-.792969-2.359375-.058593-.15625-.117187-.308594-.171875-.464844-.109375-.421875-.222656-.839844-.308594-1.265625-.070312-.203125-.117187-.414062-.160156-.625-.089844-.257812-.121094-.527344-.148437-.792969-.109375-.25-.132813-.523437-.15625-.789062-.128907-.300781-.132813-.625-.152344-.941407-.164063-.347656-.136719-.734374-.152344-1.105468-.2031248-.453125-.121093-.957032-.160156-1.433594-.1523438-.382812-.1289062-.804688-.140625-1.203125v-4.40625c.0117188-.410156-.0195312-.835937.148438-1.21875.027343-.527344-.042969-1.070313.144531-1.578125.027343-.367188.019531-.746094.152343-1.097656.03125-.320313.050782-.644532.152344-.949219.035156-.265625.074219-.53125.152344-.785156.039062-.214844.082031-.433594.171875-.625.03125-.273438.058594-.542969.140625-.800781.050781-.203126.105469-.414063.164062-.617188.4375-1.425781.832032-2.886719 1.433594-4.257812.074219-.398438.28125-.746094.476563-1.09375.066406-.472657.371093-.847657.539062-1.28125.082031-.152344.160157-.300782.242188-.445313.148437-.328125.300781-.644531.472656-.953125.183594-.453125.453125-.871094.714844-1.285156.136719-.277344.328125-.519532.472656-.789063.097656-.21875.226563-.421875.386719-.605469.132812-.226562.277344-.449218.410156-.671874.121094-.148438.242188-.296876.3125-.476563.546875-.71875.996094-1.527344 1.644531-2.160156.15625-.394531.507813-.644531.792969-.9375.246094-.699219 1.097656-.960938 1.339844-1.652344.902344-.910156 1.800781-1.820313 2.722656-2.707031.59375-.253906.914062-.890625 1.425781-1.265625.484375-.164063.679688-.707031 1.160157-.882813.183593-.191406.390624-.355468.628906-.476562.191406-.183594.390625-.355469.632812-.472656.328125-.3125.710938-.558594 1.097656-.796876.148438-.113281.3125-.222656.484376-.308593.0625-.054688.1875-.164063.246093-.214844.285157-.144531.539063-.335937.820313-.484375.359375-.21875.710937-.464844 1.105468-.621094.5-.355468 1.050782-.613281 1.597657-.882812.074219-.039063.234375-.121094.316406-.160156.464844-.210938.898437-.527344 1.410156-.621094.351563-.195313.707031-.402344 1.109375-.472656.242188-.152344.503906-.265626.785156-.320313.691407-.363281 1.464844-.53125 2.199219-.792969.15625-.058594.308594-.113281.464844-.164062.207031-.0625.417969-.109375.632813-.15625.207031-.070313.417968-.117188.625-.160156.207031-.066407.417968-.113282.632812-.15625.203125-.066407.414062-.117188.628906-.160157.253906-.085937.523438-.113281.789063-.144531.25-.113281.515625-.132812.785156-.160156.304687-.125.628906-.128906.957031-.152344.339844-.15625.722656-.125 1.097656-.15625.5-.199219 1.046876-.109375 1.574219-.148438m.753907 8.421876c.019531.832031-.578126 1.664062-1.441407 1.722656-.820312.109375-1.550781-.535156-1.738281-1.304688-1.644531.292969-3.265625.734375-4.847656 1.289063.261718.824219-.152344 1.820312-1.007813 2.070312-.777343.277344-1.585937-.1875-1.972656-.863281-1.484375.789062-2.972656 1.570312-4.335937 2.550781.542968.761719.265624 1.9375-.589844 2.328125-.648438.347656-1.433594.105469-1.925782-.394531-1.28125 1.085937-2.457031 2.285156-3.558593 3.550781.542969.527344.761719 1.40625.332031 2.070313-.457031.785156-1.554688.941406-2.285156.460937-.472656.714844-.921875 1.441406-1.382813 2.167969.363281-.003906.625.265625.933594.410156 5.285156 2.664063 10.566406 5.320313 15.839844 7.988281 1.773437 1.238282 3.472656 2.589844 5.214843 3.867188.1875-.269531.394532-.535156.597657-.792969-1.671875-1.34375-3.390625-2.625-5.035157-4-4.125-4.59375-8.210937-9.21875-12.335937-13.8125 2.109375 1.765625 4.117187 3.65625 6.183594 5.46875 2.554687 2.28125 5.113281 4.550781 7.65625 6.839844 1.367187 1.652344 2.65625 3.371094 3.992187 5.050781.261719-.210937.523438-.414062.789063-.617187-1.273438-1.746094-2.632813-3.4375-3.863281-5.210938-2.777344-5.527343-5.578126-11.039062-8.332032-16.578125 3.160156 4.792969 6.300782 9.59375 9.445313 14.390625.328125.519531.703125 1.003907.953125 1.558594.792968 1.847656 1.578125 3.695313 2.371094 5.539063.300781-.15625.609374-.296876.925781-.414063-.613281-1.421875-1.160157-2.867187-1.742188-4.304687-.238281-.632813-.554687-1.246094-.703125-1.917969-.832031-4.011719-1.667968-8.023438-2.496094-12.035157-.371093-1.953124-.878906-3.882812-1.160156-5.851562 1.707032 5.335938 3.507813 10.648438 5.246094 15.972656.222656.726563.542969 1.4375.640625 2.207032.265625 1.921874.546875 3.84375.824219 5.769531.328125-.042969.660156-.085938.992187-.125-.246093-2.136719-.550781-4.269531-.742187-6.414063.226562-4.214844.476562-8.425781.714844-12.644531.074218-2.039063.328124-4.078125.25-6.125-.800782.078125-1.609376.046875-2.40625.132813m2.714843 3.628906.785157 13.734375c.03125.625.113281 1.253906.027343 1.882812-.242187 1.933594-.460937 3.871094-.703125 5.804688.328125.039062.664063.082031.996094.125.316406-2.113281.574219-4.238281.933594-6.347657 1.894531-5.875 3.902344-11.714843 5.769531-17.597656-.03125.320313-.066406.648438-.136719.96875-1.199218 5.710938-2.367187 11.433594-3.570312 17.144532-.726563 2.035156-1.625 4.007812-2.363282 6.039062.308594.09375.613282.210938.914063.34375.867187-1.972656 1.65625-3.980469 2.566406-5.925781 3.386719-5.191407 6.789063-10.367188 10.1875-15.542969-2.746093 5.542969-5.550781 11.054688-8.332031 16.582031-1.222656 1.773438-2.585938 3.460938-3.855469 5.210938.261719.195312.519531.402343.757813.628906 1.363281-1.667969 2.636718-3.402344 4.011718-5.054687 4.585938-4.105469 9.179688-8.203126 13.777344-12.292969-.207031.273437-.429687.53125-.65625.789062-3.875 4.328125-7.730468 8.679688-11.609375 13.011719-1.648437 1.371094-3.371093 2.648438-5.039062 3.992188.214843.261718.417969.523437.617187.800781 1.683594-1.285157 3.375-2.566407 5.085938-3.808594 3.03125-1.558594 6.089844-3.070313 9.132812-4.613281 2.492188-1.234375 4.949219-2.550782 7.476563-3.726563-5.164063 3.371094-10.300781 6.769531-15.460938 10.136719-1.949219.890625-3.9375 1.722656-5.921875 2.539062.136719.316407.265625.632813.390625.957032 1.539063-.644532 3.09375-1.246094 4.644531-1.871094.554688-.21875 1.105469-.5 1.707032-.597656 5.9375-1.222656 11.871094-2.472656 17.8125-3.691406-5.878906 1.972656-11.765625 3.910156-17.65625 5.835937-2.101563.359375-4.214844.648437-6.328125.921875.03125.339844.070312.671875.109375 1.015625 2.164062-.234375 4.324218-.570313 6.492187-.746094 6.167969.339844 12.332031.679688 18.492188 1.0625-6.050781.378907-12.109375.699219-18.167969 1.050781-.632812.050782-1.253906-.074218-1.875-.140624-1.648438-.199219-3.296875-.394532-4.941406-.59375-.039063.335937-.078125.675781-.109375 1.015624 2.050781.253907 4.089843.5625 6.132812.871094 1.679688.472656 3.316407 1.089844 4.980469 1.609375 4.285156 1.433594 8.597656 2.816407 12.875 4.273438-5.949219-1.21875-11.882812-2.472657-17.835938-3.695313-.429687-.078125-.832031-.238281-1.226562-.40625-1.699219-.691406-3.40625-1.355468-5.105469-2.050781-.121093.304687-.253906.609375-.402343.90625 1.964843.890625 3.988281 1.664063 5.9375 2.585937 5.167968 3.363282 10.292968 6.773438 15.457031 10.132813-1.714844-.765625-3.367188-1.683594-5.054688-2.503906-3.851562-1.953125-7.71875-3.867188-11.558593-5.839844-1.710938-1.242187-3.398438-2.523437-5.082032-3.800781-.203125.265625-.40625.535156-.617187.796875 1.671875 1.335937 3.386719 2.617187 5.023437 3.984375 4.132813 4.601562 8.234375 9.234375 12.359375 13.84375-1.242187-1.007813-2.394531-2.113282-3.59375-3.160156-3.144531-2.8125-6.289062-5.617188-9.429687-8.417969-.414063-.375-.855469-.71875-1.191406-1.164063-1.195313-1.554687-2.425782-3.082031-3.621094-4.632812-.257813.210937-.523438.417968-.792969.613281.703125.949219 1.414063 1.894531 2.121094 2.84375.695312.992187 1.554687 1.882813 2.0625 3 2.65625 5.320313 5.363281 10.625 8.007812 15.953125-3.402343-5.175781-6.808593-10.359375-10.195312-15.550781-.910157-1.949219-1.703125-3.960938-2.566407-5.933594-.292968.15625-.597656.273437-.914062.371094.75 2.003906 1.617188 3.964843 2.347656 5.96875 1.007813 4.664062 1.953125 9.347656 2.929688 14.019531.242187 1.382812.65625 2.746094.785156 4.152344-.261719-1.015625-.625-1.996094-.945312-2.992188-1.476563-4.480468-2.957032-8.957031-4.4375-13.433594-.183594-.574218-.410157-1.136718-.484376-1.738281-.261718-1.929687-.558593-3.851562-.816406-5.785156-.332031.046875-.671875.089844-1 .128906.242188 1.988281.476563 3.972657.71875 5.957031.070313.949219-.082031 1.898438-.105468 2.847657-.3125 5.378906-.601563 10.753906-.929688 16.132812-.382812-6.167969-.71875-12.335937-1.066406-18.507812.191406-2.148438.5-4.28125.742187-6.429688-.332031-.039062-.664062-.082031-.996093-.128906-.308594 2.121094-.570313 4.25-.933594 6.359375-1.898438 5.875-3.890625 11.710938-5.773438 17.59375.101563-1.035156.394532-2.039062.578125-3.054688 1.019531-4.921874 2.046875-9.847656 3.066407-14.773437.144531-.6875.460937-1.316406.714843-1.96875.582031-1.433594 1.132813-2.886719 1.742188-4.3125-.316407-.128906-.625-.253906-.933594-.398437-.769531 1.800781-1.546875 3.605468-2.3125 5.414062-.300781.707031-.792969 1.308594-1.191406 1.960938-3.085938 4.691406-6.152344 9.402343-9.253907 14.09375 2.699219-5.4375 5.453126-10.835938 8.164063-16.265626.300781-.625.761719-1.144531 1.171875-1.699218.949219-1.277344 1.90625-2.546875 2.859375-3.824219-.269531-.195313-.535156-.402344-.792969-.613281-1.015625 1.3125-2.054687 2.609375-3.074218 3.921875-.390626.492187-.746094 1.019531-1.234376 1.433593-4.519531 3.992188-8.988281 8.0625-13.53125 12.03125 4.113282-4.613281 8.21875-9.242187 12.347657-13.839843 1.644531-1.378907 3.363281-2.65625 5.035156-3.996094-.207031-.261719-.414063-.527344-.605469-.796875-1.605468 1.207031-3.214844 2.40625-4.820312 3.617188-.738282.5-1.570313.824218-2.355469 1.25-4.847656 2.460937-9.730469 4.871093-14.558594 7.363281-.0625.007812-.179687.027343-.246093.035156.457031.726563.90625 1.453125 1.382812 2.164063.675781-.421876 1.652344-.363282 2.160156.300781.566406.660156.398438 1.6875-.21875 2.246093 1.121094 1.246094 2.28125 2.460938 3.566406 3.539063.519532-.535156 1.382813-.757813 2.035157-.335937.785156.4375.988281 1.546874.480469 2.273437 1.382812.960937 2.847656 1.796875 4.367187 2.535156.375-.722656 1.269531-1.15625 2.042969-.8125.792968.296875 1.144531 1.242188.90625 2.023438 1.578125.574219 3.203125 1.007812 4.859375 1.300781.175781-.773438.90625-1.417969 1.730469-1.300781.859374.058593 1.457031.890625 1.4375 1.71875 1.667968.136719 3.34375.136719 5.015624 0-.027343-.828125.5625-1.660157 1.421876-1.71875.828124-.117188 1.566406.53125 1.75 1.3125 1.652343-.300781 3.265624-.75 4.851562-1.296875-.277344-.816406.148438-1.824219 1-2.074219.753906-.277344 1.589844.15625 1.9375.851563 1.523438-.714844 2.949219-1.59375 4.363281-2.492188-.164062-.386719-.335937-.796875-.253906-1.222656.113281-.832032.984375-1.464844 1.8125-1.292969.382813.046875.683594.292969.96875.53125 1.292969-1.078125 2.445313-2.289063 3.566406-3.53125-.582031-.550781-.789062-1.507813-.277343-2.171875.480468-.726562 1.527343-.835938 2.230468-.375.925782-1.402344 1.777344-2.851562 2.511719-4.363281-.734375-.375-1.167969-1.296875-.804687-2.070313.304687-.785156 1.234374-1.125 2.011718-.878906.558594-1.59375 1.023438-3.226562 1.289063-4.894531-.875-.144531-1.503907-1.074219-1.257813-1.9375.167969-.757813.941406-1.226563 1.691406-1.195313.117188-1.675781.117188-3.359375-.003906-5.039062-.8125.042968-1.625-.53125-1.71875-1.363282-.152344-.847656.511719-1.628906 1.316406-1.804687-.332031-1.640625-.753906-3.273437-1.304687-4.847656-.703125.195312-1.542969-.015625-1.921875-.679688-.503906-.769531-.140625-1.894531.699219-2.253906-.707031-1.53125-1.578125-2.984375-2.515625-4.378906-.707032.445312-1.742188.339843-2.222656-.382813-.503907-.660156-.308594-1.625.28125-2.167968-1.125-1.234376-2.273438-2.460938-3.5625-3.539063-.597657.640625-1.6875.777344-2.328126.121094-.597656-.535157-.574218-1.445313-.207031-2.101563-1.414062-.902344-2.84375-1.789062-4.371093-2.492187-.355469.777343-1.351563 1.171875-2.125.769531-.746094-.339844-1.039063-1.25-.808594-2.003906-1.585938-.535156-3.203125-.988282-4.847656-1.285156-.183594.78125-.921876 1.429687-1.75 1.3125-.859376-.058594-1.449219-.894532-1.425782-1.71875-.804687-.085938-1.609375-.054688-2.410156-.132813-.078125 1.253906.054688 2.503906.113281 3.761719M12.316406 91.109375c-.289062.738281-.722656 1.414063-1.058594 2.132813.703126.359374 1.140626 1.21875.839844 1.992187-.273437.835937-1.253906 1.21875-2.0625.960937-.535156 1.59375-1.003906 3.214844-1.277344 4.875.875.15625 1.515626 1.089844 1.257813 1.960938-.175781.75-.9375 1.21875-1.683594 1.183594-.121093 1.679687-.121093 3.363281 0 5.039062.75-.03125 1.519531.441406 1.6875 1.203125.25.863281-.390625 1.785157-1.261719 1.941407.28125 1.667968.726563 3.308593 1.304688 4.898437.933594-.375 2.074219.335937 2.117188 1.347656.09375.679688-.375 1.226563-.894532 1.597657.292969.734374.761719 1.378906 1.03125 2.117187.742188-.214844 1.34375-.71875 1.992188-1.125 4.640625-3.039063 9.265625-6.097656 13.921875-9.125 1.925781-.851563 3.875-1.679687 5.824219-2.496094-.136719-.3125-.269532-.625-.390626-.9375-1.996093.792969-3.980468 1.640625-5.996093 2.375-6.054688 1.28125-12.113281 2.53125-18.171875 3.785157 5.875-1.984376 11.765625-3.90625 17.65625-5.847657 2.105468-.355469 4.230468-.613281 6.347656-.933593-.050781-.332032-.089844-.660157-.128906-.992188-1.960938.234375-3.921875.472656-5.878906.710938-.519532.0625-1.039063.007812-1.554688-.027344-5.851562-.34375-11.703125-.660156-17.550781-1.011719 5.8125-.339844 11.628906-.664063 17.445312-1 .558594-.03125 1.113281-.101563 1.671875-.027344 1.957032.230469 3.910156.46875 5.867188.703125.039062-.335937.078125-.660156.128906-.992187-1.640625-.234375-3.277344-.472657-4.914062-.707031-.609376-.089844-1.230469-.125-1.8125-.34375-5.757813-1.917969-11.53125-3.785157-17.285157-5.730469 5.949219 1.226562 11.898438 2.46875 17.84375 3.699219.335938.070312.660157.171874.976563.304687 1.78125.726563 3.574218 1.425781 5.355468 2.160156.121094-.320312.253907-.636719.390626-.953125-1.816407-.726562-3.597657-1.535156-5.402344-2.285156-.507813-.203125-.949219-.535156-1.40625-.828125-4.664063-3.066406-9.328125-6.125-13.996094-9.195313-.292969-.183593-.605469-.328124-.933594-.429687Zm0 0"/>
</svg>
