<svg xmlns="http://www.w3.org/2000/svg" viewBox="0 0 320.05 101.31">
    <defs>
        <style>
            .dns-nask-logo-red{fill:#d91519;}
            .dns-nask-logo-blue{fill:#184287;}
            .dns-nask-logo-background{fill:#fff;}
        </style>
    </defs>
    <title>Dns logo</title>
    <g id="Warstwa_2" data-name="Warstwa 2">
        <g id="dns-nask-logo" data-name="Layer 1">
            <path class="dns-nask-logo-red" d="M311.67,35a8.38,8.38,0,1,0-8.38-8.38A8.38,8.38,0,0,0,311.67,35"/>
            <path class="dns-nask-logo-red" d="M278.06,35a8.38,8.38,0,1,0-8.38-8.38A8.38,8.38,0,0,0,278.06,35"/>
            <path class="dns-nask-logo-red" d="M244.49,35a8.38,8.38,0,1,0-8.38-8.38A8.38,8.38,0,0,0,244.49,35"/>
            <path class="dns-nask-logo-blue"
                  d="M119.56,84.4h12.83V59.28h.18L150.73,84.4h19.39V51.5H158V75.94l-.22.13L139.81,51.5H119.56Zm51,0h14.29l3.41-6.28h20.62l3.41,6.28h16l-20.2-32.9H190.82Zm21.29-12.7,6.79-13.65h.22l6.61,13.65Zm31.91,2.46a8.08,8.08,0,0,0,2.59,6.14A16.17,16.17,0,0,0,233.82,84,62,62,0,0,0,246.38,85,57.19,57.19,0,0,0,257.67,84,21.56,21.56,0,0,0,266,80.45a7.52,7.52,0,0,0,3-6,7.76,7.76,0,0,0-2-4.5,12,12,0,0,0-4.69-2.86,41.36,41.36,0,0,0-5.73-1.5c-1.91-.28-4.69-.7-8.51-1.24-5.78-.82-8.55-2-8.55-3.68,0-.82.63-1.64,1.91-2.19a8.5,8.5,0,0,1,4.5-1,9.33,9.33,0,0,1,5.1,1.1,3,3,0,0,1,1.73,2.87H267v-1c0-2.87-1.68-5.18-5.1-6.83-3.18-1.64-8.5-2.59-15.33-2.59a54.72,54.72,0,0,0-11.33,1.1,18.33,18.33,0,0,0-7.87,3.41,7,7,0,0,0-2.78,5.87,6.18,6.18,0,0,0,2.6,5.18,19.11,19.11,0,0,0,6.37,2.73c2.54.68,6,1.24,10,1.92,1.05.14,2.15.27,3.42.54a20.85,20.85,0,0,1,3.23.69,6.26,6.26,0,0,1,2.55,1.22,2.17,2.17,0,0,1,1,1.78c0,1-.86,1.78-2.36,2.32a14.24,14.24,0,0,1-6,1c-2.77-.14-4.68-.69-5.72-1.5a3.68,3.68,0,0,1-1.74-3.15H223.77M270.55,51.5V84.4h14.24V66.92H285L301.63,84.4h17.51L300.17,66,317.64,51.5H301.22L285,66h-.23V51.5H270.55"/>
            <path class="dns-nask-logo-red"
                  d="M50.65,0a50.66,50.66,0,1,0,50.66,50.65A50.65,50.65,0,0,0,50.65,0M18.25,66a2.69,2.69,0,1,1,2.69-2.68A2.68,2.68,0,0,1,18.25,66m23.39,0a2.68,2.68,0,1,1,0-5.36,10,10,0,1,0-10-10V76a2.69,2.69,0,0,1-5.37,0V50.65A15.35,15.35,0,1,1,41.64,66m36.05,0A15.37,15.37,0,0,1,62.34,50.65V25.33a2.69,2.69,0,0,1,5.37,0V50.65a10,10,0,0,0,10,10,2.68,2.68,0,1,1,0,5.36"/>
            <path class="dns-nask-logo-background"
                  d="M41.68,35.31A15.36,15.36,0,0,0,26.34,50.66V76a2.68,2.68,0,0,0,5.36,0V50.66a10,10,0,1,1,10,10,2.68,2.68,0,0,0,0,5.36,15.35,15.35,0,1,0,0-30.69ZM18.3,60.64A2.69,2.69,0,1,0,21,63.32,2.68,2.68,0,0,0,18.3,60.64Zm59.44,0a10,10,0,0,1-10-10V25.33a2.68,2.68,0,0,0-5.36,0V50.66A15.36,15.36,0,0,0,77.74,66a2.68,2.68,0,1,0,0-5.36Z"/>
        </g>
    </g>
</svg>