<?xml version="1.0" encoding="UTF-8"?> <svg xmlns="http://www.w3.org/2000/svg" viewBox="0 0 76.9 67.49"><defs><style>.cls-1{fill:#0033a0;}</style></defs><title>org-logo</title><g id="Layer_2" data-name="Layer 2"><g id="Layer_1-2" data-name="Layer 1"><path class="cls-1" d="M67.44,57H66.15a11.7,11.7,0,0,1-8.35-3.2,9.38,9.38,0,0,1-2.53-3.75l7-4.07a4.46,4.46,0,0,0,1.45,3.08,4.4,4.4,0,0,0,3.17,1.27,4.57,4.57,0,0,0,2.65-.83,4.48,4.48,0,0,0,1.67-2.07l0-.09,0-.12c0-.1.06-.21.1-.32a2.68,2.68,0,0,0,.11-.55V46.3l0-.07,0-.09V46h0V43.59l-.18.09-.19.07a12.56,12.56,0,0,1-4.83.94A12.74,12.74,0,0,1,53.64,31.88a12.28,12.28,0,0,1,1-5.06,13,13,0,0,1,2.81-4.1,13,13,0,0,1,8.9-3.58,14,14,0,0,1,6.35,1.1A10.32,10.32,0,0,1,76.9,23.4,33.75,33.75,0,0,0,13,22.28,13.79,13.79,0,0,1,16.92,20a14.57,14.57,0,0,1,10.19,0,13.11,13.11,0,0,1,4.35,2.62,12.78,12.78,0,0,1,3,4.05,12.29,12.29,0,0,1,0,10,12.58,12.58,0,0,1-3,4.07,13.57,13.57,0,0,1-4.35,2.65,14.22,14.22,0,0,1-11.75-.72,13,13,0,0,1-3.78-3A33.72,33.72,0,0,0,69.33,56.87a13.37,13.37,0,0,1-1.89.15M51.19,26.2a2.85,2.85,0,0,0-1.49-.44h-.42q-2.81.12-2.8,3.91V43.61H39.12V29.67q0-10.05,10.16-10.56h.42a12.32,12.32,0,0,1,1.49.14ZM22,37.7a6,6,0,0,1-4.3-1.77,5.65,5.65,0,0,1-1.84-4.23,5.44,5.44,0,0,1,.85-3A6.12,6.12,0,0,1,19,26.57a6.05,6.05,0,0,1,3-.81,5.93,5.93,0,0,1,3,.81,6.22,6.22,0,0,1,2.28,2.16,5.44,5.44,0,0,1,.85,3,5.65,5.65,0,0,1-1.84,4.23A6,6,0,0,1,22,37.7m50-8.88a5.78,5.78,0,0,1-1,7.15,5.87,5.87,0,0,1-8.4,0,5.76,5.76,0,0,1-1-7.15,6.15,6.15,0,0,1,2.23-2.16,5.78,5.78,0,0,1,2.92-.78A6,6,0,0,1,72,28.82M8.52,40.23A4.26,4.26,0,1,1,4.26,36a4.26,4.26,0,0,1,4.26,4.26"></path></g></g></svg> 
