<?xml version="1.0" encoding="UTF-8"?>
<svg id="svg136" width="500" height="500" version="1.1" viewBox="0 0 500 500" xmlns="http://www.w3.org/2000/svg">
 <rect id="rect132" width="500" height="500" rx="14.969851" ry="14.995951" fill="#005288" stroke-width=".99886"/>
 <g id="text908" fill="#00bec8" aria-label=".gov">
  <path id="path1386" d="m14.104588 295.9386v-39.00795h39.253278v39.00795z"/>
  <path id="path1388" d="m147.19803 337.89054q-33.85596 0-51.519931-8.58665-17.541309-8.58666-17.541309-22.57064 0-6.50132 3.311995-10.91732 3.434662-4.41599 7.973323-6.99199 4.661327-2.69866 8.463988-4.04799 3.925324-1.472 4.906664-1.96267-1.96267-1.10399-5.765329-3.18933-3.679995-2.20799-6.746658-5.88799-3.066662-3.80266-3.066662-9.81332 0-6.74665 6.378658-12.51198 6.501321-5.76532 19.626641-7.97332-12.51198-5.88799-19.135975-15.94665-6.501325-10.05865-6.501325-20.60797 0-12.51198 7.850656-21.46663 7.850654-8.95466 21.466634-13.61599 13.61598-4.66132 30.78929-4.66132 13.00265 0 21.34397 2.82133 8.46399 2.69866 15.57865 7.11465 2.82133-1.10399 7.35999-2.82133 4.66133-1.83999 10.05865-3.92532 5.51999-2.208 10.67199-4.29333 5.15199-2.208 9.19998-3.92533l-0.24533 27.72263-21.83464 3.55733q1.22667 3.31199 1.96267 7.11465 0.736 3.80267 0.736 6.256 0 11.03998-6.50133 20.60797-6.37865 9.56798-19.13597 15.45598-12.75732 5.88799-31.77062 5.88799-2.208 0-6.13333-0.12267t-6.37866-0.368q-7.11465 0.368-9.93598 1.84-2.69866 1.472-2.69866 3.43466 0 2.944 5.51999 3.92533 5.51999 0.85866 16.68264 1.59466 4.048 0.24534 11.03999 0.61334t15.33331 0.98133q23.30663 1.59466 34.71462 11.53065 11.53065 9.81332 11.53065 24.77863 0 17.78664-16.92798 29.31729-16.80531 11.65332-50.66126 11.65332zm5.76532-19.99464q14.84265 0 21.22131-3.67999 6.50132-3.68 6.50132-10.54932 0-5.76533-5.02933-9.32266-4.90666-3.67999-14.22931-4.29332l-29.07196-1.96267q-5.76532-0.24533-10.05865 1.71733-4.29333 1.96267-6.74666 5.39733-2.33066 3.43466-2.33066 7.35999 0 7.97332 9.69065 11.65332 9.69065 3.67999 30.05329 3.67999zm-6.74665-89.17854q10.18131 0 16.31464-5.51999 6.13332-5.64266 6.13332-15.21065 0-9.93599-6.13332-15.94664-6.13333-6.01066-16.31464-6.01066-10.18132 0-16.43731 6.01066-6.256 6.01065-6.256 15.94664 0 9.44532 6.01066 15.08798 6.13333 5.64266 16.68265 5.64266z"/>
  <path id="path1390" d="m294.61214 298.39193q-18.64531 0-32.50662-7.97332-13.73865-7.97333-21.34397-22.57064-7.48266-14.59731-7.48266-34.59195t7.48266-34.95995q7.60532-14.96531 21.34397-23.30664 13.86131-8.34132 32.62929-8.34132 18.76797 0 32.50662 8.21866 13.73865 8.09599 21.2213 23.0613 7.48266 14.96531 7.48266 35.32795 0 19.13597-7.35999 33.85595-7.23732 14.59732-20.97597 22.93864-13.61598 8.34132-32.99729 8.34132zm0.12267-26.61863q9.44532 0 15.21064-5.51999 5.76533-5.52 8.34133-14.47465 2.57599-9.07732 2.57599-19.74931 0-10.05865-2.33066-19.0133-2.33066-8.95466-8.09599-14.47465t-15.70131-5.51999q-9.44532 0-15.33331 5.27466-5.76533 5.15199-8.46399 14.10664-2.69866 8.83199-2.69866 19.62664 0 9.93599 2.45333 19.13598 2.45333 9.07732 8.21865 14.84264 5.76533 5.76533 15.82398 5.76533z"/>
  <path id="path1392" d="m412.29551 295.9386-47.5946-126.83716h32.38396l27.72263 80.83722h0.98133l27.35463-80.83722h32.75195l-47.5946 126.83716z"/>
 </g>
</svg>
