<?xml version="1.0" encoding="UTF-8"?>
<!-- Generator: Adobe Illustrator 23.1.0, SVG Export Plug-In . SVG Version: 6.00 Build 0)  -->
<svg id="Слой_1" width="256" height="256" version="1.1" viewBox="0 0 255.99999 256" xml:space="preserve" xmlns="http://www.w3.org/2000/svg" xmlns:xlink="http://www.w3.org/1999/xlink">
<style id="style857" type="text/css">
	.st0{fill:#5A595A;}
	.st1{display:none;fill:#FFFFFF;}
	.st2{clip-path:url(#SVGID_2_);fill:#FFFFFF;}
	.st3{enable-background:new    ;}
	.st4{fill:#FFFFFF;}
</style>

<g id="Layer_1" transform="matrix(4,0,0,4,-5.2,0)">
	<path id="path860" class="st0" d="m1.3 32c0-17.7 14.3-32 32-32s32 14.3 32 32-14.3 32-32 32-32-14.3-32-32"/>
	<path id="path862" class="st1" d="m13.1 20.6h10.7c3 0 5.3 0.8 6.8 2.4 1.3 1.3 2 3.1 2 5.4 0 3.8-2 6.2-5 7.3l5.7 8.4h-6l-5.1-7.5h-4v7.5h-5.2v-23.5zm10.4 11.4c2.5 0 4-1.3 4-3.4 0-2.2-1.5-3.3-4.1-3.3h-5.1v6.7z"/>
	<path id="path864" class="st1" d="m36.2 34v-13.4h5.2v13.3c0 3.8 1.9 5.8 5.1 5.8 3.1 0 5.1-1.9 5.1-5.6v-13.5h5.2v13.2c0 7.1-4 10.6-10.3 10.6-6.4 0-10.3-3.5-10.3-10.4"/>
	<g id="g876">
		<g id="g874">
			<defs id="defs867">
				<path id="SVGID_1_" d="m1.3 32c0 17.7 14.3 32 32 32s32-14.3 32-32-14.3-32-32-32-32 14.3-32 32"/>
			</defs>
			<clipPath id="SVGID_2_">
				<use id="use869" width="100%" height="100%" xlink:href="#SVGID_1_"/>
			</clipPath>
			<path id="path872" class="st2" d="m0 43.8c0-2.8 2.3-5.1 5.1-5.1s5.1 2.3 5.1 5.1-2.3 5.1-5.1 5.1c-2.8-0.1-5.1-2.3-5.1-5.1" clip-path="url(#SVGID_2_)"/>
		</g>
	</g>
	<g id="g882" class="st3">
		<path id="path878" class="st4" d="m12.7 40.6 3.1-3.7c2.1 1.8 4.4 2.9 7.1 2.9 2.1 0 3.4-0.9 3.4-2.3 0-1.3-0.8-2-4.8-3-4.8-1.2-7.9-2.6-7.9-7.3 0-4.3 3.5-7.2 8.3-7.2 3.5 0 6.4 1.1 8.8 3l-2.7 3.9c-2.1-1.5-4.2-2.3-6.2-2.3s-3.1 0.9-3.1 2.1c0 1.6 1 2.1 5.1 3.1 4.8 1.3 7.5 3 7.5 7.2 0 4.7-3.6 7.4-8.7 7.4-3.4 0-7.1-1.3-9.9-3.8z"/>
		<path id="path880" class="st4" d="m35.7 33.9v-13.6h5.2v13.5c0 3.9 1.9 5.9 5.1 5.9s5.1-1.9 5.1-5.7v-13.7h5.2v13.4c0 7.2-4 10.7-10.4 10.7-6.3 0-10.2-3.5-10.2-10.5z"/>
	</g>
</g>
</svg>
