<?xml version="1.0" encoding="UTF-8"?>
<!DOCTYPE svg PUBLIC "-//W3C//DTD SVG 1.1//EN" "http://www.w3.org/Graphics/SVG/1.1/DTD/svg11.dtd">
<!-- Creator: CorelDRAW 2020 (64-Bit) -->
<svg xmlns="http://www.w3.org/2000/svg" xml:space="preserve" width="530mm" height="231.5mm" version="1.1" style="shape-rendering:geometricPrecision; text-rendering:geometricPrecision; image-rendering:optimizeQuality; fill-rule:evenodd; clip-rule:evenodd"
viewBox="0 0 53000 23150"
 xmlns:xlink="http://www.w3.org/1999/xlink"
 xmlns:xodm="http://www.corel.com/coreldraw/odm/2003">
 <defs>
  <style type="text/css">
   <![CDATA[
    .fil1 {fill:#5BB2C7}
    .fil0 {fill:#FFBF00}
   ]]>
  </style>
 </defs>
 <g id="Слой_x0020_1">
  <metadata id="CorelCorpID_0Corel-Layer"/>
  <ellipse class="fil0" cx="4325.45" cy="17296.53" rx="3603.63" ry="3611.56"/>
  <path class="fil1" d="M24793.26 13063.19l0.63 6574.85c0.11,1140.87 -933.43,2074.33 -2074.33,2074.33 -1140.9,0 -2074.22,-933.43 -2074.34,-2074.33l-0.08 -728.08c-1454.77,923.72 -3178.75,1458.37 -5027.04,1458.37 -2331.61,0 -4465.41,-850.82 -6110.48,-2260.24 616.22,-3825.44 -2615.91,-5587.25 -3180.63,-5626.29 -85.69,-513.02 -130.3,-1040.08 -130.3,-1577.59 0,-5226.91 4218.1,-9464.12 9421.41,-9464.12 5203.31,0 9421.41,4237.21 9421.41,9464.12 0,742.75 -85.18,1465.53 -246.25,2158.98zm-9175.16 -7453.37c2910.82,0 5270.5,2370.37 5270.5,5294.39 0,2924.01 -2359.68,5294.39 -5270.5,5294.39 -2910.82,0 -5270.5,-2370.38 -5270.5,-5294.39 0,-2924.02 2359.68,-5294.39 5270.5,-5294.39z"/>
  <path class="fil1" d="M24154.22 4018.93c522.11,536.22 1658.05,2088.44 2137.83,3894.67 945.45,-1714.5 5149.28,-4039.52 8486.57,-144.85l0.01 9246.51c0,1150.76 984.65,1978.26 2001.98,1961.55 1195.7,-19.65 2105.63,-910.52 2105.63,-1834.52l0 -9355.71c2866.32,-3985.25 9273.29,-2102.07 9273.34,2961.95l0.08 8764.39c0.01,1059.59 1097.43,2065.32 2114.44,2085.66 1079.93,21.6 2083.32,-772.37 2083.32,-2085.66l0 -8466.67c0,-8510.9 -9450.9,-12245.23 -15582.52,-7164.91 -5879.06,-4653.14 -10805.63,-1368.77 -12620.68,137.59z"/>
 </g>
</svg>
