<svg height="600" width="1200" xmlns="http://www.w3.org/2000/svg"><path d="m0 0h1200v600h-1200z" fill="#027b32"/><path d="m0 0h1200v400h-1200z" fill="#d41a09"/><path d="m0 0h1200v200h-1200z"/><g transform="translate(0 4)"><path d="m413.34576 190.61426a105.87086 105.87086 0 0 1 -105.87085 105.87085 105.87086 105.87086 0 0 1 -105.87087-105.87085 105.87086 105.87086 0 0 1 105.87087-105.870849 105.87086 105.87086 0 0 1 105.87085 105.870849z" fill="#fff"/><circle cx="306.24985" cy="188.64499" fill="none" r="102.64929"/><path d="m305.62865 192.08289a1.5383041 1.5383041 0 0 1 -1.5383 1.5383 1.5383041 1.5383041 0 0 1 -1.5383-1.5383 1.5383041 1.5383041 0 0 1 1.5383-1.5383 1.5383041 1.5383041 0 0 1 1.5383 1.5383z" fill="none" stroke="#f00" stroke-width=".269112"/><g transform="matrix(2.4917795 0 0 2.4917795 53.367621 -68.004596)"><path d="m122.08563 104.37821a21.465679 21.465679 0 0 1 -21.46568 21.46568 21.465679 21.465679 0 0 1 -21.46568-21.46568 21.465679 21.465679 0 0 1 21.46568-21.465677 21.465679 21.465679 0 0 1 21.46568 21.465677z" fill="none" stroke="#f9b500" stroke-width=".266364"/><g fill="#f9b500"><path d="m300.64844 379.07227-40.07422-6.34766 39.5918 9.08203a81.130125 81.130125 0 0 1 .0195-.12891 81.130125 81.130125 0 0 1 .12304-.74609 81.130125 81.130125 0 0 1 .13086-.74609 81.130125 81.130125 0 0 1 .13672-.7461 81.130125 81.130125 0 0 1 .0723-.36718z" transform="scale(.26458333)"/><path d="m299.5293 386.84375-60.25782-4.49023 60.06446 6.9082a81.130125 81.130125 0 0 1 .004-.0586 81.130125 81.130125 0 0 1 .0527-.75585 81.130125 81.130125 0 0 1 .0586-.75586 81.130125 81.130125 0 0 1 .0684-.75391 81.130125 81.130125 0 0 1 .01-.0937z" transform="matrix(.26458333 0 0 .26458333 -.000001 0)"/><path d="m300.64844 379.07227-40.07422-6.34766 39.5918 9.08203a81.130125 81.130125 0 0 1 .0195-.12891 81.130125 81.130125 0 0 1 .12304-.74609 81.130125 81.130125 0 0 1 .13086-.74609 81.130125 81.130125 0 0 1 .13672-.7461 81.130125 81.130125 0 0 1 .0723-.36718z" transform="matrix(.25910897 .05354325 -.05354325 .25910897 23.183366 -18.192419)"/><path d="m299.5293 386.84375-60.25782-4.49023 60.06446 6.9082a81.130125 81.130125 0 0 1 .004-.0586 81.130125 81.130125 0 0 1 .0527-.75585 81.130125 81.130125 0 0 1 .0586-.75586 81.130125 81.130125 0 0 1 .0684-.75391 81.130125 81.130125 0 0 1 .01-.0937z" transform="matrix(.25910897 .05354326 -.05354326 .25910897 23.183365 -18.192419)"/><path d="m300.64844 379.07227-40.07422-6.34766 39.5918 9.08203a81.130125 81.130125 0 0 1 .0195-.12891 81.130125 81.130125 0 0 1 .12304-.74609 81.130125 81.130125 0 0 1 .13086-.74609 81.130125 81.130125 0 0 1 .13672-.7461 81.130125 81.130125 0 0 1 .0723-.36718z" transform="matrix(.24264079 .1054978 -.1054978 .24264079 49.918964 -31.44808)"/><path d="m299.5293 386.84375-60.25782-4.49023 60.06446 6.9082a81.130125 81.130125 0 0 1 .004-.0586 81.130125 81.130125 0 0 1 .0527-.75585 81.130125 81.130125 0 0 1 .0586-.75586 81.130125 81.130125 0 0 1 .0684-.75391 81.130125 81.130125 0 0 1 .01-.0937z" transform="matrix(.24264079 .1054978 -.1054978 .24264079 49.918963 -31.44808)"/><path d="m300.64844 379.07227-40.07422-6.34766 39.5918 9.08203a81.130125 81.130125 0 0 1 .0195-.12891 81.130125 81.130125 0 0 1 .12304-.74609 81.130125 81.130125 0 0 1 .13086-.74609 81.130125 81.130125 0 0 1 .13672-.7461 81.130125 81.130125 0 0 1 .0723-.36718z" transform="matrix(.21851961 .14917614 -.14917614 .21851961 76.301354 -38.541991)"/><path d="m299.5293 386.84375-60.25782-4.49023 60.06446 6.9082a81.130125 81.130125 0 0 1 .004-.0586 81.130125 81.130125 0 0 1 .0527-.75585 81.130125 81.130125 0 0 1 .0586-.75586 81.130125 81.130125 0 0 1 .0684-.75391 81.130125 81.130125 0 0 1 .01-.0937z" transform="matrix(.2185196 .14917614 -.14917614 .2185196 76.301353 -38.541991)"/><path d="m300.64844 379.07227-40.07422-6.34766 39.5918 9.08203a81.130125 81.130125 0 0 1 .0195-.12891 81.130125 81.130125 0 0 1 .12304-.74609 81.130125 81.130125 0 0 1 .13086-.74609 81.130125 81.130125 0 0 1 .13672-.7461 81.130125 81.130125 0 0 1 .0723-.36718z" transform="matrix(.18214218 .1919077 -.1919077 .18214218 106.968783 -40.445569)"/><path d="m299.5293 386.84375-60.25782-4.49023 60.06446 6.9082a81.130125 81.130125 0 0 1 .004-.0586 81.130125 81.130125 0 0 1 .0527-.75585 81.130125 81.130125 0 0 1 .0586-.75586 81.130125 81.130125 0 0 1 .0684-.75391 81.130125 81.130125 0 0 1 .01-.0937z" transform="matrix(.18214217 .19190771 -.19190771 .18214217 106.968782 -40.445569)"/><path d="m300.64844 379.07227-40.07422-6.34766 39.5918 9.08203a81.130125 81.130125 0 0 1 .0195-.12891 81.130125 81.130125 0 0 1 .12304-.74609 81.130125 81.130125 0 0 1 .13086-.74609 81.130125 81.130125 0 0 1 .13672-.7461 81.130125 81.130125 0 0 1 .0723-.36718z" transform="matrix(.13993312 .2245508 -.2245508 .13993312 135.876501 -36.216467)"/><path d="m299.5293 386.84375-60.25782-4.49023 60.06446 6.9082a81.130125 81.130125 0 0 1 .004-.0586 81.130125 81.130125 0 0 1 .0527-.75585 81.130125 81.130125 0 0 1 .0586-.75586 81.130125 81.130125 0 0 1 .0684-.75391 81.130125 81.130125 0 0 1 .01-.0937z" transform="matrix(.13993312 .2245508 -.2245508 .13993312 135.876501 -36.216467)"/><path d="m300.64844 379.07227-40.07422-6.34766 39.5918 9.08203a81.130125 81.130125 0 0 1 .0195-.12891 81.130125 81.130125 0 0 1 .12304-.74609 81.130125 81.130125 0 0 1 .13086-.74609 81.130125 81.130125 0 0 1 .13672-.7461 81.130125 81.130125 0 0 1 .0723-.36718z" transform="matrix(.09614838 .24649509 -.24649509 .09614838 161.166414 -27.300089)"/><path d="m299.5293 386.84375-60.25782-4.49023 60.06446 6.9082a81.130125 81.130125 0 0 1 .004-.0586 81.130125 81.130125 0 0 1 .0527-.75585 81.130125 81.130125 0 0 1 .0586-.75586 81.130125 81.130125 0 0 1 .0684-.75391 81.130125 81.130125 0 0 1 .01-.0937z" transform="matrix(.09614838 .24649509 -.24649509 .09614838 161.166414 -27.300089)"/><path d="m300.65098 378.80073-40.07676-6.07612 39.59434 8.81049.0195-.12891c.0399-.24889.0809-.49759.12304-.74609.0425-.2489.0861-.4976.13086-.74609.0444-.24891.09-.49761.13672-.7461.0238-.12245.0479-.24484.0723-.36718z" transform="matrix(.04593687 .26056504 -.26056504 .04593687 185.795456 -12.857989)"/><path d="m299.5293 386.84375-60.25782-4.49023 60.06446 6.9082a81.130125 81.130125 0 0 1 .004-.0586 81.130125 81.130125 0 0 1 .0527-.75585 81.130125 81.130125 0 0 1 .0586-.75586 81.130125 81.130125 0 0 1 .0684-.75391 81.130125 81.130125 0 0 1 .01-.0937z" transform="matrix(.04593686 .26056505 -.26056505 .04593686 185.795456 -12.857989)"/><path d="m300.64844 379.07227-40.07422-6.34766 39.5918 9.08203a81.130125 81.130125 0 0 1 .0195-.12891 81.130125 81.130125 0 0 1 .12304-.74609 81.130125 81.130125 0 0 1 .13086-.74609 81.130125 81.130125 0 0 1 .13672-.7461 81.130125 81.130125 0 0 1 .0723-.36718z" transform="matrix(-.26458333 0 0 .26458333 201.18223 0)"/><path d="m299.5293 386.84375-60.25782-4.49023 60.06446 6.9082a81.130125 81.130125 0 0 1 .004-.0586 81.130125 81.130125 0 0 1 .0527-.75585 81.130125 81.130125 0 0 1 .0586-.75586 81.130125 81.130125 0 0 1 .0684-.75391 81.130125 81.130125 0 0 1 .01-.0937z" transform="matrix(-.26458333 0 0 .26458333 201.182231 0)"/><path d="m300.64844 379.07227-40.07422-6.34766 39.5918 9.08203a81.130125 81.130125 0 0 1 .0195-.12891 81.130125 81.130125 0 0 1 .12304-.74609 81.130125 81.130125 0 0 1 .13086-.74609 81.130125 81.130125 0 0 1 .13672-.7461 81.130125 81.130125 0 0 1 .0723-.36718z" transform="matrix(-.25910897 .05354325 .05354325 .25910897 177.998864 -18.192419)"/><path d="m299.5293 386.84375-60.25782-4.49023 60.06446 6.9082a81.130125 81.130125 0 0 1 .004-.0586 81.130125 81.130125 0 0 1 .0527-.75585 81.130125 81.130125 0 0 1 .0586-.75586 81.130125 81.130125 0 0 1 .0684-.75391 81.130125 81.130125 0 0 1 .01-.0937z" transform="matrix(-.25910897 .05354326 .05354326 .25910897 177.998865 -18.192419)"/><path d="m300.64844 379.07227-40.07422-6.34766 39.5918 9.08203a81.130125 81.130125 0 0 1 .0195-.12891 81.130125 81.130125 0 0 1 .12304-.74609 81.130125 81.130125 0 0 1 .13086-.74609 81.130125 81.130125 0 0 1 .13672-.7461 81.130125 81.130125 0 0 1 .0723-.36718z" transform="matrix(-.24264079 .1054978 .1054978 .24264079 151.263266 -31.44808)"/><path d="m299.5293 386.84375-60.25782-4.49023 60.06446 6.9082a81.130125 81.130125 0 0 1 .004-.0586 81.130125 81.130125 0 0 1 .0527-.75585 81.130125 81.130125 0 0 1 .0586-.75586 81.130125 81.130125 0 0 1 .0684-.75391 81.130125 81.130125 0 0 1 .01-.0937z" transform="matrix(-.24264079 .1054978 .1054978 .24264079 151.263267 -31.44808)"/><path d="m300.64844 379.07227-40.07422-6.34766 39.5918 9.08203a81.130125 81.130125 0 0 1 .0195-.12891 81.130125 81.130125 0 0 1 .12304-.74609 81.130125 81.130125 0 0 1 .13086-.74609 81.130125 81.130125 0 0 1 .13672-.7461 81.130125 81.130125 0 0 1 .0723-.36718z" transform="matrix(-.21851961 .14917614 .14917614 .21851961 124.880876 -38.541991)"/><path d="m299.5293 386.84375-60.25782-4.49023 60.06446 6.9082a81.130125 81.130125 0 0 1 .004-.0586 81.130125 81.130125 0 0 1 .0527-.75585 81.130125 81.130125 0 0 1 .0586-.75586 81.130125 81.130125 0 0 1 .0684-.75391 81.130125 81.130125 0 0 1 .01-.0937z" transform="matrix(-.2185196 .14917614 .14917614 .2185196 124.880877 -38.541991)"/><path d="m300.64844 379.07227-40.07422-6.34766 39.5918 9.08203a81.130125 81.130125 0 0 1 .0195-.12891 81.130125 81.130125 0 0 1 .12304-.74609 81.130125 81.130125 0 0 1 .13086-.74609 81.130125 81.130125 0 0 1 .13672-.7461 81.130125 81.130125 0 0 1 .0723-.36718z" transform="matrix(-.18214218 .1919077 .1919077 .18214218 94.213447 -40.445569)"/><path d="m299.5293 386.84375-60.25782-4.49023 60.06446 6.9082a81.130125 81.130125 0 0 1 .004-.0586 81.130125 81.130125 0 0 1 .0527-.75585 81.130125 81.130125 0 0 1 .0586-.75586 81.130125 81.130125 0 0 1 .0684-.75391 81.130125 81.130125 0 0 1 .01-.0937z" transform="matrix(-.18214217 .19190771 .19190771 .18214217 94.213448 -40.445569)"/><path d="m300.64844 379.07227-40.07422-6.34766 39.5918 9.08203a81.130125 81.130125 0 0 1 .0195-.12891 81.130125 81.130125 0 0 1 .12304-.74609 81.130125 81.130125 0 0 1 .13086-.74609 81.130125 81.130125 0 0 1 .13672-.7461 81.130125 81.130125 0 0 1 .0723-.36718z" transform="matrix(-.13993312 .2245508 .2245508 .13993312 65.305729 -36.216467)"/><path d="m299.5293 386.84375-60.25782-4.49023 60.06446 6.9082a81.130125 81.130125 0 0 1 .004-.0586 81.130125 81.130125 0 0 1 .0527-.75585 81.130125 81.130125 0 0 1 .0586-.75586 81.130125 81.130125 0 0 1 .0684-.75391 81.130125 81.130125 0 0 1 .01-.0937z" transform="matrix(-.13993312 .2245508 .2245508 .13993312 65.305729 -36.216467)"/><path d="m300.64844 379.07227-40.07422-6.34766 39.5918 9.08203a81.130125 81.130125 0 0 1 .0195-.12891 81.130125 81.130125 0 0 1 .12304-.74609 81.130125 81.130125 0 0 1 .13086-.74609 81.130125 81.130125 0 0 1 .13672-.7461 81.130125 81.130125 0 0 1 .0723-.36718z" transform="matrix(-.09614838 .24649509 .24649509 .09614838 40.015816 -27.300089)"/><path d="m299.5293 386.84375-60.25782-4.49023 60.06446 6.9082a81.130125 81.130125 0 0 1 .004-.0586 81.130125 81.130125 0 0 1 .0527-.75585 81.130125 81.130125 0 0 1 .0586-.75586 81.130125 81.130125 0 0 1 .0684-.75391 81.130125 81.130125 0 0 1 .01-.0937z" transform="matrix(-.09614838 .24649509 .24649509 .09614838 40.015816 -27.300089)"/><path d="m299.5293 386.84375-60.25782-4.49023 60.06446 6.9082a81.130125 81.130125 0 0 1 .004-.0586 81.130125 81.130125 0 0 1 .0527-.75585 81.130125 81.130125 0 0 1 .0586-.75586 81.130125 81.130125 0 0 1 .0684-.75391 81.130125 81.130125 0 0 1 .01-.0937z" transform="matrix(-.04593686 .26056505 .26056505 .04593686 15.386774 -12.857989)"/></g></g><path d="m402.03931 192.08288c0 54.09572-43.85325 97.94897-97.94897 97.94897-54.09571.00001-97.94897-43.85325-97.94897-97.94897z" fill="#027b32"/><path d="m402.03931 192.08288c0 54.09572-43.85325 97.94897-97.94897 97.94897-54.09571.00001-97.94897-43.85325-97.94897-97.94897z" fill="#027b32"/><path d="m286.33402 246.36179h35.51265v-36.81023c-.37992-16.08583-9.10641-29.69949-17.75635-39.6874-7.99386 9.84934-17.61894 23.37489-17.4047 39.6874z" fill="#f9b500"/><path d="m289.50987 244.37154h29.16013v-31.85389c-.31195-13.91993-7.47746-25.70054-14.58007-34.34363-6.56393 8.52316-14.46726 20.22755-14.29134 34.34363z" fill="#fff"/><path d="m292.19895 242.32947h23.78127v-25.60607c-.25438-11.18969-6.09815-20.65967-11.89064-27.6075-5.35315 6.85142-11.79864 16.26013-11.65517 27.6075z" fill="#f9b500"/><path d="m295.84855 240.44581h17.77709v-24.72311l-1.15419-4.30754h-4.49681v9.0167h-7.53464v11.06654h-4.59145z" fill="#fff"/><g stroke="#f9b500" stroke-width=".996712"><path d="m262.15132 79.17626-69.92755 79.91721 16.9824 104.22536-13.5797 18.64429c-22.56656-24.92001-36.26123-57.6752-36.25274-93.55361.0117-49.25247 25.58027-89.314745 63.598-117.485022" fill="#fff"/><path d="m233.01484 73.515458c-11.13127 7.801564-21.80064 18.506075-32.13337 28.304012" fill="none"/><path d="m227.18754 72.183504c-8.76955 7.281443-18.27799 15.363029-26.63907 23.97516" fill="none"/><path d="m217.71753 326.85903-.3532 15.18705 17.07073-4.12053z"/><path d="m160.58987 238.17819 46.45188 42.95552 44.62044-22.64323 55.27606 15.31747 2.16444 64.43325-69.92757 2.66392c-42.14852-20.90932-76.88245-51.85787-100.39599-91.5718" fill="#fff"/></g><g transform="matrix(2.2464264 -1.0782084 1.0782084 2.2464264 -14.649773 77.931607)"><path d="m40.825419 114.05727c1.345952 4.93799 4.620241 6.26918 7.525309 7.74247-1.163446-2.9976-3.1872-5.80309-7.525309-7.74247z" fill="#f9b500"/><path d="m49.244411 111.1173c.784916 3.47789.69227 5.33985.194695 6.78076-.363476 1.05258-.680266 1.95316-1.071674 3.89333-1.543518-2.22767-2.195454-3.39288.876979-10.67409z" fill="#f9b500"/><g fill="#fff"><path d="m41.660636 114.89249c.0629 2.23542 2.453214 2.25188 4.435005 3.44945-1.489942-1.70279-2.291164-2.25648-4.435005-3.44945z"/><path d="m186.86523 424.76367c-1.77939 1.83288-3.45002 4.64205-5.54697 9.99742-2.42947 6.20462-3.548 15.21608.86338 21.08852 1.47934-7.33293 3.32804-10.19255 4.67578-14.17969.87956-2.6022 1.09494-4.26752.94727-7.01562-2.11494 2.68792-3.11918 4.5735-5.09375 7.34961 1.40542-4.5996 3.15267-8.88499 4.18359-16.96289-.0111-.11219-.0181-.16308-.0293-.27735z" transform="scale(.26458333)"/></g></g><g transform="matrix(2.2244607 -1.1228266 1.1228266 2.2244607 -8.192453 93.089623)"><path d="m40.825419 114.05727c1.345952 4.93799 4.620241 6.26918 7.525309 7.74247-1.163446-2.9976-3.1872-5.80309-7.525309-7.74247z" fill="#f9b500"/><path d="m49.244411 111.1173c.784916 3.47789.69227 5.33985.194695 6.78076-.363476 1.05258-.680266 1.95316-1.071674 3.89333-1.543518-2.22767-2.195454-3.39288.876979-10.67409z" fill="#f9b500"/><g fill="#fff"><path d="m41.660636 114.89249c.0629 2.23542 2.453214 2.25188 4.435005 3.44945-1.489942-1.70279-2.291164-2.25648-4.435005-3.44945z"/><path d="m186.86523 424.76367c-1.77939 1.83288-3.45002 4.64205-5.54697 9.99742-2.42947 6.20462-3.548 15.21608.86338 21.08852 1.47934-7.33293 3.32804-10.19255 4.67578-14.17969.87956-2.6022 1.09494-4.26752.94727-7.01562-2.11494 2.68792-3.11918 4.5735-5.09375 7.34961 1.40542-4.5996 3.15267-8.88499 4.18359-16.96289-.0111-.11219-.0181-.16308-.0293-.27735z" transform="scale(.26458333)"/></g></g><path d="m147.10384 245.50395c7.31709 13.99416 16.62212 26.0004 25.64011 38.29367" fill="none" stroke="#f9b500" stroke-width=".996712"/><path d="m150.60022 242.67354c7.4453 14.91831 16.97246 28.44244 22.8097 37.12821" fill="none" stroke="#f9b500" stroke-width=".996712"/><g transform="matrix(2.4917795 0 0 2.4917795 53.367621 -68.004596)"><g transform="matrix(.9421977 -.33505746 .33505746 .9421977 -33.327338 43.268052)"><path d="m40.825419 114.05727c1.345952 4.93799 4.620241 6.26918 7.525309 7.74247-1.163446-2.9976-3.1872-5.80309-7.525309-7.74247z" fill="#f9b500"/><path d="m49.244411 111.1173c.784916 3.47789.69227 5.33985.194695 6.78076-.363476 1.05258-.680266 1.95316-1.071674 3.89333-1.543518-2.22767-2.195454-3.39288.876979-10.67409z" fill="#f9b500"/><g fill="#fff"><path d="m41.660636 114.89249c.0629 2.23542 2.453214 2.25188 4.435005 3.44945-1.489942-1.70279-2.291164-2.25648-4.435005-3.44945z"/><path d="m186.86523 424.76367c-1.77939 1.83288-3.45002 4.64205-5.54697 9.99742-2.42947 6.20462-3.548 15.21608.86338 21.08852 1.47934-7.33293 3.32804-10.19255 4.67578-14.17969.87956-2.6022 1.09494-4.26752.94727-7.01562-2.11494 2.68792-3.11918 4.5735-5.09375 7.34961 1.40542-4.5996 3.15267-8.88499 4.18359-16.96289-.0111-.11219-.0181-.16308-.0293-.27735z" transform="scale(.26458333)"/></g></g><path d="m40.691784 123.94624c2.433085 5.78545 5.952526 10.48455 9.020347 15.63527" fill="none" stroke="#f9b500" stroke-width=".4"/></g><g transform="matrix(2.2299629 -1.1118591 1.1118591 2.2299629 -52.85609 68.440724)"><path d="m45.971354 115.32998c-3.740355-3.28748-2.449689-6.42251-2.267858-9.59114 3.750633 3.91007 3.788068 6.93604 2.267858 9.59114z" fill="#f9b500"/><path d="m43.703306 106.14099c2.841927 3.35407 3.040783 4.2808 2.698262 7.1603-1.070042-2.51969-1.811802-3.75667-2.91852-5.26594.06983-.58598.153352-1.26694.220258-1.89436z" fill="#fff"/></g><g transform="matrix(2.0227671 -1.4551214 1.4551214 2.0227671 -52.925519 137.98524)"><path d="m40.825419 114.05727c1.345952 4.93799 4.620241 6.26918 7.525309 7.74247-1.163446-2.9976-3.1872-5.80309-7.525309-7.74247z" fill="#f9b500"/><path d="m41.660636 114.89249c.0629 2.23542 2.453214 2.25188 4.435005 3.44945-1.489942-1.70279-2.291164-2.25648-4.435005-3.44945z" fill="#fff"/></g><g transform="matrix(2.1115432 -1.3230082 1.3230082 2.1115432 -53.667691 112.61663)"><path d="m40.825419 114.05727c1.345952 4.93799 4.620241 6.26918 7.525309 7.74247-1.163446-2.9976-3.1872-5.80309-7.525309-7.74247z" fill="#f9b500"/><path d="m41.660636 114.89249c.0629 2.23542 2.453214 2.25188 4.435005 3.44945-1.489942-1.70279-2.291164-2.25648-4.435005-3.44945z" fill="#fff"/></g><g transform="matrix(1.9123945 -1.597408 1.597408 1.9123945 -51.535499 166.24236)"><path d="m40.825419 114.05727c1.345952 4.93799 4.620241 6.26918 7.525309 7.74247-1.163446-2.9976-3.1872-5.80309-7.525309-7.74247z" fill="#f9b500"/><path d="m41.660636 114.89249c.0629 2.23542 2.453214 2.25188 4.435005 3.44945-1.489942-1.70279-2.291164-2.25648-4.435005-3.44945z" fill="#fff"/></g><g transform="matrix(1.8691668 -1.6477805 1.6477805 1.8691668 -41.502387 182.24106)"><path d="m40.825419 114.05727c1.345952 4.93799 4.620241 6.26918 7.525309 7.74247-1.163446-2.9976-3.1872-5.80309-7.525309-7.74247z" fill="#f9b500"/><path d="m41.660636 114.89249c.0629 2.23542 2.453214 2.25188 4.435005 3.44945-1.489942-1.70279-2.291164-2.25648-4.435005-3.44945z" fill="#fff"/></g><path d="m253.49363 77.344824c-19.07626 10.940819-32.72364 22.978876-44.28746 36.129236" fill="none" stroke="#f9b500" stroke-width=".996712"/><g transform="matrix(1.28822488 2.13294205 -2.13294205 1.28822488 392.204906 -139.968524)"><path d="m40.825419 114.05727c1.345952 4.93799 4.620241 6.26918 7.525309 7.74247-1.163446-2.9976-3.1872-5.80309-7.525309-7.74247z" fill="#f9b500"/><path d="m49.244411 111.1173c.784916 3.47789.69227 5.33985.194695 6.78076-.363476 1.05258-.680266 1.95316-1.071674 3.89333-1.543518-2.22767-2.195454-3.39288.876979-10.67409z" fill="#f9b500"/><g fill="#fff"><path d="m41.660636 114.89249c.0629 2.23542 2.453214 2.25188 4.435005 3.44945-1.489942-1.70279-2.291164-2.25648-4.435005-3.44945z"/><path d="m186.86523 424.76367c-1.77939 1.83288-3.45002 4.64205-5.54697 9.99742-2.42947 6.20462-3.548 15.21608.86338 21.08852 1.47934-7.33293 3.32804-10.19255 4.67578-14.17969.87956-2.6022 1.09494-4.26752.94727-7.01562-2.11494 2.68792-3.11918 4.5735-5.09375 7.34961 1.40542-4.5996 3.15267-8.88499 4.18359-16.96289-.0111-.11219-.0181-.16308-.0293-.27735z" transform="scale(.26458333)"/></g></g><g transform="matrix(1.56708556 1.93731976 -1.93731976 1.56708556 347.454068 -149.010028)"><path d="m40.825419 114.05727c1.345952 4.93799 4.620241 6.26918 7.525309 7.74247-1.163446-2.9976-3.1872-5.80309-7.525309-7.74247z" fill="#f9b500"/><path d="m49.244411 111.1173c.784916 3.47789.69227 5.33985.194695 6.78076-.363476 1.05258-.680266 1.95316-1.071674 3.89333-1.543518-2.22767-2.195454-3.39288.876979-10.67409z" fill="#f9b500"/><g fill="#fff"><path d="m41.660636 114.89249c.0629 2.23542 2.453214 2.25188 4.435005 3.44945-1.489942-1.70279-2.291164-2.25648-4.435005-3.44945z"/><path d="m186.86523 424.76367c-1.77939 1.83288-3.45002 4.64205-5.54697 9.99742-2.42947 6.20462-3.548 15.21608.86338 21.08852 1.47934-7.33293 3.32804-10.19255 4.67578-14.17969.87956-2.6022 1.09494-4.26752.94727-7.01562-2.11494 2.68792-3.11918 4.5735-5.09375 7.34961 1.40542-4.5996 3.15267-8.88499 4.18359-16.96289-.0111-.11219-.0181-.16308-.0293-.27735z" transform="scale(.26458333)"/></g></g><g transform="matrix(1.94162975 1.56174231 -1.56174231 1.94162975 279.993972 -162.640515)"><path d="m40.825419 114.05727c1.345952 4.93799 4.620241 6.26918 7.525309 7.74247-1.163446-2.9976-3.1872-5.80309-7.525309-7.74247z" fill="#f9b500"/><path d="m49.244411 111.1173c.784916 3.47789.69227 5.33985.194695 6.78076-.363476 1.05258-.680266 1.95316-1.071674 3.89333-1.543518-2.22767-2.195454-3.39288.876979-10.67409z" fill="#f9b500"/><g fill="#fff"><path d="m41.660636 114.89249c.0629 2.23542 2.453214 2.25188 4.435005 3.44945-1.489942-1.70279-2.291164-2.25648-4.435005-3.44945z"/><path d="m186.86523 424.76367c-1.77939 1.83288-3.45002 4.64205-5.54697 9.99742-2.42947 6.20462-3.548 15.21608.86338 21.08852 1.47934-7.33293 3.32804-10.19255 4.67578-14.17969.87956-2.6022 1.09494-4.26752.94727-7.01562-2.11494 2.68792-3.11918 4.5735-5.09375 7.34961 1.40542-4.5996 3.15267-8.88499 4.18359-16.96289-.0111-.11219-.0181-.16308-.0293-.27735z" transform="scale(.26458333)"/></g></g><g transform="matrix(2.20935752 1.15226059 -1.15226059 2.20935752 215.258929 -163.06421)"><path d="m40.825419 114.05727c1.345952 4.93799 4.620241 6.26918 7.525309 7.74247-1.163446-2.9976-3.1872-5.80309-7.525309-7.74247z" fill="#f9b500"/><path d="m49.244411 111.1173c.784916 3.47789.69227 5.33985.194695 6.78076-.363476 1.05258-.680266 1.95316-1.071674 3.89333-1.543518-2.22767-2.195454-3.39288.876979-10.67409z" fill="#f9b500"/><g fill="#fff"><path d="m41.660636 114.89249c.0629 2.23542 2.453214 2.25188 4.435005 3.44945-1.489942-1.70279-2.291164-2.25648-4.435005-3.44945z"/><path d="m186.86523 424.76367c-1.77939 1.83288-3.45002 4.64205-5.54697 9.99742-2.42947 6.20462-3.548 15.21608.86338 21.08852 1.47934-7.33293 3.32804-10.19255 4.67578-14.17969.87956-2.6022 1.09494-4.26752.94727-7.01562-2.11494 2.68792-3.11918 4.5735-5.09375 7.34961 1.40542-4.5996 3.15267-8.88499 4.18359-16.96289-.0111-.11219-.0181-.16308-.0293-.27735z" transform="scale(.26458333)"/></g></g><g transform="matrix(2.31684083 .91717701 -.91717701 2.31684083 179.450007 -152.566619)"><path d="m40.825419 114.05727c1.345952 4.93799 4.620241 6.26918 7.525309 7.74247-1.163446-2.9976-3.1872-5.80309-7.525309-7.74247z" fill="#f9b500"/><path d="m49.244411 111.1173c.784916 3.47789.69227 5.33985.194695 6.78076-.363476 1.05258-.680266 1.95316-1.071674 3.89333-1.543518-2.22767-2.195454-3.39288.876979-10.67409z" fill="#f9b500"/><g fill="#fff"><path d="m41.660636 114.89249c.0629 2.23542 2.453214 2.25188 4.435005 3.44945-1.489942-1.70279-2.291164-2.25648-4.435005-3.44945z"/><path d="m186.86523 424.76367c-1.77939 1.83288-3.45002 4.64205-5.54697 9.99742-2.42947 6.20462-3.548 15.21608.86338 21.08852 1.47934-7.33293 3.32804-10.19255 4.67578-14.17969.87956-2.6022 1.09494-4.26752.94727-7.01562-2.11494 2.68792-3.11918 4.5735-5.09375 7.34961 1.40542-4.5996 3.15267-8.88499 4.18359-16.96289-.0111-.11219-.0181-.16308-.0293-.27735z" transform="scale(.26458333)"/></g></g><g transform="matrix(2.36224604 .79294304 -.79294304 2.36224604 160.452057 -138.752692)"><path d="m40.825419 114.05727c1.345952 4.93799 4.620241 6.26918 7.525309 7.74247-1.163446-2.9976-3.1872-5.80309-7.525309-7.74247z" fill="#f9b500"/><path d="m49.244411 111.1173c.784916 3.47789.69227 5.33985.194695 6.78076-.363476 1.05258-.680266 1.95316-1.071674 3.89333-1.543518-2.22767-2.195454-3.39288.876979-10.67409z" fill="#f9b500"/><g fill="#fff"><path d="m41.660636 114.89249c.0629 2.23542 2.453214 2.25188 4.435005 3.44945-1.489942-1.70279-2.291164-2.25648-4.435005-3.44945z"/><path d="m186.86523 424.76367c-1.77939 1.83288-3.45002 4.64205-5.54697 9.99742-2.42947 6.20462-3.548 15.21608.86338 21.08852 1.47934-7.33293 3.32804-10.19255 4.67578-14.17969.87956-2.6022 1.09494-4.26752.94727-7.01562-2.11494 2.68792-3.11918 4.5735-5.09375 7.34961 1.40542-4.5996 3.15267-8.88499 4.18359-16.96289-.0111-.11219-.0181-.16308-.0293-.27735z" transform="scale(.26458333)"/></g></g><g stroke="#f9b500" stroke-width=".996712"><path d="m245.16891 76.512348c-11.91552 7.487765-20.52276 15.199977-30.80142 24.474652" fill="none"/><path d="m238.67564 74.847411c-10.15821 7.262986-22.74531 18.785777-23.47567 19.979302" fill="none"/><path d="m178.40475 178.40679 25.30712 83.2471-16.14994 24.97411c-15.43729-24.38963-34.00962-46.02815-42.9555-98.89753" fill="#fff"/><g fill="none"><path d="m148.60229 186.89799c1.91795 10.73561 4.18771 21.1194 6.99275 30.96791"/><path d="m153.26413 185.56604c3.23142 23.10445 5.62398 27.48649 8.4912 37.46119"/><path d="m157.59298 184.40058c1.44295 16.93825 2.88589 17.26958 4.32884 25.47361"/><path d="m162.08832 182.90213c.35325 8.71756 1.22233 13.80802 1.99793 19.14683"/><path d="m166.75016 181.73667c.67645 12.74984 1.90401 18.88644 2.99689 26.63907"/><path d="m171.74498 180.23823c-.13697 15.60959 1.92308 21.68626 2.9969 32.46635"/><path d="m142.775 246.83591c7.3953 13.18988 17.65623 27.26996 26.47257 36.2957"/></g></g><path d="m226.80165 300.54778c2.40658 4.47631 4.18696 8.58067 6.15048 12.83543l6.66303-5.83178-6.12192-10.59562z" fill="#fff"/><g transform="matrix(2.4917795 0 0 2.4917795 53.367621 -68.004596)"><path d="m40.825419 114.05727c1.345952 4.93799 4.620241 6.26918 7.525309 7.74247-1.163446-2.9976-3.1872-5.80309-7.525309-7.74247z" fill="#f9b500"/><path d="m49.244411 111.1173c.784916 3.47789.69227 5.33985.194695 6.78076-.363476 1.05258-.680266 1.95316-1.071674 3.89333-1.543518-2.22767-2.195454-3.39288.876979-10.67409z" fill="#f9b500"/><path d="m41.660636 114.89249c.0629 2.23542 2.453214 2.25188 4.435005 3.44945-1.489942-1.70279-2.291164-2.25648-4.435005-3.44945z" fill="#fff"/><path d="m186.86523 424.76367c-1.77939 1.83288-3.45002 4.64205-5.54697 9.99742-2.42947 6.20462-3.548 15.21608.86338 21.08852 1.47934-7.33293 3.32804-10.19255 4.67578-14.17969.87956-2.6022 1.09494-4.26752.94727-7.01562-2.11494 2.68792-3.11918 4.5735-5.09375 7.34961 1.40542-4.5996 3.15267-8.88499 4.18359-16.96289-.0111-.11219-.0181-.16308-.0293-.27735z" fill="#fff" transform="scale(.26458333)"/><g transform="matrix(.99770907 -.06765062 .06765062 .99770907 -5.601293 8.813679)"><path d="m40.825419 114.05727c1.345952 4.93799 4.620241 6.26918 7.525309 7.74247-1.163446-2.9976-3.1872-5.80309-7.525309-7.74247z" fill="#f9b500"/><path d="m49.244411 111.1173c.784916 3.47789.69227 5.33985.194695 6.78076-.363476 1.05258-.680266 1.95316-1.071674 3.89333-1.543518-2.22767-2.195454-3.39288.876979-10.67409z" fill="#f9b500"/><g fill="#fff"><path d="m41.660636 114.89249c.0629 2.23542 2.453214 2.25188 4.435005 3.44945-1.489942-1.70279-2.291164-2.25648-4.435005-3.44945z"/><path d="m186.86523 424.76367c-1.77939 1.83288-3.45002 4.64205-5.54697 9.99742-2.42947 6.20462-3.548 15.21608.86338 21.08852 1.47934-7.33293 3.32804-10.19255 4.67578-14.17969.87956-2.6022 1.09494-4.26752.94727-7.01562-2.11494 2.68792-3.11918 4.5735-5.09375 7.34961 1.40542-4.5996 3.15267-8.88499 4.18359-16.96289-.0111-.11219-.0181-.16308-.0293-.27735z" transform="scale(.26458333)"/></g></g><g transform="matrix(.99160635 -.12929365 .12929365 .99160635 -10.12685 18.075474)"><path d="m40.825419 114.05727c1.345952 4.93799 4.620241 6.26918 7.525309 7.74247-1.163446-2.9976-3.1872-5.80309-7.525309-7.74247z" fill="#f9b500"/><path d="m49.244411 111.1173c.784916 3.47789.69227 5.33985.194695 6.78076-.363476 1.05258-.680266 1.95316-1.071674 3.89333-1.543518-2.22767-2.195454-3.39288.876979-10.67409z" fill="#f9b500"/><g fill="#fff"><path d="m41.660636 114.89249c.0629 2.23542 2.453214 2.25188 4.435005 3.44945-1.489942-1.70279-2.291164-2.25648-4.435005-3.44945z"/><path d="m186.86523 424.76367c-1.77939 1.83288-3.45002 4.64205-5.54697 9.99742-2.42947 6.20462-3.548 15.21608.86338 21.08852 1.47934-7.33293 3.32804-10.19255 4.67578-14.17969.87956-2.6022 1.09494-4.26752.94727-7.01562-2.11494 2.68792-3.11918 4.5735-5.09375 7.34961 1.40542-4.5996 3.15267-8.88499 4.18359-16.96289-.0111-.11219-.0181-.16308-.0293-.27735z" transform="scale(.26458333)"/></g></g><g transform="matrix(.9801667 -.19817477 .19817477 .9801667 -14.858934 27.807434)"><path d="m40.825419 114.05727c1.345952 4.93799 4.620241 6.26918 7.525309 7.74247-1.163446-2.9976-3.1872-5.80309-7.525309-7.74247z" fill="#f9b500"/><path d="m49.244411 111.1173c.784916 3.47789.69227 5.33985.194695 6.78076-.363476 1.05258-.680266 1.95316-1.071674 3.89333-1.543518-2.22767-2.195454-3.39288.876979-10.67409z" fill="#f9b500"/><g fill="#fff"><path d="m41.660636 114.89249c.0629 2.23542 2.453214 2.25188 4.435005 3.44945-1.489942-1.70279-2.291164-2.25648-4.435005-3.44945z"/><path d="m186.86523 424.76367c-1.77939 1.83288-3.45002 4.64205-5.54697 9.99742-2.42947 6.20462-3.548 15.21608.86338 21.08852 1.47934-7.33293 3.32804-10.19255 4.67578-14.17969.87956-2.6022 1.09494-4.26752.94727-7.01562-2.11494 2.68792-3.11918 4.5735-5.09375 7.34961 1.40542-4.5996 3.15267-8.88499 4.18359-16.96289-.0111-.11219-.0181-.16308-.0293-.27735z" transform="scale(.26458333)"/></g></g></g><g transform="matrix(2.4917795 0 0 2.4917795 53.367621 -68.004596)"><path d="m45.971354 115.32998c-3.740355-3.28748-2.449689-6.42251-2.267858-9.59114 3.750633 3.91007 3.788068 6.93604 2.267858 9.59114z" fill="#f9b500"/><path d="m43.703306 106.14099c2.841927 3.35407 3.040783 4.2808 2.698262 7.1603-1.070042-2.51969-1.811802-3.75667-2.91852-5.26594.06983-.58598.153352-1.26694.220258-1.89436z" fill="#fff"/></g><g transform="matrix(1.2882249 2.132942 -2.132942 1.2882249 390.53996 -138.96956)"><path d="m45.971354 115.32998c-3.740355-3.28748-2.449689-6.42251-2.267858-9.59114 3.750633 3.91007 3.788068 6.93604 2.267858 9.59114z" fill="#f9b500"/><path d="m43.703306 106.14099c2.841927 3.35407 3.040783 4.2808 2.698262 7.1603-1.070042-2.51969-1.811802-3.75667-2.91852-5.26594.06983-.58598.153352-1.26694.220258-1.89436z" fill="#fff"/></g><path d="m187.97877 132.21823c-8.41494 17.3282-12.55999 37.63152-12.55999 57.85621 0 33.62689 15.09127 61.52804 36.99524 84.19932l17.43454-21.27519c-13.85189-16.69549-22.17948-38.1393-22.17948-61.52811 0-22.33569 7.59453-42.89756 20.34219-59.24422" fill="#fff" stroke="#f9b500" stroke-width=".996712"/><g transform="matrix(2.29907282 .96084819 -.96084819 2.29907282 197.539805 -134.175216)"><path d="m40.825419 114.05727c1.345952 4.93799 4.620241 6.26918 7.525309 7.74247-1.163446-2.9976-3.1872-5.80309-7.525309-7.74247z" fill="#f9b500"/><path d="m49.244411 111.1173c.784916 3.47789.69227 5.33985.194695 6.78076-.363476 1.05258-.680266 1.95316-1.071674 3.89333-1.543518-2.22767-2.195454-3.39288.876979-10.67409z" fill="#f9b500"/><g fill="#fff"><path d="m41.660636 114.89249c.0629 2.23542 2.453214 2.25188 4.435005 3.44945-1.489942-1.70279-2.291164-2.25648-4.435005-3.44945z"/><path d="m186.86523 424.76367c-1.77939 1.83288-3.45002 4.64205-5.54697 9.99742-2.42947 6.20462-3.548 15.21608.86338 21.08852 1.47934-7.33293 3.32804-10.19255 4.67578-14.17969.87956-2.6022 1.09494-4.26752.94727-7.01562-2.11494 2.68792-3.11918 4.5735-5.09375 7.34961 1.40542-4.5996 3.15267-8.88499 4.18359-16.96289-.0111-.11219-.0181-.16308-.0293-.27735z" transform="scale(.26458333)"/></g></g><g transform="matrix(2.40950817 .63500825 -.63500825 2.40950817 154.486572 -116.770587)"><path d="m40.825419 114.05727c1.345952 4.93799 4.620241 6.26918 7.525309 7.74247-1.163446-2.9976-3.1872-5.80309-7.525309-7.74247z" fill="#f9b500"/><path d="m49.244411 111.1173c.784916 3.47789.69227 5.33985.194695 6.78076-.363476 1.05258-.680266 1.95316-1.071674 3.89333-1.543518-2.22767-2.195454-3.39288.876979-10.67409z" fill="#f9b500"/><g fill="#fff"><path d="m41.660636 114.89249c.0629 2.23542 2.453214 2.25188 4.435005 3.44945-1.489942-1.70279-2.291164-2.25648-4.435005-3.44945z"/><path d="m186.86523 424.76367c-1.77939 1.83288-3.45002 4.64205-5.54697 9.99742-2.42947 6.20462-3.548 15.21608.86338 21.08852 1.47934-7.33293 3.32804-10.19255 4.67578-14.17969.87956-2.6022 1.09494-4.26752.94727-7.01562-2.11494 2.68792-3.11918 4.5735-5.09375 7.34961 1.40542-4.5996 3.15267-8.88499 4.18359-16.96289-.0111-.11219-.0181-.16308-.0293-.27735z" transform="scale(.26458333)"/></g></g><g transform="matrix(2.44420171 .48460609 -.48460609 2.44420171 136.757033 -97.509122)"><path d="m40.825419 114.05727c1.345952 4.93799 4.620241 6.26918 7.525309 7.74247-1.163446-2.9976-3.1872-5.80309-7.525309-7.74247z" fill="#f9b500"/><path d="m49.244411 111.1173c.784916 3.47789.69227 5.33985.194695 6.78076-.363476 1.05258-.680266 1.95316-1.071674 3.89333-1.543518-2.22767-2.195454-3.39288.876979-10.67409z" fill="#f9b500"/><g fill="#fff"><path d="m41.660636 114.89249c.0629 2.23542 2.453214 2.25188 4.435005 3.44945-1.489942-1.70279-2.291164-2.25648-4.435005-3.44945z"/><path d="m186.86523 424.76367c-1.77939 1.83288-3.45002 4.64205-5.54697 9.99742-2.42947 6.20462-3.548 15.21608.86338 21.08852 1.47934-7.33293 3.32804-10.19255 4.67578-14.17969.87956-2.6022 1.09494-4.26752.94727-7.01562-2.11494 2.68792-3.11918 4.5735-5.09375 7.34961 1.40542-4.5996 3.15267-8.88499 4.18359-16.96289-.0111-.11219-.0181-.16308-.0293-.27735z" transform="scale(.26458333)"/></g></g><g transform="matrix(2.48544495 .17756249 -.17756249 2.48544495 102.575955 -74.022408)"><path d="m40.825419 114.05727c1.345952 4.93799 4.620241 6.26918 7.525309 7.74247-1.163446-2.9976-3.1872-5.80309-7.525309-7.74247z" fill="#f9b500"/><path d="m49.244411 111.1173c.784916 3.47789.69227 5.33985.194695 6.78076-.363476 1.05258-.680266 1.95316-1.071674 3.89333-1.543518-2.22767-2.195454-3.39288.876979-10.67409z" fill="#f9b500"/><g fill="#fff"><path d="m41.660636 114.89249c.0629 2.23542 2.453214 2.25188 4.435005 3.44945-1.489942-1.70279-2.291164-2.25648-4.435005-3.44945z"/><path d="m186.86523 424.76367c-1.77939 1.83288-3.45002 4.64205-5.54697 9.99742-2.42947 6.20462-3.548 15.21608.86338 21.08852 1.47934-7.33293 3.32804-10.19255 4.67578-14.17969.87956-2.6022 1.09494-4.26752.94727-7.01562-2.11494 2.68792-3.11918 4.5735-5.09375 7.34961 1.40542-4.5996 3.15267-8.88499 4.18359-16.96289-.0111-.11219-.0181-.16308-.0293-.27735z" transform="scale(.26458333)"/></g></g><g transform="matrix(2.17804936 1.21039916 -1.21039916 2.17804936 230.515532 -131.659274)"><path d="m45.971354 115.32998c-3.740355-3.28748-2.449689-6.42251-2.267858-9.59114 3.750633 3.91007 3.788068 6.93604 2.267858 9.59114z" fill="#f9b500"/><path d="m43.703306 106.14099c2.841927 3.35407 3.040783 4.2808 2.698262 7.1603-1.070042-2.51969-1.811802-3.75667-2.91852-5.26594.06983-.58598.153352-1.26694.220258-1.89436z" fill="#fff"/></g><g transform="matrix(2.48587822 -.1713902 .1713902 2.48587822 66.532163 -44.906727)"><path d="m40.825419 114.05727c1.345952 4.93799 4.620241 6.26918 7.525309 7.74247-1.163446-2.9976-3.1872-5.80309-7.525309-7.74247z" fill="#f9b500"/><path d="m49.244411 111.1173c.784916 3.47789.69227 5.33985.194695 6.78076-.363476 1.05258-.680266 1.95316-1.071674 3.89333-1.543518-2.22767-2.195454-3.39288.876979-10.67409z" fill="#f9b500"/><g fill="#fff"><path d="m41.660636 114.89249c.0629 2.23542 2.453214 2.25188 4.435005 3.44945-1.489942-1.70279-2.291164-2.25648-4.435005-3.44945z"/><path d="m186.86523 424.76367c-1.77939 1.83288-3.45002 4.64205-5.54697 9.99742-2.42947 6.20462-3.548 15.21608.86338 21.08852 1.47934-7.33293 3.32804-10.19255 4.67578-14.17969.87956-2.6022 1.09494-4.26752.94727-7.01562-2.11494 2.68792-3.11918 4.5735-5.09375 7.34961 1.40542-4.5996 3.15267-8.88499 4.18359-16.96289-.0111-.11219-.0181-.16308-.0293-.27735z" transform="scale(.26458333)"/></g></g><g transform="matrix(2.44070455 -.50192268 .50192268 2.44070455 38.155155 -10.720185)"><path d="m40.825419 114.05727c1.345952 4.93799 4.620241 6.26918 7.525309 7.74247-1.163446-2.9976-3.1872-5.80309-7.525309-7.74247z" fill="#f9b500"/><path d="m49.244411 111.1173c.784916 3.47789.69227 5.33985.194695 6.78076-.363476 1.05258-.680266 1.95316-1.071674 3.89333-1.543518-2.22767-2.195454-3.39288.876979-10.67409z" fill="#f9b500"/><g fill="#fff"><path d="m41.660636 114.89249c.0629 2.23542 2.453214 2.25188 4.435005 3.44945-1.489942-1.70279-2.291164-2.25648-4.435005-3.44945z"/><path d="m186.86523 424.76367c-1.77939 1.83288-3.45002 4.64205-5.54697 9.99742-2.42947 6.20462-3.548 15.21608.86338 21.08852 1.47934-7.33293 3.32804-10.19255 4.67578-14.17969.87956-2.6022 1.09494-4.26752.94727-7.01562-2.11494 2.68792-3.11918 4.5735-5.09375 7.34961 1.40542-4.5996 3.15267-8.88499 4.18359-16.96289-.0111-.11219-.0181-.16308-.0293-.27735z" transform="scale(.26458333)"/></g></g><g stroke="#f9b500"><g fill="none" stroke-width=".996712"><path d="m220.69427 132.87063c-9.03382 14.93451-14.26008 28.74238-16.81591 41.20731"/><path d="m215.11672 132.87063c-9.27312 15.20591-12.44092 27.23072-15.06773 37.21145"/><path d="m209.53916 132.87063c-5.92403 8.81257-8.28851 18.24546-10.73887 25.55686"/><path d="m203.96161 132.87063c-5.59891 10.06484-7.89134 16.19709-10.0729 24.3914"/><path d="m198.38405 132.87063c-8.11899 15.71337-9.45085 24.86627-10.32264 33.54858"/><path d="m192.8065 132.87063c-5.38541 11.6418-8.94876 22.44167-9.90641 32.46637"/></g><path d="m189.46253 304.72592 20.24942 17.65939c-8.45606 1.1163-22.97552 9.98028-24.95858 2.82551z" fill="#027b32" stroke-width=".747534"/></g><g transform="matrix(2.4917795 0 0 2.4917795 53.367621 -68.004596)"><path d="m49.177593 149.67093c-1.825745 3.11874-3.5304 6.35858-7.082644 7.75082 5.228892 2.51279 10.093656 5.26833 12.160765 9.88897 4.928964-1.96506 8.246418-5.16975 8.552625-10.69078-2.057532-.54414-9.857067 2.47973-9.724305 1.10011z"/><path d="m47.730736 160.45896c2.867678 1.82213 5.2383 3.97563 6.524978 6.85176 4.928964-1.96506 8.246418-5.16975 8.552625-10.69078-1.75345-.61093-5.639508 1.84059-9.724305 1.10011l-.801637-1.65175c-.815273 1.14592-3.009399 3.23714-4.551661 4.39066z" fill="#d41a09"/><path d="m51.674721 163.58001c1.071949 1.10249 1.954827 2.33103 2.580993 3.73071 4.928964-1.96506 8.246418-5.16975 8.552625-10.69078-1.178553-.50701-3.197326.3209-5.798049.8501-.420364 2.11198-2.243054 3.6417-5.335569 6.10997z" fill="#027b32"/><path d="m49.177593 149.67093c-1.825745 3.11874-3.5304 6.35858-7.082644 7.75082 5.228892 2.51279 10.093656 5.26833 12.160765 9.88897 4.928964-1.96506 8.246418-5.16975 8.552625-10.69078-1.898759-.62195-8.673333 2.12906-9.724305 1.10011z" fill="none" stroke="#f9b500" stroke-width=".4"/></g><path d="m69.757347 127.22029c3.437075 3.80951 7.187562 5.87698 10.95805 8.68626l-4.944489 4.81085c-13.374919 4.10932-22.026569 9.02151-22.792638 17.00239-1.349502-1.53928-3.030341-3.22515-4.35535-4.72918-2.014586-2.28679-4.575468-4.21056-7.255929-6.57087 6.954455-10.4524 16.806248-16.22572 28.390356-19.19945z" fill="none" stroke="#f9b500" stroke-width=".4" transform="matrix(2.4917795 0 0 2.4917795 53.442106 -68.302534)"/><g transform="matrix(2.4917795 0 0 2.4917795 53.367621 -68.004596)"><path d="m69.757347 127.22029c3.437075 3.80951 7.187562 5.87698 10.95805 8.68626l-4.944489 4.81085c-13.374919 4.10932-21.951839 8.8571-22.717908 16.83798-3.491516-3.98252-6.715633-7.59757-11.626225-11.22532 6.954455-10.4524 16.746464-16.13604 28.330572-19.10977z"/><path d="m73.520761 130.72798c2.337342 1.86216 4.761826 3.36595 7.194636 5.17857l-4.944489 4.81085c-13.374919 4.10932-21.951839 8.8571-22.717908 16.83798-2.725097-3.07301-4.967412-5.56556-8.129824-8.41146 4.755076-7.52286 22.163615-18.23655 28.597585-18.41594z" fill="#d41a09"/><path d="m78.025213 133.98954c.892938.61928 1.790992 1.24705 2.690184 1.91701l-4.944489 4.81085c-13.374919 4.10932-21.951839 8.8571-22.717908 16.83798-1.583901-1.80664-3.127719-3.53766-4.783968-5.22855 8.628425-12.17198 21.339009-15.81556 29.756181-18.33729z" fill="#027b32"/></g><g transform="matrix(-2.4917795 0 0 2.4917795 556.80992 -68.004596)"><g stroke="#f9b500" stroke-width=".4"><path d="m84.1899 59.868374-28.464204 31.270534 6.815373 41.827682-5.449802 7.48232c-9.056405-10.00089-14.552343-23.14619-14.548937-37.5449.004676-19.76598 10.265867-35.843758 25.523127-47.149043" fill="#fff"/><path d="m72.095955 56.794774c-4.4672 3.130921-8.749028 7.426851-12.895755 11.358955" fill="none"/><path d="m69.757345 56.260235c-3.519392 2.922186-7.335319 6.165485-10.690781 9.621702" fill="none"/><path d="m65.484374 158.46652-.141747 6.09486 6.85082-1.65365z"/><path d="m43.030394 122.87716 18.642049 17.23889 17.907058-9.08717 22.183369 6.1472.86863 25.85833-28.063304 1.06908c-16.91503-8.39132-30.854437-20.81158-40.290881-36.74956" fill="#fff"/></g><g transform="matrix(.901535 -.43270618 .43270618 .901535 -27.296715 58.567062)"><path d="m40.825419 114.05727c1.345952 4.93799 4.620241 6.26918 7.525309 7.74247-1.163446-2.9976-3.1872-5.80309-7.525309-7.74247z" fill="#f9b500"/><path d="m49.244411 111.1173c.784916 3.47789.69227 5.33985.194695 6.78076-.363476 1.05258-.680266 1.95316-1.071674 3.89333-1.543518-2.22767-2.195454-3.39288.876979-10.67409z" fill="#f9b500"/><g fill="#fff"><path d="m41.660636 114.89249c.0629 2.23542 2.453214 2.25188 4.435005 3.44945-1.489942-1.70279-2.291164-2.25648-4.435005-3.44945z"/><path d="m186.86523 424.76367c-1.77939 1.83288-3.45002 4.64205-5.54697 9.99742-2.42947 6.20462-3.548 15.21608.86338 21.08852 1.47934-7.33293 3.32804-10.19255 4.67578-14.17969.87956-2.6022 1.09494-4.26752.94727-7.01562-2.11494 2.68792-3.11918 4.5735-5.09375 7.34961 1.40542-4.5996 3.15267-8.88499 4.18359-16.96289-.0111-.11219-.0181-.16308-.0293-.27735z" transform="scale(.26458333)"/></g></g><g transform="matrix(.89271974 -.45061233 .45061233 .89271974 -24.705265 64.650271)"><path d="m40.825419 114.05727c1.345952 4.93799 4.620241 6.26918 7.525309 7.74247-1.163446-2.9976-3.1872-5.80309-7.525309-7.74247z" fill="#f9b500"/><path d="m49.244411 111.1173c.784916 3.47789.69227 5.33985.194695 6.78076-.363476 1.05258-.680266 1.95316-1.071674 3.89333-1.543518-2.22767-2.195454-3.39288.876979-10.67409z" fill="#f9b500"/><g fill="#fff"><path d="m41.660636 114.89249c.0629 2.23542 2.453214 2.25188 4.435005 3.44945-1.489942-1.70279-2.291164-2.25648-4.435005-3.44945z"/><path d="m186.86523 424.76367c-1.77939 1.83288-3.45002 4.64205-5.54697 9.99742-2.42947 6.20462-3.548 15.21608.86338 21.08852 1.47934-7.33293 3.32804-10.19255 4.67578-14.17969.87956-2.6022 1.09494-4.26752.94727-7.01562-2.11494 2.68792-3.11918 4.5735-5.09375 7.34961 1.40542-4.5996 3.15267-8.88499 4.18359-16.96289-.0111-.11219-.0181-.16308-.0293-.27735z" transform="scale(.26458333)"/></g></g><path d="m37.618185 125.81713c2.936491 5.61613 6.670781 10.43447 10.289876 15.368" fill="none" stroke="#f9b500" stroke-width=".4"/><path d="m39.02135 124.68123c2.987943 5.98701 6.81138 11.41451 9.15398 14.90028" fill="none" stroke="#f9b500" stroke-width=".4"/><g transform="matrix(.9421977 -.33505746 .33505746 .9421977 -33.327338 43.268052)"><path d="m40.825419 114.05727c1.345952 4.93799 4.620241 6.26918 7.525309 7.74247-1.163446-2.9976-3.1872-5.80309-7.525309-7.74247z" fill="#f9b500"/><path d="m49.244411 111.1173c.784916 3.47789.69227 5.33985.194695 6.78076-.363476 1.05258-.680266 1.95316-1.071674 3.89333-1.543518-2.22767-2.195454-3.39288.876979-10.67409z" fill="#f9b500"/><g fill="#fff"><path d="m41.660636 114.89249c.0629 2.23542 2.453214 2.25188 4.435005 3.44945-1.489942-1.70279-2.291164-2.25648-4.435005-3.44945z"/><path d="m186.86523 424.76367c-1.77939 1.83288-3.45002 4.64205-5.54697 9.99742-2.42947 6.20462-3.548 15.21608.86338 21.08852 1.47934-7.33293 3.32804-10.19255 4.67578-14.17969.87956-2.6022 1.09494-4.26752.94727-7.01562-2.11494 2.68792-3.11918 4.5735-5.09375 7.34961 1.40542-4.5996 3.15267-8.88499 4.18359-16.96289-.0111-.11219-.0181-.16308-.0293-.27735z" transform="scale(.26458333)"/></g></g><path d="m40.691784 123.94624c2.433085 5.78545 5.952526 10.48455 9.020347 15.63527" fill="none" stroke="#f9b500" stroke-width=".4"/><g transform="matrix(.89492786 -.44621086 .44621086 .89492786 -42.629659 54.758184)"><path d="m45.971354 115.32998c-3.740355-3.28748-2.449689-6.42251-2.267858-9.59114 3.750633 3.91007 3.788068 6.93604 2.267858 9.59114z" fill="#f9b500"/><path d="m43.703306 106.14099c2.841927 3.35407 3.040783 4.2808 2.698262 7.1603-1.070042-2.51969-1.811802-3.75667-2.91852-5.26594.06983-.58598.153352-1.26694.220258-1.89436z" fill="#fff"/></g><g transform="matrix(.81177613 -.58396876 .58396876 .81177613 -42.657522 82.667763)"><path d="m40.825419 114.05727c1.345952 4.93799 4.620241 6.26918 7.525309 7.74247-1.163446-2.9976-3.1872-5.80309-7.525309-7.74247z" fill="#f9b500"/><path d="m41.660636 114.89249c.0629 2.23542 2.453214 2.25188 4.435005 3.44945-1.489942-1.70279-2.291164-2.25648-4.435005-3.44945z" fill="#fff"/></g><g transform="matrix(.8474037 -.53094913 .53094913 .8474037 -42.955371 72.486841)"><path d="m40.825419 114.05727c1.345952 4.93799 4.620241 6.26918 7.525309 7.74247-1.163446-2.9976-3.1872-5.80309-7.525309-7.74247z" fill="#f9b500"/><path d="m41.660636 114.89249c.0629 2.23542 2.453214 2.25188 4.435005 3.44945-1.489942-1.70279-2.291164-2.25648-4.435005-3.44945z" fill="#fff"/></g><g transform="matrix(.76748143 -.64107118 .64107118 .76748143 -42.09968 94.007897)"><path d="m40.825419 114.05727c1.345952 4.93799 4.620241 6.26918 7.525309 7.74247-1.163446-2.9976-3.1872-5.80309-7.525309-7.74247z" fill="#f9b500"/><path d="m41.660636 114.89249c.0629 2.23542 2.453214 2.25188 4.435005 3.44945-1.489942-1.70279-2.291164-2.25648-4.435005-3.44945z" fill="#fff"/></g><g transform="matrix(.7501333 -.66128665 .66128665 .7501333 -38.073196 100.428489)"><path d="m40.825419 114.05727c1.345952 4.93799 4.620241 6.26918 7.525309 7.74247-1.163446-2.9976-3.1872-5.80309-7.525309-7.74247z" fill="#f9b500"/><path d="m41.660636 114.89249c.0629 2.23542 2.453214 2.25188 4.435005 3.44945-1.489942-1.70279-2.291164-2.25648-4.435005-3.44945z" fill="#fff"/></g><path d="m79.776434 58.929416c-7.655675 4.390765-12.59458 8.624033-17.235367 13.90153" fill="none" stroke="#f9b500" stroke-width=".4"/><g transform="matrix(.51698992 .85599149 -.85599149 .51698992 135.98205 -28.880536)"><path d="m40.825419 114.05727c1.345952 4.93799 4.620241 6.26918 7.525309 7.74247-1.163446-2.9976-3.1872-5.80309-7.525309-7.74247z" fill="#f9b500"/><path d="m49.244411 111.1173c.784916 3.47789.69227 5.33985.194695 6.78076-.363476 1.05258-.680266 1.95316-1.071674 3.89333-1.543518-2.22767-2.195454-3.39288.876979-10.67409z" fill="#f9b500"/><g fill="#fff"><path d="m41.660636 114.89249c.0629 2.23542 2.453214 2.25188 4.435005 3.44945-1.489942-1.70279-2.291164-2.25648-4.435005-3.44945z"/><path d="m186.86523 424.76367c-1.77939 1.83288-3.45002 4.64205-5.54697 9.99742-2.42947 6.20462-3.548 15.21608.86338 21.08852 1.47934-7.33293 3.32804-10.19255 4.67578-14.17969.87956-2.6022 1.09494-4.26752.94727-7.01562-2.11494 2.68792-3.11918 4.5735-5.09375 7.34961 1.40542-4.5996 3.15267-8.88499 4.18359-16.96289-.0111-.11219-.0181-.16308-.0293-.27735z" transform="scale(.26458333)"/></g></g><g transform="matrix(.62890218 .77748443 -.77748443 .62890218 118.022661 -32.509069)"><path d="m40.825419 114.05727c1.345952 4.93799 4.620241 6.26918 7.525309 7.74247-1.163446-2.9976-3.1872-5.80309-7.525309-7.74247z" fill="#f9b500"/><path d="m49.244411 111.1173c.784916 3.47789.69227 5.33985.194695 6.78076-.363476 1.05258-.680266 1.95316-1.071674 3.89333-1.543518-2.22767-2.195454-3.39288.876979-10.67409z" fill="#f9b500"/><g fill="#fff"><path d="m41.660636 114.89249c.0629 2.23542 2.453214 2.25188 4.435005 3.44945-1.489942-1.70279-2.291164-2.25648-4.435005-3.44945z"/><path d="m186.86523 424.76367c-1.77939 1.83288-3.45002 4.64205-5.54697 9.99742-2.42947 6.20462-3.548 15.21608.86338 21.08852 1.47934-7.33293 3.32804-10.19255 4.67578-14.17969.87956-2.6022 1.09494-4.26752.94727-7.01562-2.11494 2.68792-3.11918 4.5735-5.09375 7.34961 1.40542-4.5996 3.15267-8.88499 4.18359-16.96289-.0111-.11219-.0181-.16308-.0293-.27735z" transform="scale(.26458333)"/></g></g><g transform="matrix(.77921411 .62675783 -.62675783 .77921411 90.949601 -37.979251)"><path d="m40.825419 114.05727c1.345952 4.93799 4.620241 6.26918 7.525309 7.74247-1.163446-2.9976-3.1872-5.80309-7.525309-7.74247z" fill="#f9b500"/><path d="m49.244411 111.1173c.784916 3.47789.69227 5.33985.194695 6.78076-.363476 1.05258-.680266 1.95316-1.071674 3.89333-1.543518-2.22767-2.195454-3.39288.876979-10.67409z" fill="#f9b500"/><g fill="#fff"><path d="m41.660636 114.89249c.0629 2.23542 2.453214 2.25188 4.435005 3.44945-1.489942-1.70279-2.291164-2.25648-4.435005-3.44945z"/><path d="m186.86523 424.76367c-1.77939 1.83288-3.45002 4.64205-5.54697 9.99742-2.42947 6.20462-3.548 15.21608.86338 21.08852 1.47934-7.33293 3.32804-10.19255 4.67578-14.17969.87956-2.6022 1.09494-4.26752.94727-7.01562-2.11494 2.68792-3.11918 4.5735-5.09375 7.34961 1.40542-4.5996 3.15267-8.88499 4.18359-16.96289-.0111-.11219-.0181-.16308-.0293-.27735z" transform="scale(.26458333)"/></g></g><g transform="matrix(.88665852 .46242478 -.46242478 .88665852 64.970158 -38.149288)"><path d="m40.825419 114.05727c1.345952 4.93799 4.620241 6.26918 7.525309 7.74247-1.163446-2.9976-3.1872-5.80309-7.525309-7.74247z" fill="#f9b500"/><path d="m49.244411 111.1173c.784916 3.47789.69227 5.33985.194695 6.78076-.363476 1.05258-.680266 1.95316-1.071674 3.89333-1.543518-2.22767-2.195454-3.39288.876979-10.67409z" fill="#f9b500"/><g fill="#fff"><path d="m41.660636 114.89249c.0629 2.23542 2.453214 2.25188 4.435005 3.44945-1.489942-1.70279-2.291164-2.25648-4.435005-3.44945z"/><path d="m186.86523 424.76367c-1.77939 1.83288-3.45002 4.64205-5.54697 9.99742-2.42947 6.20462-3.548 15.21608.86338 21.08852 1.47934-7.33293 3.32804-10.19255 4.67578-14.17969.87956-2.6022 1.09494-4.26752.94727-7.01562-2.11494 2.68792-3.11918 4.5735-5.09375 7.34961 1.40542-4.5996 3.15267-8.88499 4.18359-16.96289-.0111-.11219-.0181-.16308-.0293-.27735z" transform="scale(.26458333)"/></g></g><g transform="matrix(.92979368 .36808113 -.36808113 .92979368 50.599335 -33.936399)"><path d="m40.825419 114.05727c1.345952 4.93799 4.620241 6.26918 7.525309 7.74247-1.163446-2.9976-3.1872-5.80309-7.525309-7.74247z" fill="#f9b500"/><path d="m49.244411 111.1173c.784916 3.47789.69227 5.33985.194695 6.78076-.363476 1.05258-.680266 1.95316-1.071674 3.89333-1.543518-2.22767-2.195454-3.39288.876979-10.67409z" fill="#f9b500"/><g fill="#fff"><path d="m41.660636 114.89249c.0629 2.23542 2.453214 2.25188 4.435005 3.44945-1.489942-1.70279-2.291164-2.25648-4.435005-3.44945z"/><path d="m186.86523 424.76367c-1.77939 1.83288-3.45002 4.64205-5.54697 9.99742-2.42947 6.20462-3.548 15.21608.86338 21.08852 1.47934-7.33293 3.32804-10.19255 4.67578-14.17969.87956-2.6022 1.09494-4.26752.94727-7.01562-2.11494 2.68792-3.11918 4.5735-5.09375 7.34961 1.40542-4.5996 3.15267-8.88499 4.18359-16.96289-.0111-.11219-.0181-.16308-.0293-.27735z" transform="scale(.26458333)"/></g></g><g transform="matrix(.94801568 .3182236 -.3182236 .94801568 42.975085 -28.392599)"><path d="m40.825419 114.05727c1.345952 4.93799 4.620241 6.26918 7.525309 7.74247-1.163446-2.9976-3.1872-5.80309-7.525309-7.74247z" fill="#f9b500"/><path d="m49.244411 111.1173c.784916 3.47789.69227 5.33985.194695 6.78076-.363476 1.05258-.680266 1.95316-1.071674 3.89333-1.543518-2.22767-2.195454-3.39288.876979-10.67409z" fill="#f9b500"/><g fill="#fff"><path d="m41.660636 114.89249c.0629 2.23542 2.453214 2.25188 4.435005 3.44945-1.489942-1.70279-2.291164-2.25648-4.435005-3.44945z"/><path d="m186.86523 424.76367c-1.77939 1.83288-3.45002 4.64205-5.54697 9.99742-2.42947 6.20462-3.548 15.21608.86338 21.08852 1.47934-7.33293 3.32804-10.19255 4.67578-14.17969.87956-2.6022 1.09494-4.26752.94727-7.01562-2.11494 2.68792-3.11918 4.5735-5.09375 7.34961 1.40542-4.5996 3.15267-8.88499 4.18359-16.96289-.0111-.11219-.0181-.16308-.0293-.27735z" transform="scale(.26458333)"/></g></g><g stroke="#f9b500" stroke-width=".4"><path d="m76.973622 57.997485c-4.781932 3.004987-8.236189 6.100049-12.361216 9.822156" fill="none"/><path d="m74.367744 57.329313c-4.07669 2.914779-9.128138 7.539101-9.421249 8.018086" fill="none"/><path d="m50.179853 98.889725 10.156242 33.408695-6.481285 10.0226c-6.195287-9.78804-13.64873-18.472-17.238886-39.68952" fill="#fff"/><g fill="none"><path d="m38.219541 102.29741c.769713 4.30841 1.68061 8.47563 2.806329 12.42803"/><path d="m40.090428 101.76287c1.296832 9.27227 2.257014 11.03087 3.407688 15.03391"/><path d="m41.82768 101.29515c.579084 6.79765 1.158167 6.93062 1.737251 10.22306"/><path d="m43.631749 100.69379c.141768 3.49853.490546 5.54143.801809 7.684"/><path d="m45.502636 100.22607c.271474 5.11676.764117 7.5795 1.202714 10.69078"/><path d="m47.507157 99.624715c-.05497 6.264435.771768 8.703125 1.202713 13.029385"/><path d="m35.880934 126.35167c2.967879 5.29336 7.085793 10.94397 10.623964 14.56618"/></g></g><path d="m69.602479 147.9073c.965807 1.79643 1.68031 3.44359 2.468309 5.15111l2.674003-2.34041-2.456847-4.25223z" fill="#fff"/><path d="m40.825419 114.05727c1.345952 4.93799 4.620241 6.26918 7.525309 7.74247-1.163446-2.9976-3.1872-5.80309-7.525309-7.74247z" fill="#f9b500"/><path d="m49.244411 111.1173c.784916 3.47789.69227 5.33985.194695 6.78076-.363476 1.05258-.680266 1.95316-1.071674 3.89333-1.543518-2.22767-2.195454-3.39288.876979-10.67409z" fill="#f9b500"/><path d="m41.660636 114.89249c.0629 2.23542 2.453214 2.25188 4.435005 3.44945-1.489942-1.70279-2.291164-2.25648-4.435005-3.44945z" fill="#fff"/><path d="m186.86523 424.76367c-1.77939 1.83288-3.45002 4.64205-5.54697 9.99742-2.42947 6.20462-3.548 15.21608.86338 21.08852 1.47934-7.33293 3.32804-10.19255 4.67578-14.17969.87956-2.6022 1.09494-4.26752.94727-7.01562-2.11494 2.68792-3.11918 4.5735-5.09375 7.34961 1.40542-4.5996 3.15267-8.88499 4.18359-16.96289-.0111-.11219-.0181-.16308-.0293-.27735z" fill="#fff" transform="scale(.26458333)"/><g transform="matrix(.99770907 -.06765062 .06765062 .99770907 -5.601293 8.813679)"><path d="m40.825419 114.05727c1.345952 4.93799 4.620241 6.26918 7.525309 7.74247-1.163446-2.9976-3.1872-5.80309-7.525309-7.74247z" fill="#f9b500"/><path d="m49.244411 111.1173c.784916 3.47789.69227 5.33985.194695 6.78076-.363476 1.05258-.680266 1.95316-1.071674 3.89333-1.543518-2.22767-2.195454-3.39288.876979-10.67409z" fill="#f9b500"/><g fill="#fff"><path d="m41.660636 114.89249c.0629 2.23542 2.453214 2.25188 4.435005 3.44945-1.489942-1.70279-2.291164-2.25648-4.435005-3.44945z"/><path d="m186.86523 424.76367c-1.77939 1.83288-3.45002 4.64205-5.54697 9.99742-2.42947 6.20462-3.548 15.21608.86338 21.08852 1.47934-7.33293 3.32804-10.19255 4.67578-14.17969.87956-2.6022 1.09494-4.26752.94727-7.01562-2.11494 2.68792-3.11918 4.5735-5.09375 7.34961 1.40542-4.5996 3.15267-8.88499 4.18359-16.96289-.0111-.11219-.0181-.16308-.0293-.27735z" transform="scale(.26458333)"/></g></g><g transform="matrix(.99160635 -.12929365 .12929365 .99160635 -10.12685 18.075474)"><path d="m40.825419 114.05727c1.345952 4.93799 4.620241 6.26918 7.525309 7.74247-1.163446-2.9976-3.1872-5.80309-7.525309-7.74247z" fill="#f9b500"/><path d="m49.244411 111.1173c.784916 3.47789.69227 5.33985.194695 6.78076-.363476 1.05258-.680266 1.95316-1.071674 3.89333-1.543518-2.22767-2.195454-3.39288.876979-10.67409z" fill="#f9b500"/><g fill="#fff"><path d="m41.660636 114.89249c.0629 2.23542 2.453214 2.25188 4.435005 3.44945-1.489942-1.70279-2.291164-2.25648-4.435005-3.44945z"/><path d="m186.86523 424.76367c-1.77939 1.83288-3.45002 4.64205-5.54697 9.99742-2.42947 6.20462-3.548 15.21608.86338 21.08852 1.47934-7.33293 3.32804-10.19255 4.67578-14.17969.87956-2.6022 1.09494-4.26752.94727-7.01562-2.11494 2.68792-3.11918 4.5735-5.09375 7.34961 1.40542-4.5996 3.15267-8.88499 4.18359-16.96289-.0111-.11219-.0181-.16308-.0293-.27735z" transform="scale(.26458333)"/></g></g><g transform="matrix(.9801667 -.19817477 .19817477 .9801667 -14.858934 27.807434)"><path d="m40.825419 114.05727c1.345952 4.93799 4.620241 6.26918 7.525309 7.74247-1.163446-2.9976-3.1872-5.80309-7.525309-7.74247z" fill="#f9b500"/><path d="m49.244411 111.1173c.784916 3.47789.69227 5.33985.194695 6.78076-.363476 1.05258-.680266 1.95316-1.071674 3.89333-1.543518-2.22767-2.195454-3.39288.876979-10.67409z" fill="#f9b500"/><g fill="#fff"><path d="m41.660636 114.89249c.0629 2.23542 2.453214 2.25188 4.435005 3.44945-1.489942-1.70279-2.291164-2.25648-4.435005-3.44945z"/><path d="m186.86523 424.76367c-1.77939 1.83288-3.45002 4.64205-5.54697 9.99742-2.42947 6.20462-3.548 15.21608.86338 21.08852 1.47934-7.33293 3.32804-10.19255 4.67578-14.17969.87956-2.6022 1.09494-4.26752.94727-7.01562-2.11494 2.68792-3.11918 4.5735-5.09375 7.34961 1.40542-4.5996 3.15267-8.88499 4.18359-16.96289-.0111-.11219-.0181-.16308-.0293-.27735z" transform="scale(.26458333)"/></g></g><path d="m45.971354 115.32998c-3.740355-3.28748-2.449689-6.42251-2.267858-9.59114 3.750633 3.91007 3.788068 6.93604 2.267858 9.59114z" fill="#f9b500"/><path d="m43.703306 106.14099c2.841927 3.35407 3.040783 4.2808 2.698262 7.1603-1.070042-2.51969-1.811802-3.75667-2.91852-5.26594.06983-.58598.153352-1.26694.220258-1.89436z" fill="#fff"/><g transform="matrix(.51698992 .85599149 -.85599149 .51698992 135.313873 -28.479632)"><path d="m45.971354 115.32998c-3.740355-3.28748-2.449689-6.42251-2.267858-9.59114 3.750633 3.91007 3.788068 6.93604 2.267858 9.59114z" fill="#f9b500"/><path d="m43.703306 106.14099c2.841927 3.35407 3.040783 4.2808 2.698262 7.1603-1.070042-2.51969-1.811802-3.75667-2.91852-5.26594.06983-.58598.153352-1.26694.220258-1.89436z" fill="#fff"/></g><path d="m54.022096 80.353347c-3.377082 6.954149-5.04057 15.10227-5.040571 23.218833-.000001 13.49513 6.056424 24.69241 14.846915 33.79084l6.996824-8.53815c-5.559037-6.70023-8.901063-15.30605-8.901062-24.69244.000001-8.963748 3.047836-17.215631 8.163721-23.775869" fill="#fff" stroke="#f9b500" stroke-width=".4"/><g transform="matrix(.92266303 .38560723 -.38560723 .92266303 57.859126 -26.555568)"><path d="m40.825419 114.05727c1.345952 4.93799 4.620241 6.26918 7.525309 7.74247-1.163446-2.9976-3.1872-5.80309-7.525309-7.74247z" fill="#f9b500"/><path d="m49.244411 111.1173c.784916 3.47789.69227 5.33985.194695 6.78076-.363476 1.05258-.680266 1.95316-1.071674 3.89333-1.543518-2.22767-2.195454-3.39288.876979-10.67409z" fill="#f9b500"/><g fill="#fff"><path d="m41.660636 114.89249c.0629 2.23542 2.453214 2.25188 4.435005 3.44945-1.489942-1.70279-2.291164-2.25648-4.435005-3.44945z"/><path d="m186.86523 424.76367c-1.77939 1.83288-3.45002 4.64205-5.54697 9.99742-2.42947 6.20462-3.548 15.21608.86338 21.08852 1.47934-7.33293 3.32804-10.19255 4.67578-14.17969.87956-2.6022 1.09494-4.26752.94727-7.01562-2.11494 2.68792-3.11918 4.5735-5.09375 7.34961 1.40542-4.5996 3.15267-8.88499 4.18359-16.96289-.0111-.11219-.0181-.16308-.0293-.27735z" transform="scale(.26458333)"/></g></g><g transform="matrix(.9669829 .25484127 -.25484127 .9669829 40.581019 -19.570749)"><path d="m40.825419 114.05727c1.345952 4.93799 4.620241 6.26918 7.525309 7.74247-1.163446-2.9976-3.1872-5.80309-7.525309-7.74247z" fill="#f9b500"/><path d="m49.244411 111.1173c.784916 3.47789.69227 5.33985.194695 6.78076-.363476 1.05258-.680266 1.95316-1.071674 3.89333-1.543518-2.22767-2.195454-3.39288.876979-10.67409z" fill="#f9b500"/><g fill="#fff"><path d="m41.660636 114.89249c.0629 2.23542 2.453214 2.25188 4.435005 3.44945-1.489942-1.70279-2.291164-2.25648-4.435005-3.44945z"/><path d="m186.86523 424.76367c-1.77939 1.83288-3.45002 4.64205-5.54697 9.99742-2.42947 6.20462-3.548 15.21608.86338 21.08852 1.47934-7.33293 3.32804-10.19255 4.67578-14.17969.87956-2.6022 1.09494-4.26752.94727-7.01562-2.11494 2.68792-3.11918 4.5735-5.09375 7.34961 1.40542-4.5996 3.15267-8.88499 4.18359-16.96289-.0111-.11219-.0181-.16308-.0293-.27735z" transform="scale(.26458333)"/></g></g><g transform="matrix(.9809061 .19448193 -.19448193 .9809061 33.465807 -11.840745)"><path d="m40.825419 114.05727c1.345952 4.93799 4.620241 6.26918 7.525309 7.74247-1.163446-2.9976-3.1872-5.80309-7.525309-7.74247z" fill="#f9b500"/><path d="m49.244411 111.1173c.784916 3.47789.69227 5.33985.194695 6.78076-.363476 1.05258-.680266 1.95316-1.071674 3.89333-1.543518-2.22767-2.195454-3.39288.876979-10.67409z" fill="#f9b500"/><g fill="#fff"><path d="m41.660636 114.89249c.0629 2.23542 2.453214 2.25188 4.435005 3.44945-1.489942-1.70279-2.291164-2.25648-4.435005-3.44945z"/><path d="m186.86523 424.76367c-1.77939 1.83288-3.45002 4.64205-5.54697 9.99742-2.42947 6.20462-3.548 15.21608.86338 21.08852 1.47934-7.33293 3.32804-10.19255 4.67578-14.17969.87956-2.6022 1.09494-4.26752.94727-7.01562-2.11494 2.68792-3.11918 4.5735-5.09375 7.34961 1.40542-4.5996 3.15267-8.88499 4.18359-16.96289-.0111-.11219-.0181-.16308-.0293-.27735z" transform="scale(.26458333)"/></g></g><g transform="matrix(.99745782 .07125931 -.07125931 .99745782 19.74827 -2.415066)"><path d="m40.825419 114.05727c1.345952 4.93799 4.620241 6.26918 7.525309 7.74247-1.163446-2.9976-3.1872-5.80309-7.525309-7.74247z" fill="#f9b500"/><path d="m49.244411 111.1173c.784916 3.47789.69227 5.33985.194695 6.78076-.363476 1.05258-.680266 1.95316-1.071674 3.89333-1.543518-2.22767-2.195454-3.39288.876979-10.67409z" fill="#f9b500"/><g fill="#fff"><path d="m41.660636 114.89249c.0629 2.23542 2.453214 2.25188 4.435005 3.44945-1.489942-1.70279-2.291164-2.25648-4.435005-3.44945z"/><path d="m186.86523 424.76367c-1.77939 1.83288-3.45002 4.64205-5.54697 9.99742-2.42947 6.20462-3.548 15.21608.86338 21.08852 1.47934-7.33293 3.32804-10.19255 4.67578-14.17969.87956-2.6022 1.09494-4.26752.94727-7.01562-2.11494 2.68792-3.11918 4.5735-5.09375 7.34961 1.40542-4.5996 3.15267-8.88499 4.18359-16.96289-.0111-.11219-.0181-.16308-.0293-.27735z" transform="scale(.26458333)"/></g></g><g transform="matrix(.87409394 .48575693 -.48575693 .87409394 71.092932 -25.545871)"><path d="m45.971354 115.32998c-3.740355-3.28748-2.449689-6.42251-2.267858-9.59114 3.750633 3.91007 3.788068 6.93604 2.267858 9.59114z" fill="#f9b500"/><path d="m43.703306 106.14099c2.841927 3.35407 3.040783 4.2808 2.698262 7.1603-1.070042-2.51969-1.811802-3.75667-2.91852-5.26594.06983-.58598.153352-1.26694.220258-1.89436z" fill="#fff"/></g><g transform="matrix(.9976317 -.06878225 .06878225 .9976317 5.283189 9.269628)"><path d="m40.825419 114.05727c1.345952 4.93799 4.620241 6.26918 7.525309 7.74247-1.163446-2.9976-3.1872-5.80309-7.525309-7.74247z" fill="#f9b500"/><path d="m49.244411 111.1173c.784916 3.47789.69227 5.33985.194695 6.78076-.363476 1.05258-.680266 1.95316-1.071674 3.89333-1.543518-2.22767-2.195454-3.39288.876979-10.67409z" fill="#f9b500"/><g fill="#fff"><path d="m41.660636 114.89249c.0629 2.23542 2.453214 2.25188 4.435005 3.44945-1.489942-1.70279-2.291164-2.25648-4.435005-3.44945z"/><path d="m186.86523 424.76367c-1.77939 1.83288-3.45002 4.64205-5.54697 9.99742-2.42947 6.20462-3.548 15.21608.86338 21.08852 1.47934-7.33293 3.32804-10.19255 4.67578-14.17969.87956-2.6022 1.09494-4.26752.94727-7.01562-2.11494 2.68792-3.11918 4.5735-5.09375 7.34961 1.40542-4.5996 3.15267-8.88499 4.18359-16.96289-.0111-.11219-.0181-.16308-.0293-.27735z" transform="scale(.26458333)"/></g></g><g transform="matrix(.97950262 -.20143142 .20143142 .97950262 -6.105061 22.989358)"><path d="m40.825419 114.05727c1.345952 4.93799 4.620241 6.26918 7.525309 7.74247-1.163446-2.9976-3.1872-5.80309-7.525309-7.74247z" fill="#f9b500"/><path d="m49.244411 111.1173c.784916 3.47789.69227 5.33985.194695 6.78076-.363476 1.05258-.680266 1.95316-1.071674 3.89333-1.543518-2.22767-2.195454-3.39288.876979-10.67409z" fill="#f9b500"/><g fill="#fff"><path d="m41.660636 114.89249c.0629 2.23542 2.453214 2.25188 4.435005 3.44945-1.489942-1.70279-2.291164-2.25648-4.435005-3.44945z"/><path d="m186.86523 424.76367c-1.77939 1.83288-3.45002 4.64205-5.54697 9.99742-2.42947 6.20462-3.548 15.21608.86338 21.08852 1.47934-7.33293 3.32804-10.19255 4.67578-14.17969.87956-2.6022 1.09494-4.26752.94727-7.01562-2.11494 2.68792-3.11918 4.5735-5.09375 7.34961 1.40542-4.5996 3.15267-8.88499 4.18359-16.96289-.0111-.11219-.0181-.16308-.0293-.27735z" transform="scale(.26458333)"/></g></g><g fill="none" stroke="#f9b500" stroke-width=".4"><path d="m67.151467 80.615168c-3.625449 5.993513-5.72285 11.534881-6.748556 16.537304"/><path d="m64.913085 80.615168c-3.721482 6.102433-4.992782 10.928224-6.046972 14.933686"/><path d="m62.674703 80.615168c-2.37743 3.536657-3.326344 7.322263-4.30972 10.256469"/><path d="m60.436321 80.615168c-2.246952 4.039219-3.166948 6.500212-4.042451 9.788749"/><path d="m58.197938 80.615168c-3.258311 6.306083-3.792812 9.979322-4.142677 13.463703"/><path d="m55.959556 80.615168c-2.16127 4.672082-3.59131 9.006284-3.975633 13.029392"/></g></g><g transform="matrix(2.4917795 0 0 2.4917795 53.367621 -68.004596)"><path d="m65.86235 164.60863 10.866816 10.96131c17.515142-7.93821 33.274344-6.71995 49.280034-.0668l10.72367-10.89451c-23.16341-11.17279-44.691013-13.19699-70.87052 0z"/><path d="m69.484622 168.2624 7.244544 7.27414c17.515142-7.93821 33.274344-6.65315 49.280034 0l7.14911-7.3594c-23.95426-13.2841-47.370168-8.88239-63.673688.0853z" fill="#d41a09"/><path d="m73.106894 171.91617 3.622272 3.65377c17.515142-7.93821 33.274344-6.71995 49.280034-.0668l3.57456-3.663c-9.23784-5.181-31.663224-13.3618-56.476866.076z" fill="#027b32"/><path d="m65.86235 164.60863 10.866816 10.96131c17.515142-7.93821 33.274344-6.71995 49.280034-.0668l10.72367-10.89451c-23.16341-11.17279-44.691013-13.19699-70.87052 0z" fill="none" stroke="#f9b500" stroke-width=".4"/></g><path d="m334.10352 218.95117a181.5173 181.5173 0 0 0 -110.60547 84.09375h30.14257a156.21903 156.21903 0 0 1 108.50977-63.71484z" stroke="#000" stroke-width=".372104" transform="matrix(.65928332 0 0 .65928332 53.367621 -68.004596)"/><path d="m365.04152 242.17409c-1.34435.1511-4.57913.19355-5.91596.37972-40.75886 5.6762-77.87959 27.57924-102.55975 61.24751l-38.12905.001c3.23568-5.77441 6.77805-11.37153 10.61192-16.76736l18.82419 8.09458c2.64646-3.52673 5.43275-6.94632 8.3522-10.25061l-4.64935-9.67241c2.41387-2.60462 4.89873-5.12753 7.45024-7.56685l8.51808 5.62704c4.02097-3.74005 8.21168-7.26468 12.55382-10.56564l-3.1222-10.06395c2.91081-2.11993 5.88217-4.14677 8.90937-6.07847l7.71273 6.89576c4.19629-2.57913 9.00713-5.47262 13.40872-7.66416l-1.80349-9.91201c3.83307-1.81454 7.73089-3.48974 11.68566-5.02217l6.44766 8.19008c4.33623-1.58899 8.742-2.99773 13.20602-4.22113l6.986-12.60203z" fill="#f9b500" transform="matrix(.65928332 0 0 .65928332 53.367621 -68.004596)"/><path d="m334.65516 76.346259a119.67133 119.67133 0 0 1 72.92034 55.441601h-19.87249a102.9926 102.9926 0 0 0 -71.53869-42.006126z" stroke="#000" stroke-width=".245322"/><path d="m314.25826 91.656741c.8863.09962 3.01894.127604 3.90028.250344 26.87165 3.742224 51.34471 18.182535 67.61593 40.379465l25.13784.00065c-2.13321-3.80697-4.46863-7.49706-6.99624-11.05443l-12.41048 5.33662c-1.74477-2.32512-3.58171-4.5796-5.50646-6.75806l3.06524-6.37686c-1.59143-1.71718-3.22965-3.38049-4.91182-4.9887l-5.61583 3.70982c-2.65095-2.46576-5.41384-4.78948-8.27652-6.96575l2.05841-6.634999c-1.91904-1.397634-3.87803-2.733895-5.8738-4.007431l-5.08487 4.546259c-2.76655-1.700378-5.93826-3.608007-8.84016-5.052853l1.18903-6.534824c-2.52709-1.196296-5.09686-2.300727-7.70416-3.311032l-4.25085 5.399582c-2.8588-1.047594-5.76346-1.976353-8.70651-2.782919l-4.60575-8.308308z" fill="#f9b500"/><path d="m304.0903 53.423086-7.35772 22.644415h-23.80793l19.26118 13.996392-7.35664 22.644397 19.26111-13.994127 19.26121 13.994127-7.35666-22.644397 19.26118-13.996392h-23.80793z" fill="#d41a09"/><g transform="matrix(-1 0 0 1 610.21978 0)"><path d="m189.46253 304.72592 20.24942 17.65939c-8.45606 1.1163-22.97552 9.98028-24.95858 2.82551z" fill="#027b32" stroke="#f9b500" stroke-width=".747534"/><g transform="matrix(2.4917795 0 0 2.4917795 53.367621 -68.004596)"><path d="m49.177593 149.67093c-1.825745 3.11874-3.5304 6.35858-7.082644 7.75082 5.228892 2.51279 10.093656 5.26833 12.160765 9.88897 4.928964-1.96506 8.246418-5.16975 8.552625-10.69078-2.057532-.54414-9.857067 2.47973-9.724305 1.10011z"/><path d="m47.730736 160.45896c2.867678 1.82213 5.2383 3.97563 6.524978 6.85176 4.928964-1.96506 8.246418-5.16975 8.552625-10.69078-1.75345-.61093-5.639508 1.84059-9.724305 1.10011l-.801637-1.65175c-.815273 1.14592-3.009399 3.23714-4.551661 4.39066z" fill="#d41a09"/><path d="m51.674721 163.58001c1.071949 1.10249 1.954827 2.33103 2.580993 3.73071 4.928964-1.96506 8.246418-5.16975 8.552625-10.69078-1.178553-.50701-3.197326.3209-5.798049.8501-.420364 2.11198-2.243054 3.6417-5.335569 6.10997z" fill="#027b32"/><path d="m49.177593 149.67093c-1.825745 3.11874-3.5304 6.35858-7.082644 7.75082 5.228892 2.51279 10.093656 5.26833 12.160765 9.88897 4.928964-1.96506 8.246418-5.16975 8.552625-10.69078-1.898759-.62195-8.673333 2.12906-9.724305 1.10011z" fill="none" stroke="#f9b500" stroke-width=".4"/></g><path d="m69.757347 127.22029c3.437075 3.80951 7.187562 5.87698 10.95805 8.68626l-4.944489 4.81085c-13.374919 4.10932-22.026569 9.02151-22.792638 17.00239-1.349502-1.53928-3.030341-3.22515-4.35535-4.72918-2.014586-2.28679-4.575468-4.21056-7.255929-6.57087 6.954455-10.4524 16.806248-16.22572 28.390356-19.19945z" fill="none" stroke="#f9b500" stroke-width=".4" transform="matrix(2.4917795 0 0 2.4917795 53.442106 -68.302534)"/><g transform="matrix(2.4917795 0 0 2.4917795 53.367621 -68.004596)"><path d="m69.757347 127.22029c3.437075 3.80951 7.187562 5.87698 10.95805 8.68626l-4.944489 4.81085c-13.374919 4.10932-21.951839 8.8571-22.717908 16.83798-3.491516-3.98252-6.715633-7.59757-11.626225-11.22532 6.954455-10.4524 16.746464-16.13604 28.330572-19.10977z"/><path d="m73.520761 130.72798c2.337342 1.86216 4.761826 3.36595 7.194636 5.17857l-4.944489 4.81085c-13.374919 4.10932-21.951839 8.8571-22.717908 16.83798-2.725097-3.07301-4.967412-5.56556-8.129824-8.41146 4.755076-7.52286 22.163615-18.23655 28.597585-18.41594z" fill="#d41a09"/><path d="m78.025213 133.98954c.892938.61928 1.790992 1.24705 2.690184 1.91701l-4.944489 4.81085c-13.374919 4.10932-21.951839 8.8571-22.717908 16.83798-1.583901-1.80664-3.127719-3.53766-4.783968-5.22855 8.628425-12.17198 21.339009-15.81556 29.756181-18.33729z" fill="#027b32"/></g></g><g stroke="#f9b500" stroke-width=".4" transform="matrix(2.4917795 0 0 2.4917795 50.732871 -68.004596)"><path d="m75.352386 145.70391-6.710126 9.88663h65.83702l-6.55399-10.48942z" fill="#fff"/><g transform="matrix(-1 0 0 1 204.40471 0)"><path d="m98.087914 153.74679 4.209496-3.8754-7.550366-7.21628-18.909318 1.06908-2.739511 9.55488c4.223105.74159 6.784815.60192 13.49711-.53454s8.992294.23664 11.492589 1.00226z" fill="#f9f9f9"/><g fill="#fff"><path d="m99.15294 152.73273 2.34266-2.12635-3.407686-5.54585-22.45064 1.13589-3.474502 5.87994c4.173094.94262 9.714298.51112 14.098465-.20043s9.210158-.99009 12.891703.8568z"/><path d="m72.830946 147.59959-1.536801 3.20724c4.678862 1.02223 10.093737.91455 15.100729 0s9.236256-1.5454 13.736706 1.01002l2.16583-1.96133-3.407686-5.5968-24.655613 1.06908z"/><path d="m71.895501 146.66415-1.202711 2.93996c4.940357.42305 8.449272 1.44667 16.102988-.0668 7.653715-1.51347 12.528259-.50541 14.232102 1.46998l1.26953-1.06908-2.07134-4.20949z"/></g></g><path d="m98.087914 153.74679 4.209496-3.8754-7.550366-7.21628-18.909318 1.06908-2.739511 9.55488c4.223105.74159 6.784815.60192 13.49711-.53454s8.992294.23664 11.492589 1.00226z" fill="#f9f9f9"/><g fill="#fff"><path d="m99.15294 152.73273 2.34266-2.12635-3.407686-5.54585-22.45064 1.13589-3.474502 5.87994c4.173094.94262 9.714298.51112 14.098465-.20043s9.210158-.99009 12.891703.8568z"/><path d="m72.830946 147.59959-1.536801 3.20724c4.678862 1.02223 10.093737.91455 15.100729 0s9.236256-1.5454 13.736706 1.01002l2.16583-1.96133-3.407686-5.5968-24.655613 1.06908z"/><path d="m71.895501 146.66415-1.202711 2.93996c4.940357.42305 8.449272 1.44667 16.102988-.0668 7.653715-1.51347 12.528259-.50541 14.232102 1.46998l1.26953-1.06908-2.07134-4.20949z"/><path d="m102.09696 149.9382c-1.84326-2.21032-8.995581-3.15368-15.434817-1.67043s-11.474608 1.12699-17.038431-.46773l9.087162-20.31248c3.540148 1.4329 8.469644 1.47486 13.430292.40091 4.960649-1.07396 6.905416.82046 9.955794 1.73725h.21079c3.05038-.91679 4.99515-2.81121 9.95579-1.73725 4.96065 1.07395 9.89015 1.03199 13.4303-.40091l9.08716 20.31248c-5.56383 1.59472-10.5992 1.95098-17.03843.46773-6.43924-1.48325-13.59156-.53989-15.43482 1.67043z"/></g><path d="m101.77009 131.06324.0945 16.53646" fill="none"/></g></g></svg>