<?xml version="1.0" encoding="utf-8"?>
<!-- Generator: Adobe Illustrator 25.0.0, SVG Export Plug-In . SVG Version: 6.00 Build 0)  -->
<svg version="1.1"
	 id="svg8" xmlns:cc="http://creativecommons.org/ns#" xmlns:dc="http://purl.org/dc/elements/1.1/" xmlns:inkscape="http://www.inkscape.org/namespaces/inkscape" xmlns:rdf="http://www.w3.org/1999/02/22-rdf-syntax-ns#" xmlns:sodipodi="http://sodipodi.sourceforge.net/DTD/sodipodi-0.dtd" xmlns:svg="http://www.w3.org/2000/svg"
	 xmlns="http://www.w3.org/2000/svg" xmlns:xlink="http://www.w3.org/1999/xlink" x="0px" y="0px" viewBox="0 0 454.6 456.7"
	 style="enable-background:new 0 0 454.6 456.7;" xml:space="preserve">
<style type="text/css">
	.st0{fill:#2AA8DB;}
</style>
<sodipodi:namedview  bordercolor="#666666" borderopacity="1.0" fit-margin-bottom="0" fit-margin-left="0" fit-margin-right="0" fit-margin-top="0" id="base" inkscape:current-layer="g41" inkscape:cx="44.264187" inkscape:cy="26.296421" inkscape:document-rotation="0" inkscape:document-units="mm" inkscape:pageopacity="0.0" inkscape:pageshadow="2" inkscape:window-height="967" inkscape:window-maximized="0" inkscape:window-width="1264" inkscape:window-x="0" inkscape:window-y="0" inkscape:zoom="3.959798" pagecolor="#ffffff" showgrid="false" units="px">
	</sodipodi:namedview>
<path class="st0" d="M383.2,60.1c-54.9-38-99.7-61.7-136-60C211.7,1.8,172.8,24.6,134,44C94.3,63.4,40.2,60.9,25.8,97.2
	c0,0-8.4,16.9-2.5,50.7c7.6,65-27.9,78.6-22.8,113.2c5.1,34.6,54.9,77.7,76.9,103.9c22,26.2,74.3,69.3,74.3,69.3
	c36.3,27,64.2,27,105.6,13.5c24.5-7.6,65.9-22,89.5-35.5c64.2-35.5,98-88.7,106.4-159.7C460.9,184.3,435.6,96.4,383.2,60.1z
	 M117.9,206.2c0,0,21.1-2.5,21.1,19.4c0.8,12.6-11,18.6-20.3,18.6s-18.6-6.8-20.3-16.1S101,206.2,117.9,206.2z M350.2,213
	c-17.7,0-23.7-15.2-28.7-15.2c-5.9,0-33.8,11.8-43.1,62.5c-3.4,22-3.4,40.6,17.7,39.7c0,0-11,11.8-44.8,11.8
	c-33.8,0-23.7-37.2-16.1-55.7s7.6-19.4,8.4-22.8c0.8-4.2-0.8-11.8-12.7-0.8c-11.8,11-25.3,22-29.6,23.7c0,0,16.1,64.2,40.6,109.8
	c5.1,11,0.8,14.4-7.6,18.6s-19.4,7.6-26.2-5.9c-6.7-13.5-22-39.7-37.2-103.1c-0.8,0.8-49,31.2-75.2-3.4c0,0,43.1-10.1,68.4-30.4
	c0,0-16.1-88.7,10.1-126.7C200.7,77,226,60.1,286,66.8c13.5,1.7,11,11.8,10.1,17.7c-0.8,5.9-1.7,17.7-12.7,16.1
	c0,0-56.6-0.8-71.8,26.2c-16.1,27-20.3,53.2-15.2,96.3c0,0,58.3-44.8,74.3-58.3c16.1-14.4,30.4-17.7,24.5,3.4
	c-2.5,9.3-5.9,19.4-5.9,19.4c-0.8,4.2,0.8,6.7,5.9,1.7c4.2-4.2,34.6-28.7,53.2-32.9c18.6-4.2,32.1,10.1,32.1,30.4
	C380.6,206.2,357.8,213,350.2,213z"/>
</svg>
