<?xml version="1.0" encoding="UTF-8" standalone="no"?>
<!-- Generator: Adobe Illustrator 16.0.0, SVG Export Plug-In . SVG Version: 6.00 Build 0)  -->

<svg
   xmlns:dc="http://purl.org/dc/elements/1.1/"
   xmlns:cc="http://creativecommons.org/ns#"
   xmlns:rdf="http://www.w3.org/1999/02/22-rdf-syntax-ns#"
   xmlns:svg="http://www.w3.org/2000/svg"
   xmlns="http://www.w3.org/2000/svg"
   xmlns:sodipodi="http://sodipodi.sourceforge.net/DTD/sodipodi-0.dtd"
   xmlns:inkscape="http://www.inkscape.org/namespaces/inkscape"
   version="1.1"
   id="Ebene_1"
   x="0px"
   y="0px"
   width="434.51401"
   height="221.103"
   viewBox="0 0 434.514 221.10299"
   enable-background="new 0 0 841.89 595.28"
   xml:space="preserve"
   sodipodi:docname="Logo_DENIC.svg"
   inkscape:version="0.92.1 r15371"><metadata
     id="metadata13"><rdf:RDF><cc:Work
         rdf:about=""><dc:format>image/svg+xml</dc:format><dc:type
           rdf:resource="http://purl.org/dc/dcmitype/StillImage" /><dc:title></dc:title></cc:Work></rdf:RDF></metadata><defs
     id="defs11" /><sodipodi:namedview
     pagecolor="#ffffff"
     bordercolor="#666666"
     borderopacity="1"
     objecttolerance="10"
     gridtolerance="10"
     guidetolerance="10"
     inkscape:pageopacity="0"
     inkscape:pageshadow="2"
     inkscape:window-width="640"
     inkscape:window-height="480"
     id="namedview9"
     showgrid="false"
     fit-margin-top="0"
     fit-margin-left="0"
     fit-margin-right="0"
     fit-margin-bottom="0"
     inkscape:zoom="0.39645207"
     inkscape:cx="217.32101"
     inkscape:cy="110.55199"
     inkscape:window-x="0"
     inkscape:window-y="0"
     inkscape:window-maximized="0"
     inkscape:current-layer="Ebene_1" /><g
     id="g6"
     transform="translate(-203.624,-187.089)"><path
       d="m 530.869,340.646 h 20.633 V 262.175 H 530.869 Z M 314.175,187.089 c -61.058,0 -110.551,49.51 -110.551,110.556 0,61.052 49.493,110.547 110.551,110.547 61.05,0 110.552,-49.495 110.552,-110.546 0,-61.047 -49.502,-110.557 -110.552,-110.557 z m 174.188,73.136 c -12.672,0 -22.42,6.175 -27.455,12.023 v -10.072 h -20.633 v 78.471 h 20.633 v -52.965 c 3.574,-4.55 9.746,-9.098 17.869,-9.098 8.775,0 14.461,3.738 14.461,14.622 v 47.44 h 20.795 v -55.401 c 0,-15.272 -8.285,-25.02 -25.67,-25.02 z M 541.1,225.869 c -6.959,0 -12.725,5.601 -12.725,12.727 0,7.127 5.766,12.898 12.725,12.898 7.127,-0.001 12.896,-5.771 12.896,-12.898 0,-7.127 -5.769,-12.727 -12.896,-12.727 z m 66.982,98.367 c -12.512,0 -21.283,-9.26 -21.283,-22.906 0,-13.648 8.771,-22.746 21.283,-22.746 7.146,0 12.834,2.924 16.57,8.447 l 13.486,-12.671 c -5.201,-7.149 -14.947,-14.136 -31.031,-14.136 -24.047,0 -41.592,17.061 -41.592,41.105 0,24.207 17.545,41.265 41.592,41.265 16.084,0 25.83,-7.147 31.031,-14.294 l -13.486,-12.674 c -3.736,5.362 -9.423,8.61 -16.57,8.61 z"
       id="path2"
       inkscape:connector-curvature="0"
       style="fill:#007a9d" /><path
       d="m 286.614,272.048 c -6.174,-8.231 -15.055,-12.293 -24.533,-12.293 -20.037,0 -34.768,15.65 -34.768,41.104 0,26.212 15,41.267 34.768,41.267 9.803,0 18.412,-4.44 24.533,-12.239 v 10.29 h 19.549 V 228.854 h -19.549 z m 0,43.325 c -3.521,5.415 -11.316,9.477 -18.52,9.477 -12.457,0 -20.742,-9.803 -20.742,-23.991 0,-14.026 8.285,-23.827 20.742,-23.827 7.203,0 14.998,4.061 18.52,9.477 z m 115.11,-12.727 c 0,-25.236 -15.488,-42.891 -39.047,-42.891 -23.559,0 -40.346,18.358 -40.346,41.104 0,25.074 17.818,41.267 41.646,41.267 12.238,0 24.316,-3.845 32.168,-11.102 l -8.773,-12.836 c -5.254,5.146 -14.299,8.016 -21.338,8.016 -13.809,0 -21.932,-8.609 -23.34,-18.899 h 59.029 v -4.659 z m -59.192,-8.935 c 0.758,-8.341 6.715,-18.035 20.09,-18.035 14.242,0 19.822,9.965 20.418,18.035 z"
       id="path4"
       inkscape:connector-curvature="0"
       style="fill:#ffffff" /></g></svg>